<svg version="1.1" viewBox="0.0 0.0 600.0 371.0" fill="none" stroke="none" stroke-linecap="square" stroke-miterlimit="10" width="600" height="371" xmlns:xlink="http://www.w3.org/1999/xlink" xmlns="http://www.w3.org/2000/svg"><path fill="#ffffff" d="M0 0L600.0 0L600.0 371.0L0 371.0L0 0Z" fill-rule="nonzero"/><path stroke="#cccccc" stroke-width="1.0" stroke-linecap="butt" d="M114.5 88.5L114.5 300.5" fill-rule="nonzero"/><path stroke="#cccccc" stroke-width="1.0" stroke-linecap="butt" d="M201.5 88.5L201.5 300.5" fill-rule="nonzero"/><path stroke="#cccccc" stroke-width="1.0" stroke-linecap="butt" d="M287.5 88.5L287.5 300.5" fill-rule="nonzero"/><path stroke="#cccccc" stroke-width="1.0" stroke-linecap="butt" d="M374.5 88.5L374.5 300.5" fill-rule="nonzero"/><path stroke="#cccccc" stroke-width="1.0" stroke-linecap="butt" d="M460.5 88.5L460.5 300.5" fill-rule="nonzero"/><path stroke="#cccccc" stroke-width="1.0" stroke-linecap="butt" d="M546.5 88.5L546.5 300.5" fill-rule="nonzero"/><path stroke="#333333" stroke-width="1.0" stroke-linecap="butt" d="M45.5 300.5L581.5 300.5" fill-rule="nonzero"/><path stroke="#cccccc" stroke-width="1.0" stroke-linecap="butt" d="M45.5 247.5L581.5 247.5" fill-rule="nonzero"/><path stroke="#cccccc" stroke-width="1.0" stroke-linecap="butt" d="M45.5 194.5L581.5 194.5" fill-rule="nonzero"/><path stroke="#cccccc" stroke-width="1.0" stroke-linecap="butt" d="M45.5 141.5L581.5 141.5" fill-rule="nonzero"/><path stroke="#cccccc" stroke-width="1.0" stroke-linecap="butt" d="M45.5 88.5L581.5 88.5" fill-rule="nonzero"/><clipPath id="id_0"><path d="M45.55 88.28333L581.45 88.28333L581.45 300.45L45.55 300.45L45.55 88.28333Z" clip-rule="nonzero"/></clipPath><path stroke="#4285f4" stroke-width="2.0" stroke-linecap="butt" clip-path="url(#id_0)" d="M45.55 105.9303L62.837097 200.18958L97.41129 246.93864L166.55968 270.86255L304.85645 282.44632L581.45 283.90524" fill-rule="nonzero"/><path stroke="#ea4335" stroke-width="2.0" stroke-linecap="butt" clip-path="url(#id_0)" d="M45.55 177.61186L62.837097 215.86711L97.41129 235.04697L166.55968 243.6445L304.85645 243.65988L581.45 241.54802" fill-rule="nonzero"/><path stroke="#fbbc04" stroke-width="2.0" stroke-linecap="butt" clip-path="url(#id_0)" d="M45.55 193.23634L62.837097 221.20522L97.41129 241.3295L166.55968 248.13235L304.85645 245.44872L581.45 245.28348" fill-rule="nonzero"/><path fill="#000000" fill-opacity="0.0" clip-path="url(#id_0)" d="M48.55 105.9303C48.55 107.58715 47.206856 108.9303 45.55 108.9303C43.893147 108.9303 42.55 107.58715 42.55 105.9303C42.55 104.273445 43.893147 102.9303 45.55 102.9303C47.206856 102.9303 48.55 104.273445 48.55 105.9303Z" fill-rule="nonzero"/><path fill="#000000" fill-opacity="0.0" clip-path="url(#id_0)" d="M65.8371 200.18958C65.8371 201.84644 64.49395 203.18958 62.837097 203.18958C61.18024 203.18958 59.837097 201.84644 59.837097 200.18958C59.837097 198.53273 61.18024 197.18958 62.837097 197.18958C64.49395 197.18958 65.8371 198.53273 65.8371 200.18958Z" fill-rule="nonzero"/><path fill="#000000" fill-opacity="0.0" clip-path="url(#id_0)" d="M100.41129 246.93864C100.41129 248.5955 99.068146 249.93864 97.41129 249.93864C95.75443 249.93864 94.41129 248.5955 94.41129 246.93864C94.41129 245.2818 95.75443 243.93864 97.41129 243.93864C99.068146 243.93864 100.41129 245.2818 100.41129 246.93864Z" fill-rule="nonzero"/><path fill="#000000" fill-opacity="0.0" clip-path="url(#id_0)" d="M169.55968 270.86255C169.55968 272.5194 168.21654 273.86255 166.55968 273.86255C164.90282 273.86255 163.55968 272.5194 163.55968 270.86255C163.55968 269.20572 164.90282 267.86255 166.55968 267.86255C168.21654 267.86255 169.55968 269.20572 169.55968 270.86255Z" fill-rule="nonzero"/><path fill="#000000" fill-opacity="0.0" clip-path="url(#id_0)" d="M307.85645 282.44632C307.85645 284.10318 306.5133 285.44632 304.85645 285.44632C303.1996 285.44632 301.85645 284.10318 301.85645 282.44632C301.85645 280.7895 303.1996 279.44632 304.85645 279.44632C306.5133 279.44632 307.85645 280.7895 307.85645 282.44632Z" fill-rule="nonzero"/><path fill="#000000" fill-opacity="0.0" clip-path="url(#id_0)" d="M584.45 283.90524C584.45 285.5621 583.1069 286.90524 581.45 286.90524C579.79315 286.90524 578.45 285.5621 578.45 283.90524C578.45 282.24838 579.79315 280.90524 581.45 280.90524C583.1069 280.90524 584.45 282.24838 584.45 283.90524Z" fill-rule="nonzero"/><path fill="#000000" fill-opacity="0.0" clip-path="url(#id_0)" d="M48.55 177.61186C48.55 179.26872 47.206856 180.61186 45.55 180.61186C43.893147 180.61186 42.55 179.26872 42.55 177.61186C42.55 175.95502 43.893147 174.61186 45.55 174.61186C47.206856 174.61186 48.55 175.95502 48.55 177.61186Z" fill-rule="nonzero"/><path fill="#000000" fill-opacity="0.0" clip-path="url(#id_0)" d="M65.8371 215.86711C65.8371 217.52396 64.49395 218.86711 62.837097 218.86711C61.18024 218.86711 59.837097 217.52396 59.837097 215.86711C59.837097 214.21025 61.18024 212.86711 62.837097 212.86711C64.49395 212.86711 65.8371 214.21025 65.8371 215.86711Z" fill-rule="nonzero"/><path fill="#000000" fill-opacity="0.0" clip-path="url(#id_0)" d="M100.41129 235.04697C100.41129 236.70383 99.068146 238.04697 97.41129 238.04697C95.75443 238.04697 94.41129 236.70383 94.41129 235.04697C94.41129 233.39012 95.75443 232.04697 97.41129 232.04697C99.068146 232.04697 100.41129 233.39012 100.41129 235.04697Z" fill-rule="nonzero"/><path fill="#000000" fill-opacity="0.0" clip-path="url(#id_0)" d="M169.55968 243.6445C169.55968 245.30135 168.21654 246.6445 166.55968 246.6445C164.90282 246.6445 163.55968 245.30135 163.55968 243.6445C163.55968 241.98764 164.90282 240.6445 166.55968 240.6445C168.21654 240.6445 169.55968 241.98764 169.55968 243.6445Z" fill-rule="nonzero"/><path fill="#000000" fill-opacity="0.0" clip-path="url(#id_0)" d="M307.85645 243.65988C307.85645 245.31673 306.5133 246.65988 304.85645 246.65988C303.1996 246.65988 301.85645 245.31673 301.85645 243.65988C301.85645 242.00302 303.1996 240.65988 304.85645 240.65988C306.5133 240.65988 307.85645 242.00302 307.85645 243.65988Z" fill-rule="nonzero"/><path fill="#000000" fill-opacity="0.0" clip-path="url(#id_0)" d="M584.45 241.54802C584.45 243.20488 583.1069 244.54802 581.45 244.54802C579.79315 244.54802 578.45 243.20488 578.45 241.54802C578.45 239.89117 579.79315 238.54802 581.45 238.54802C583.1069 238.54802 584.45 239.89117 584.45 241.54802Z" fill-rule="nonzero"/><path fill="#000000" fill-opacity="0.0" clip-path="url(#id_0)" d="M48.55 193.23634C48.55 194.8932 47.206856 196.23634 45.55 196.23634C43.893147 196.23634 42.55 194.8932 42.55 193.23634C42.55 191.5795 43.893147 190.23634 45.55 190.23634C47.206856 190.23634 48.55 191.5795 48.55 193.23634Z" fill-rule="nonzero"/><path fill="#000000" fill-opacity="0.0" clip-path="url(#id_0)" d="M65.8371 221.20522C65.8371 222.86208 64.49395 224.20522 62.837097 224.20522C61.18024 224.20522 59.837097 222.86208 59.837097 221.20522C59.837097 219.54837 61.18024 218.20522 62.837097 218.20522C64.49395 218.20522 65.8371 219.54837 65.8371 221.20522Z" fill-rule="nonzero"/><path fill="#000000" fill-opacity="0.0" clip-path="url(#id_0)" d="M100.41129 241.3295C100.41129 242.98634 99.068146 244.3295 97.41129 244.3295C95.75443 244.3295 94.41129 242.98634 94.41129 241.3295C94.41129 239.67264 95.75443 238.3295 97.41129 238.3295C99.068146 238.3295 100.41129 239.67264 100.41129 241.3295Z" fill-rule="nonzero"/><path fill="#000000" fill-opacity="0.0" clip-path="url(#id_0)" d="M169.55968 248.13235C169.55968 249.7892 168.21654 251.13235 166.55968 251.13235C164.90282 251.13235 163.55968 249.7892 163.55968 248.13235C163.55968 246.4755 164.90282 245.13235 166.55968 245.13235C168.21654 245.13235 169.55968 246.4755 169.55968 248.13235Z" fill-rule="nonzero"/><path fill="#000000" fill-opacity="0.0" clip-path="url(#id_0)" d="M307.85645 245.44872C307.85645 247.10556 306.5133 248.44872 304.85645 248.44872C303.1996 248.44872 301.85645 247.10556 301.85645 245.44872C301.85645 243.79185 303.1996 242.44872 304.85645 242.44872C306.5133 242.44872 307.85645 243.79185 307.85645 245.44872Z" fill-rule="nonzero"/><path fill="#000000" fill-opacity="0.0" clip-path="url(#id_0)" d="M584.45 245.28348C584.45 246.94034 583.1069 248.28348 581.45 248.28348C579.79315 248.28348 578.45 246.94034 578.45 245.28348C578.45 243.62663 579.79315 242.28348 581.45 242.28348C583.1069 242.28348 584.45 243.62663 584.45 245.28348Z" fill-rule="nonzero"/><path fill="#000000" d="M283.92188 349.45L283.92188 340.85626L287.17188 340.85626Q288.01562 340.85626 288.46875 340.9344Q289.10938 341.04376 289.53125 341.34064Q289.96875 341.6375 290.21875 342.16876Q290.48438 342.7 290.48438 343.34064Q290.48438 344.4344 289.78125 345.2Q289.09375 345.95 287.26562 345.95L285.0625 345.95L285.0625 349.45L283.92188 349.45ZM285.0625 344.95L287.28125 344.95Q288.39062 344.95 288.84375 344.54376Q289.3125 344.1219 289.3125 343.3719Q289.3125 342.84064 289.03125 342.46564Q288.76562 342.075 288.32812 341.95Q288.03125 341.8719 287.26562 341.8719L285.0625 341.8719L285.0625 344.95ZM295.85938 348.6844Q295.26562 349.1844 294.71875 349.3875Q294.1875 349.59064 293.5625 349.59064Q292.53125 349.59064 291.98438 349.09064Q291.4375 348.59064 291.4375 347.8094Q291.4375 347.35626 291.64062 346.98126Q291.84375 346.59064 292.1875 346.3719Q292.53125 346.1375 292.95312 346.02814Q293.25 345.9344 293.89062 345.85626Q295.15625 345.71564 295.76562 345.4969Q295.76562 345.27814 295.76562 345.23126Q295.76562 344.575 295.46875 344.3094Q295.0625 343.96564 294.26562 343.96564Q293.53125 343.96564 293.17188 344.23126Q292.8125 344.48126 292.64062 345.1375L291.60938 344.9969Q291.75 344.34064 292.07812 343.9344Q292.40625 343.52814 293.01562 343.3094Q293.625 343.09064 294.42188 343.09064Q295.21875 343.09064 295.71875 343.27814Q296.21875 343.46564 296.45312 343.7469Q296.6875 344.02814 296.78125 344.46564Q296.82812 344.73126 296.82812 345.4344L296.82812 346.84064Q296.82812 348.3094 296.89062 348.7Q296.96875 349.09064 297.17188 349.45L296.0625 349.45Q295.90625 349.1219 295.85938 348.6844ZM295.76562 346.325Q295.1875 346.5594 294.04688 346.73126Q293.39062 346.825 293.125 346.95Q292.85938 347.0594 292.70312 347.27814Q292.5625 347.4969 292.5625 347.77814Q292.5625 348.2 292.875 348.48126Q293.20312 348.7625 293.8125 348.7625Q294.42188 348.7625 294.89062 348.4969Q295.375 348.23126 295.59375 347.7625Q295.76562 347.40314 295.76562 346.71564L295.76562 346.325ZM298.78125 349.45L298.78125 343.23126L299.73438 343.23126L299.73438 344.16876Q300.09375 343.5125 300.39062 343.3094Q300.70312 343.09064 301.07812 343.09064Q301.60938 343.09064 302.15625 343.41876L301.79688 344.40314Q301.40625 344.16876 301.03125 344.16876Q300.67188 344.16876 300.39062 344.3875Q300.125 344.59064 300.01562 344.96564Q299.82812 345.52814 299.82812 346.1844L299.82812 349.45L298.78125 349.45ZM306.85938 348.6844Q306.26562 349.1844 305.71875 349.3875Q305.1875 349.59064 304.5625 349.59064Q303.53125 349.59064 302.98438 349.09064Q302.4375 348.59064 302.4375 347.8094Q302.4375 347.35626 302.64062 346.98126Q302.84375 346.59064 303.1875 346.3719Q303.53125 346.1375 303.95312 346.02814Q304.25 345.9344 304.89062 345.85626Q306.15625 345.71564 306.76562 345.4969Q306.76562 345.27814 306.76562 345.23126Q306.76562 344.575 306.46875 344.3094Q306.0625 343.96564 305.26562 343.96564Q304.53125 343.96564 304.17188 344.23126Q303.8125 344.48126 303.64062 345.1375L302.60938 344.9969Q302.75 344.34064 303.07812 343.9344Q303.40625 343.52814 304.01562 343.3094Q304.625 343.09064 305.42188 343.09064Q306.21875 343.09064 306.71875 343.27814Q307.21875 343.46564 307.45312 343.7469Q307.6875 344.02814 307.78125 344.46564Q307.82812 344.73126 307.82812 345.4344L307.82812 346.84064Q307.82812 348.3094 307.89062 348.7Q307.96875 349.09064 308.17188 349.45L307.0625 349.45Q306.90625 349.1219 306.85938 348.6844ZM306.76562 346.325Q306.1875 346.5594 305.04688 346.73126Q304.39062 346.825 304.125 346.95Q303.85938 347.0594 303.70312 347.27814Q303.5625 347.4969 303.5625 347.77814Q303.5625 348.2 303.875 348.48126Q304.20312 348.7625 304.8125 348.7625Q305.42188 348.7625 305.89062 348.4969Q306.375 348.23126 306.59375 347.7625Q306.76562 347.40314 306.76562 346.71564L306.76562 346.325ZM309.76562 349.45L309.76562 340.85626L310.82812 340.85626L310.82812 349.45L309.76562 349.45ZM317.04688 347.45L318.14062 347.575Q317.89062 348.52814 317.1875 349.0594Q316.48438 349.59064 315.40625 349.59064Q314.04688 349.59064 313.23438 348.7469Q312.4375 347.90314 312.4375 346.3875Q312.4375 344.825 313.25 343.96564Q314.0625 343.09064 315.34375 343.09064Q316.59375 343.09064 317.375 343.9344Q318.17188 344.77814 318.17188 346.325Q318.17188 346.41876 318.17188 346.60626L313.53125 346.60626Q313.59375 347.6375 314.10938 348.1844Q314.625 348.71564 315.40625 348.71564Q315.98438 348.71564 316.39062 348.41876Q316.8125 348.10626 317.04688 347.45ZM313.59375 345.7469L317.0625 345.7469Q317.0 344.95 316.67188 344.5594Q316.15625 343.95 315.35938 343.95Q314.625 343.95 314.125 344.4344Q313.64062 344.91876 313.59375 345.7469ZM319.76562 349.45L319.76562 340.85626L320.82812 340.85626L320.82812 349.45L319.76562 349.45ZM322.76562 349.45L322.76562 340.85626L323.82812 340.85626L323.82812 349.45L322.76562 349.45ZM325.79688 342.075L325.79688 340.85626L326.85938 340.85626L326.85938 342.075L325.79688 342.075ZM325.79688 349.45L325.79688 343.23126L326.85938 343.23126L326.85938 349.45L325.79688 349.45ZM328.375 347.59064L329.40625 347.4344Q329.5 348.0594 329.89062 348.3875Q330.29688 348.71564 331.03125 348.71564Q331.75 348.71564 332.09375 348.4344Q332.45312 348.1375 332.45312 347.73126Q332.45312 347.3719 332.14062 347.16876Q331.92188 347.02814 331.0625 346.8094Q329.90625 346.5125 329.45312 346.3094Q329.01562 346.09064 328.78125 345.71564Q328.54688 345.34064 328.54688 344.8719Q328.54688 344.46564 328.73438 344.10626Q328.92188 343.7469 329.25 343.5125Q329.5 343.34064 329.92188 343.21564Q330.34375 343.09064 330.84375 343.09064Q331.5625 343.09064 332.10938 343.3094Q332.67188 343.5125 332.9375 343.8719Q333.20312 344.23126 333.29688 344.825L332.26562 344.96564Q332.20312 344.4969 331.85938 344.23126Q331.53125 343.95 330.90625 343.95Q330.1875 343.95 329.875 344.2Q329.5625 344.4344 329.5625 344.7625Q329.5625 344.96564 329.6875 345.1219Q329.82812 345.29376 330.09375 345.40314Q330.25 345.46564 331.03125 345.66876Q332.15625 345.98126 332.59375 346.16876Q333.03125 346.35626 333.28125 346.71564Q333.53125 347.075 333.53125 347.6219Q333.53125 348.15314 333.21875 348.6219Q332.92188 349.075 332.34375 349.34064Q331.76562 349.59064 331.03125 349.59064Q329.8125 349.59064 329.17188 349.09064Q328.54688 348.575 328.375 347.59064ZM334.79688 349.45L334.79688 343.23126L335.73438 343.23126L335.73438 344.10626Q336.03125 343.6375 336.51562 343.3719Q337.0 343.09064 337.625 343.09064Q338.3125 343.09064 338.75 343.3719Q339.20312 343.65314 339.375 344.16876Q340.125 343.09064 341.29688 343.09064Q342.23438 343.09064 342.71875 343.60626Q343.21875 344.10626 343.21875 345.1844L343.21875 349.45L342.17188 349.45L342.17188 345.52814Q342.17188 344.90314 342.0625 344.6219Q341.96875 344.34064 341.70312 344.16876Q341.4375 343.9969 341.0625 343.9969Q340.40625 343.9969 339.96875 344.4344Q339.54688 344.8719 339.54688 345.84064L339.54688 349.45L338.48438 349.45L338.48438 345.40314Q338.48438 344.7 338.21875 344.35626Q337.96875 343.9969 337.39062 343.9969Q336.9375 343.9969 336.5625 344.23126Q336.1875 344.46564 336.01562 344.91876Q335.84375 345.3719 335.84375 346.21564L335.84375 349.45L334.79688 349.45Z" fill-rule="nonzero"/><path fill="#000000" d="M33.05 300.21564Q33.05 298.6844 33.3625 297.7625Q33.675 296.825 34.284374 296.325Q34.909374 295.825 35.846874 295.825Q36.534374 295.825 37.05 296.10626Q37.58125 296.3875 37.925 296.91876Q38.26875 297.4344 38.45625 298.1844Q38.64375 298.9344 38.64375 300.21564Q38.64375 301.73126 38.33125 302.65314Q38.034374 303.575 37.409374 304.09064Q36.8 304.59064 35.846874 304.59064Q34.6125 304.59064 33.89375 303.7Q33.05 302.6375 33.05 300.21564ZM34.128124 300.21564Q34.128124 302.325 34.628124 303.02814Q35.128124 303.73126 35.846874 303.73126Q36.58125 303.73126 37.065624 303.02814Q37.565624 302.325 37.565624 300.21564Q37.565624 298.09064 37.065624 297.40314Q36.58125 296.7 35.83125 296.7Q35.1125 296.7 34.675 297.3094Q34.128124 298.09064 34.128124 300.21564Z" fill-rule="nonzero"/><path fill="#000000" d="M24.596874 250.39272L24.596874 251.40834L18.909374 251.40834Q18.909374 251.03334 19.034374 250.67397Q19.253124 250.09584 19.721874 249.53334Q20.20625 248.97084 21.1125 248.23647Q22.51875 247.08022 23.003124 246.40834Q23.503124 245.73647 23.503124 245.14272Q23.503124 244.51772 23.05 244.09584Q22.596874 243.65834 21.878124 243.65834Q21.1125 243.65834 20.659374 244.11147Q20.20625 244.56459 20.190624 245.37709L19.1125 245.26772Q19.221874 244.04897 19.940624 243.42397Q20.675 242.78334 21.909374 242.78334Q23.14375 242.78334 23.8625 243.47084Q24.58125 244.15834 24.58125 245.17397Q24.58125 245.68959 24.3625 246.18959Q24.159374 246.67397 23.659374 247.23647Q23.175 247.78334 22.05 248.73647Q21.096874 249.53334 20.815624 249.83022Q20.55 250.11147 20.378124 250.39272L24.596874 250.39272ZM26.05 247.17397Q26.05 245.64272 26.3625 244.72084Q26.675 243.78334 27.284374 243.28334Q27.909374 242.78334 28.846874 242.78334Q29.534374 242.78334 30.05 243.06459Q30.58125 243.34584 30.925 243.87709Q31.26875 244.39272 31.45625 245.14272Q31.64375 245.89272 31.64375 247.17397Q31.64375 248.68959 31.33125 249.61147Q31.034374 250.53334 30.409374 251.04897Q29.8 251.54897 28.846874 251.54897Q27.6125 251.54897 26.89375 250.65834Q26.05 249.59584 26.05 247.17397ZM27.128124 247.17397Q27.128124 249.28334 27.628124 249.98647Q28.128124 250.68959 28.846874 250.68959Q29.58125 250.68959 30.065624 249.98647Q30.565624 249.28334 30.565624 247.17397Q30.565624 245.04897 30.065624 244.36147Q29.58125 243.65834 28.83125 243.65834Q28.1125 243.65834 27.675 244.26772Q27.128124 245.04897 27.128124 247.17397ZM33.05 247.17397Q33.05 245.64272 33.3625 244.72084Q33.675 243.78334 34.284374 243.28334Q34.909374 242.78334 35.846874 242.78334Q36.534374 242.78334 37.05 243.06459Q37.58125 243.34584 37.925 243.87709Q38.26875 244.39272 38.45625 245.14272Q38.64375 245.89272 38.64375 247.17397Q38.64375 248.68959 38.33125 249.61147Q38.034374 250.53334 37.409374 251.04897Q36.8 251.54897 35.846874 251.54897Q34.6125 251.54897 33.89375 250.65834Q33.05 249.59584 33.05 247.17397ZM34.128124 247.17397Q34.128124 249.28334 34.628124 249.98647Q35.128124 250.68959 35.846874 250.68959Q36.58125 250.68959 37.065624 249.98647Q37.565624 249.28334 37.565624 247.17397Q37.565624 245.04897 37.065624 244.36147Q36.58125 243.65834 35.83125 243.65834Q35.1125 243.65834 34.675 244.26772Q34.128124 245.04897 34.128124 247.17397Z" fill-rule="nonzero"/><path fill="#000000" d="M22.425 198.36667L22.425 196.30417L18.70625 196.30417L18.70625 195.33542L22.628124 189.77292L23.4875 189.77292L23.4875 195.33542L24.64375 195.33542L24.64375 196.30417L23.4875 196.30417L23.4875 198.36667L22.425 198.36667ZM22.425 195.33542L22.425 191.47604L19.7375 195.33542L22.425 195.33542ZM26.05 194.1323Q26.05 192.60104 26.3625 191.67917Q26.675 190.74167 27.284374 190.24167Q27.909374 189.74167 28.846874 189.74167Q29.534374 189.74167 30.05 190.02292Q30.58125 190.30417 30.925 190.83542Q31.26875 191.35104 31.45625 192.10104Q31.64375 192.85104 31.64375 194.1323Q31.64375 195.64792 31.33125 196.5698Q31.034374 197.49167 30.409374 198.0073Q29.8 198.5073 28.846874 198.5073Q27.6125 198.5073 26.89375 197.61667Q26.05 196.55417 26.05 194.1323ZM27.128124 194.1323Q27.128124 196.24167 27.628124 196.9448Q28.128124 197.64792 28.846874 197.64792Q29.58125 197.64792 30.065624 196.9448Q30.565624 196.24167 30.565624 194.1323Q30.565624 192.0073 30.065624 191.3198Q29.58125 190.61667 28.83125 190.61667Q28.1125 190.61667 27.675 191.22604Q27.128124 192.0073 27.128124 194.1323ZM33.05 194.1323Q33.05 192.60104 33.3625 191.67917Q33.675 190.74167 34.284374 190.24167Q34.909374 189.74167 35.846874 189.74167Q36.534374 189.74167 37.05 190.02292Q37.58125 190.30417 37.925 190.83542Q38.26875 191.35104 38.45625 192.10104Q38.64375 192.85104 38.64375 194.1323Q38.64375 195.64792 38.33125 196.5698Q38.034374 197.49167 37.409374 198.0073Q36.8 198.5073 35.846874 198.5073Q34.6125 198.5073 33.89375 197.61667Q33.05 196.55417 33.05 194.1323ZM34.128124 194.1323Q34.128124 196.24167 34.628124 196.9448Q35.128124 197.64792 35.846874 197.64792Q36.58125 197.64792 37.065624 196.9448Q37.565624 196.24167 37.565624 194.1323Q37.565624 192.0073 37.065624 191.3198Q36.58125 190.61667 35.83125 190.61667Q35.1125 190.61667 34.675 191.22604Q34.128124 192.0073 34.128124 194.1323Z" fill-rule="nonzero"/><path fill="#000000" d="M24.51875 138.84062L23.471874 138.91875Q23.33125 138.29375 23.08125 138.0125Q22.64375 137.55937 22.01875 137.55937Q21.51875 137.55937 21.128124 137.84062Q20.64375 138.21562 20.346874 138.91875Q20.065624 139.60625 20.05 140.8875Q20.425 140.30937 20.971874 140.02812Q21.534374 139.74687 22.14375 139.74687Q23.190624 139.74687 23.925 140.52812Q24.675 141.30937 24.675 142.52812Q24.675 143.34062 24.315624 144.04375Q23.971874 144.73125 23.3625 145.10625Q22.753124 145.46562 21.9875 145.46562Q20.659374 145.46562 19.83125 144.49687Q19.003124 143.52812 19.003124 141.30937Q19.003124 138.80937 19.925 137.68437Q20.721874 136.7 22.08125 136.7Q23.096874 136.7 23.7375 137.27812Q24.39375 137.84062 24.51875 138.84062ZM20.221874 142.54375Q20.221874 143.09062 20.440624 143.59062Q20.675 144.075 21.08125 144.34062Q21.503124 144.60625 21.971874 144.60625Q22.628124 144.60625 23.1125 144.075Q23.596874 143.52812 23.596874 142.60625Q23.596874 141.71562 23.1125 141.2Q22.64375 140.68437 21.925 140.68437Q21.20625 140.68437 20.70625 141.2Q20.221874 141.71562 20.221874 142.54375ZM26.05 141.09062Q26.05 139.55937 26.3625 138.6375Q26.675 137.7 27.284374 137.2Q27.909374 136.7 28.846874 136.7Q29.534374 136.7 30.05 136.98125Q30.58125 137.2625 30.925 137.79375Q31.26875 138.30937 31.45625 139.05937Q31.64375 139.80937 31.64375 141.09062Q31.64375 142.60625 31.33125 143.52812Q31.034374 144.45 30.409374 144.96562Q29.8 145.46562 28.846874 145.46562Q27.6125 145.46562 26.89375 144.575Q26.05 143.5125 26.05 141.09062ZM27.128124 141.09062Q27.128124 143.2 27.628124 143.90312Q28.128124 144.60625 28.846874 144.60625Q29.58125 144.60625 30.065624 143.90312Q30.565624 143.2 30.565624 141.09062Q30.565624 138.96562 30.065624 138.27812Q29.58125 137.575 28.83125 137.575Q28.1125 137.575 27.675 138.18437Q27.128124 138.96562 27.128124 141.09062ZM33.05 141.09062Q33.05 139.55937 33.3625 138.6375Q33.675 137.7 34.284374 137.2Q34.909374 136.7 35.846874 136.7Q36.534374 136.7 37.05 136.98125Q37.58125 137.2625 37.925 137.79375Q38.26875 138.30937 38.45625 139.05937Q38.64375 139.80937 38.64375 141.09062Q38.64375 142.60625 38.33125 143.52812Q38.034374 144.45 37.409374 144.96562Q36.8 145.46562 35.846874 145.46562Q34.6125 145.46562 33.89375 144.575Q33.05 143.5125 33.05 141.09062ZM34.128124 141.09062Q34.128124 143.2 34.628124 143.90312Q35.128124 144.60625 35.846874 144.60625Q36.58125 144.60625 37.065624 143.90312Q37.565624 143.2 37.565624 141.09062Q37.565624 138.96562 37.065624 138.27812Q36.58125 137.575 35.83125 137.575Q35.1125 137.575 34.675 138.18437Q34.128124 138.96562 34.128124 141.09062Z" fill-rule="nonzero"/><path fill="#000000" d="M20.675 87.62708Q20.01875 87.37708 19.690624 86.93958Q19.378124 86.48646 19.378124 85.87708Q19.378124 84.93958 20.05 84.29896Q20.7375 83.65833 21.846874 83.65833Q22.971874 83.65833 23.659374 84.31458Q24.346874 84.97083 24.346874 85.90833Q24.346874 86.50208 24.034374 86.93958Q23.721874 87.37708 23.08125 87.62708Q23.878124 87.87708 24.284374 88.45521Q24.690624 89.03333 24.690624 89.83021Q24.690624 90.92396 23.909374 91.67396Q23.14375 92.42396 21.8625 92.42396Q20.596874 92.42396 19.815624 91.67396Q19.034374 90.92396 19.034374 89.79896Q19.034374 88.95521 19.45625 88.39271Q19.89375 87.83021 20.675 87.62708ZM20.45625 85.83021Q20.45625 86.43958 20.846874 86.83021Q21.253124 87.22083 21.878124 87.22083Q22.4875 87.22083 22.878124 86.84583Q23.26875 86.45521 23.26875 85.89271Q23.26875 85.31458 22.8625 84.92396Q22.45625 84.51771 21.8625 84.51771Q21.253124 84.51771 20.846874 84.90833Q20.45625 85.29896 20.45625 85.83021ZM20.128124 89.79896Q20.128124 90.25208 20.33125 90.67396Q20.55 91.09583 20.971874 91.33021Q21.39375 91.56458 21.878124 91.56458Q22.628124 91.56458 23.1125 91.08021Q23.6125 90.59583 23.6125 89.84583Q23.6125 89.08021 23.1125 88.58021Q22.6125 88.08021 21.846874 88.08021Q21.096874 88.08021 20.6125 88.58021Q20.128124 89.06458 20.128124 89.79896ZM26.05 88.04896Q26.05 86.51771 26.3625 85.59583Q26.675 84.65833 27.284374 84.15833Q27.909374 83.65833 28.846874 83.65833Q29.534374 83.65833 30.05 83.93958Q30.58125 84.22083 30.925 84.75208Q31.26875 85.26771 31.45625 86.01771Q31.64375 86.76771 31.64375 88.04896Q31.64375 89.56458 31.33125 90.48646Q31.034374 91.40833 30.409374 91.92396Q29.8 92.42396 28.846874 92.42396Q27.6125 92.42396 26.89375 91.53333Q26.05 90.47083 26.05 88.04896ZM27.128124 88.04896Q27.128124 90.15833 27.628124 90.86146Q28.128124 91.56458 28.846874 91.56458Q29.58125 91.56458 30.065624 90.86146Q30.565624 90.15833 30.565624 88.04896Q30.565624 85.92396 30.065624 85.23646Q29.58125 84.53333 28.83125 84.53333Q28.1125 84.53333 27.675 85.14271Q27.128124 85.92396 27.128124 88.04896ZM33.05 88.04896Q33.05 86.51771 33.3625 85.59583Q33.675 84.65833 34.284374 84.15833Q34.909374 83.65833 35.846874 83.65833Q36.534374 83.65833 37.05 83.93958Q37.58125 84.22083 37.925 84.75208Q38.26875 85.26771 38.45625 86.01771Q38.64375 86.76771 38.64375 88.04896Q38.64375 89.56458 38.33125 90.48646Q38.034374 91.40833 37.409374 91.92396Q36.8 92.42396 35.846874 92.42396Q34.6125 92.42396 33.89375 91.53333Q33.05 90.47083 33.05 88.04896ZM34.128124 88.04896Q34.128124 90.15833 34.628124 90.86146Q35.128124 91.56458 35.846874 91.56458Q36.58125 91.56458 37.065624 90.86146Q37.565624 90.15833 37.565624 88.04896Q37.565624 85.92396 37.065624 85.23646Q36.58125 84.53333 35.83125 84.53333Q35.1125 84.53333 34.675 85.14271Q34.128124 85.92396 34.128124 88.04896Z" fill-rule="nonzero"/><path fill="#000000" d="M111.69839 315.2L112.80776 315.10626Q112.93276 315.91876 113.37026 316.325Q113.82339 316.73126 114.46401 316.73126Q115.21401 316.73126 115.74526 316.15314Q116.27651 315.575 116.27651 314.6375Q116.27651 313.73126 115.76089 313.21564Q115.26089 312.6844 114.43276 312.6844Q113.93276 312.6844 113.51089 312.91876Q113.10464 313.15314 112.87026 313.5125L111.88589 313.3875L112.71401 308.98126L116.99526 308.98126L116.99526 309.98126L113.55776 309.98126L113.10464 312.29376Q113.87026 311.7469 114.71401 311.7469Q115.83901 311.7469 116.60464 312.52814Q117.38589 313.3094 117.38589 314.54376Q117.38589 315.7 116.71401 316.5594Q115.88589 317.59064 114.46401 317.59064Q113.29214 317.59064 112.54214 316.9344Q111.80776 316.27814 111.69839 315.2Z" fill-rule="nonzero"/><path fill="#000000" d="M198.60262 317.45L197.55574 317.45L197.55574 310.73126Q197.16512 311.09064 196.54012 311.46564Q195.93074 311.825 195.44637 311.9969L195.44637 310.98126Q196.32137 310.5594 196.97762 309.98126Q197.64949 309.3875 197.93074 308.825L198.60262 308.825L198.60262 317.45ZM201.63387 313.21564Q201.63387 311.6844 201.94637 310.7625Q202.25887 309.825 202.86824 309.325Q203.49324 308.825 204.43074 308.825Q205.11824 308.825 205.63387 309.10626Q206.16512 309.3875 206.50887 309.91876Q206.85262 310.4344 207.04012 311.1844Q207.22762 311.9344 207.22762 313.21564Q207.22762 314.73126 206.91512 315.65314Q206.61824 316.575 205.99324 317.09064Q205.38387 317.59064 204.43074 317.59064Q203.19637 317.59064 202.47762 316.7Q201.63387 315.6375 201.63387 313.21564ZM202.71199 313.21564Q202.71199 315.325 203.21199 316.02814Q203.71199 316.73126 204.43074 316.73126Q205.16512 316.73126 205.64949 316.02814Q206.14949 315.325 206.14949 313.21564Q206.14949 311.09064 205.64949 310.40314Q205.16512 309.7 204.41512 309.7Q203.69637 309.7 203.25887 310.3094Q202.71199 311.09064 202.71199 313.21564Z" fill-rule="nonzero"/><path fill="#000000" d="M285.03812 317.45L283.99124 317.45L283.99124 310.73126Q283.60062 311.09064 282.97562 311.46564Q282.36624 311.825 281.88187 311.9969L281.88187 310.98126Q282.75687 310.5594 283.41312 309.98126Q284.085 309.3875 284.36624 308.825L285.03812 308.825L285.03812 317.45ZM288.06937 315.2L289.17874 315.10626Q289.30374 315.91876 289.74124 316.325Q290.19437 316.73126 290.835 316.73126Q291.585 316.73126 292.11624 316.15314Q292.6475 315.575 292.6475 314.6375Q292.6475 313.73126 292.13187 313.21564Q291.63187 312.6844 290.80374 312.6844Q290.30374 312.6844 289.88187 312.91876Q289.47562 313.15314 289.24124 313.5125L288.25687 313.3875L289.085 308.98126L293.36624 308.98126L293.36624 309.98126L289.92874 309.98126L289.47562 312.29376Q290.24124 311.7469 291.085 311.7469Q292.21 311.7469 292.97562 312.52814Q293.75687 313.3094 293.75687 314.54376Q293.75687 315.7 293.085 316.5594Q292.25687 317.59064 290.835 317.59064Q289.66312 317.59064 288.91312 316.9344Q288.17874 316.27814 288.06937 315.2Z" fill-rule="nonzero"/><path fill="#000000" d="M373.05173 316.4344L373.05173 317.45L367.36423 317.45Q367.36423 317.075 367.48923 316.71564Q367.70798 316.1375 368.17673 315.575Q368.6611 315.0125 369.56735 314.27814Q370.9736 313.1219 371.45798 312.45Q371.95798 311.77814 371.95798 311.1844Q371.95798 310.5594 371.50485 310.1375Q371.05173 309.7 370.33298 309.7Q369.56735 309.7 369.11423 310.15314Q368.6611 310.60626 368.64548 311.41876L367.56735 311.3094Q367.67673 310.09064 368.39548 309.46564Q369.12985 308.825 370.36423 308.825Q371.5986 308.825 372.31735 309.5125Q373.0361 310.2 373.0361 311.21564Q373.0361 311.73126 372.81735 312.23126Q372.61423 312.71564 372.11423 313.27814Q371.62985 313.825 370.50485 314.77814Q369.55173 315.575 369.27048 315.8719Q369.00485 316.15314 368.83298 316.4344L373.05173 316.4344ZM374.50485 313.21564Q374.50485 311.6844 374.81735 310.7625Q375.12985 309.825 375.73923 309.325Q376.36423 308.825 377.30173 308.825Q377.98923 308.825 378.50485 309.10626Q379.0361 309.3875 379.37985 309.91876Q379.7236 310.4344 379.9111 311.1844Q380.0986 311.9344 380.0986 313.21564Q380.0986 314.73126 379.7861 315.65314Q379.48923 316.575 378.86423 317.09064Q378.25485 317.59064 377.30173 317.59064Q376.06735 317.59064 375.3486 316.7Q374.50485 315.6375 374.50485 313.21564ZM375.58298 313.21564Q375.58298 315.325 376.08298 316.02814Q376.58298 316.73126 377.30173 316.73126Q378.0361 316.73126 378.52048 316.02814Q379.02048 315.325 379.02048 313.21564Q379.02048 311.09064 378.52048 310.40314Q378.0361 309.7 377.2861 309.7Q376.56735 309.7 376.12985 310.3094Q375.58298 311.09064 375.58298 313.21564Z" fill-rule="nonzero"/><path fill="#000000" d="M459.48718 316.4344L459.48718 317.45L453.79968 317.45Q453.79968 317.075 453.92468 316.71564Q454.14343 316.1375 454.61218 315.575Q455.09656 315.0125 456.0028 314.27814Q457.40906 313.1219 457.89343 312.45Q458.39343 311.77814 458.39343 311.1844Q458.39343 310.5594 457.9403 310.1375Q457.48718 309.7 456.76843 309.7Q456.0028 309.7 455.54968 310.15314Q455.09656 310.60626 455.08093 311.41876L454.0028 311.3094Q454.11218 310.09064 454.83093 309.46564Q455.5653 308.825 456.79968 308.825Q458.03406 308.825 458.7528 309.5125Q459.47156 310.2 459.47156 311.21564Q459.47156 311.73126 459.2528 312.23126Q459.04968 312.71564 458.54968 313.27814Q458.0653 313.825 456.9403 314.77814Q455.98718 315.575 455.70593 315.8719Q455.4403 316.15314 455.26843 316.4344L459.48718 316.4344ZM460.9403 315.2L462.04968 315.10626Q462.17468 315.91876 462.61218 316.325Q463.0653 316.73126 463.70593 316.73126Q464.45593 316.73126 464.98718 316.15314Q465.51843 315.575 465.51843 314.6375Q465.51843 313.73126 465.0028 313.21564Q464.5028 312.6844 463.67468 312.6844Q463.17468 312.6844 462.7528 312.91876Q462.34656 313.15314 462.11218 313.5125L461.1278 313.3875L461.95593 308.98126L466.23718 308.98126L466.23718 309.98126L462.79968 309.98126L462.34656 312.29376Q463.11218 311.7469 463.95593 311.7469Q465.08093 311.7469 465.84656 312.52814Q466.6278 313.3094 466.6278 314.54376Q466.6278 315.7 465.95593 316.5594Q465.1278 317.59064 463.70593 317.59064Q462.53406 317.59064 461.78406 316.9344Q461.04968 316.27814 460.9403 315.2Z" fill-rule="nonzero"/><path fill="#000000" d="M540.3758 315.1844L541.4383 315.04376Q541.61017 315.9344 542.04767 316.34064Q542.48517 316.73126 543.11017 316.73126Q543.86017 316.73126 544.3758 316.21564Q544.8914 315.7 544.8914 314.9344Q544.8914 314.21564 544.40704 313.7469Q543.9383 313.2625 543.2039 313.2625Q542.90704 313.2625 542.4539 313.3875L542.5789 312.45Q542.6883 312.46564 542.7508 312.46564Q543.42267 312.46564 543.9539 312.1219Q544.5008 311.7625 544.5008 311.02814Q544.5008 310.45 544.11017 310.075Q543.71954 309.6844 543.09454 309.6844Q542.48517 309.6844 542.0633 310.075Q541.65704 310.46564 541.54767 311.23126L540.48517 311.04376Q540.67267 309.9969 541.36017 309.41876Q542.04767 308.825 543.0633 308.825Q543.7664 308.825 544.36017 309.1375Q544.9539 309.4344 545.2664 309.95Q545.5789 310.46564 545.5789 311.0594Q545.5789 311.60626 545.28204 312.075Q544.98517 312.52814 544.40704 312.79376Q545.15704 312.96564 545.5789 313.52814Q546.0008 314.075 546.0008 314.91876Q546.0008 316.04376 545.17267 316.825Q544.36017 317.60626 543.11017 317.60626Q541.98517 317.60626 541.23517 316.9344Q540.48517 316.2469 540.3758 315.1844ZM547.3758 313.21564Q547.3758 311.6844 547.6883 310.7625Q548.0008 309.825 548.61017 309.325Q549.23517 308.825 550.17267 308.825Q550.86017 308.825 551.3758 309.10626Q551.90704 309.3875 552.2508 309.91876Q552.59454 310.4344 552.78204 311.1844Q552.96954 311.9344 552.96954 313.21564Q552.96954 314.73126 552.65704 315.65314Q552.36017 316.575 551.73517 317.09064Q551.1258 317.59064 550.17267 317.59064Q548.9383 317.59064 548.21954 316.7Q547.3758 315.6375 547.3758 313.21564ZM548.4539 313.21564Q548.4539 315.325 548.9539 316.02814Q549.4539 316.73126 550.17267 316.73126Q550.90704 316.73126 551.3914 316.02814Q551.8914 315.325 551.8914 313.21564Q551.8914 311.09064 551.3914 310.40314Q550.90704 309.7 550.15704 309.7Q549.4383 309.7 549.0008 310.3094Q548.4539 311.09064 548.4539 313.21564Z" fill-rule="nonzero"/><path stroke="#4285f4" stroke-width="4.0" stroke-linecap="butt" d="M154.5 61.916668L166.5 61.916668" fill-rule="nonzero"/><path fill="#1a1a1a" d="M175.04688 63.15104L176.10938 63.05729Q176.1875 63.71354 176.46875 64.11979Q176.75 64.52604 177.32812 64.791664Q177.92188 65.041664 178.65625 65.041664Q179.29688 65.041664 179.79688 64.854164Q180.29688 64.65104 180.53125 64.322914Q180.78125 63.979164 180.78125 63.58854Q180.78125 63.18229 180.54688 62.885414Q180.3125 62.572914 179.78125 62.36979Q179.42188 62.229164 178.23438 61.947914Q177.0625 61.666664 176.59375 61.416664Q175.96875 61.08854 175.67188 60.61979Q175.375 60.135414 175.375 59.541664Q175.375 58.90104 175.73438 58.33854Q176.10938 57.760414 176.8125 57.479164Q177.53125 57.18229 178.39062 57.18229Q179.34375 57.18229 180.07812 57.49479Q180.8125 57.791664 181.20312 58.40104Q181.59375 58.99479 181.625 59.74479L180.53125 59.822914Q180.4375 59.010414 179.92188 58.604164Q179.42188 58.18229 178.4375 58.18229Q177.40625 58.18229 176.9375 58.55729Q176.46875 58.93229 176.46875 59.46354Q176.46875 59.93229 176.79688 60.229164Q177.125 60.52604 178.5 60.83854Q179.89062 61.15104 180.40625 61.385414Q181.15625 61.74479 181.51562 62.27604Q181.875 62.791664 181.875 63.49479Q181.875 64.18229 181.48438 64.791664Q181.09375 65.385414 180.35938 65.729164Q179.625 66.05729 178.70312 66.05729Q177.53125 66.05729 176.73438 65.729164Q175.95312 65.385414 175.5 64.697914Q175.0625 64.010414 175.04688 63.15104ZM183.29688 68.30729L183.29688 59.697914L184.25 59.697914L184.25 60.49479Q184.59375 60.02604 185.01562 59.791664Q185.45312 59.55729 186.0625 59.55729Q186.85938 59.55729 187.46875 59.96354Q188.07812 60.36979 188.375 61.11979Q188.6875 61.86979 188.6875 62.760414Q188.6875 63.71354 188.34375 64.479164Q188.01562 65.24479 187.35938 65.65104Q186.70312 66.05729 185.98438 66.05729Q185.45312 66.05729 185.03125 65.83854Q184.60938 65.604164 184.34375 65.27604L184.34375 68.30729L183.29688 68.30729ZM184.25 62.83854Q184.25 64.041664 184.73438 64.61979Q185.21875 65.18229 185.90625 65.18229Q186.60938 65.18229 187.10938 64.58854Q187.60938 63.99479 187.60938 62.74479Q187.60938 61.55729 187.125 60.979164Q186.64062 60.385414 185.95312 60.385414Q185.28125 60.385414 184.76562 61.010414Q184.25 61.635414 184.25 62.83854ZM194.35938 65.15104Q193.76562 65.65104 193.21875 65.854164Q192.6875 66.05729 192.0625 66.05729Q191.03125 66.05729 190.48438 65.55729Q189.9375 65.05729 189.9375 64.27604Q189.9375 63.822914 190.14062 63.447914Q190.34375 63.05729 190.6875 62.83854Q191.03125 62.604164 191.45312 62.49479Q191.75 62.40104 192.39062 62.322914Q193.65625 62.18229 194.26562 61.96354Q194.26562 61.74479 194.26562 61.697914Q194.26562 61.041664 193.96875 60.77604Q193.5625 60.43229 192.76562 60.43229Q192.03125 60.43229 191.67188 60.697914Q191.3125 60.947914 191.14062 61.604164L190.10938 61.46354Q190.25 60.80729 190.57812 60.40104Q190.90625 59.99479 191.51562 59.77604Q192.125 59.55729 192.92188 59.55729Q193.71875 59.55729 194.21875 59.74479Q194.71875 59.93229 194.95312 60.21354Q195.1875 60.49479 195.28125 60.93229Q195.32812 61.197914 195.32812 61.90104L195.32812 63.30729Q195.32812 64.77604 195.39062 65.166664Q195.46875 65.55729 195.67188 65.916664L194.5625 65.916664Q194.40625 65.58854 194.35938 65.15104ZM194.26562 62.791664Q193.6875 63.02604 192.54688 63.197914Q191.89062 63.291664 191.625 63.416664Q191.35938 63.52604 191.20312 63.74479Q191.0625 63.96354 191.0625 64.24479Q191.0625 64.666664 191.375 64.947914Q191.70312 65.229164 192.3125 65.229164Q192.92188 65.229164 193.39062 64.96354Q193.875 64.697914 194.09375 64.229164Q194.26562 63.86979 194.26562 63.18229L194.26562 62.791664ZM197.28125 65.916664L197.28125 59.697914L198.23438 59.697914L198.23438 60.635414Q198.59375 59.979164 198.89062 59.77604Q199.20312 59.55729 199.57812 59.55729Q200.10938 59.55729 200.65625 59.885414L200.29688 60.86979Q199.90625 60.635414 199.53125 60.635414Q199.17188 60.635414 198.89062 60.854164Q198.625 61.05729 198.51562 61.43229Q198.32812 61.99479 198.32812 62.65104L198.32812 65.916664L197.28125 65.916664ZM201.29688 65.916664L201.29688 57.322914L202.35938 57.322914L202.35938 62.229164L204.84375 59.697914L206.21875 59.697914L203.82812 61.99479L206.45312 65.916664L205.15625 65.916664L203.09375 62.729164L202.35938 63.447914L202.35938 65.916664L201.29688 65.916664Z" fill-rule="nonzero"/><path stroke="#ea4335" stroke-width="4.0" stroke-linecap="butt" d="M222.5 61.916668L234.5 61.916668" fill-rule="nonzero"/><path fill="#1a1a1a" d="M247.45312 62.541664L247.45312 61.541664L251.07812 61.52604L251.07812 64.71354Q250.25 65.385414 249.35938 65.729164Q248.46875 66.05729 247.53125 66.05729Q246.26562 66.05729 245.21875 65.52604Q244.1875 64.979164 243.65625 63.96354Q243.14062 62.93229 243.14062 61.666664Q243.14062 60.40104 243.65625 59.322914Q244.1875 58.229164 245.17188 57.71354Q246.15625 57.18229 247.4375 57.18229Q248.375 57.18229 249.125 57.479164Q249.875 57.77604 250.29688 58.322914Q250.73438 58.854164 250.95312 59.729164L249.9375 60.010414Q249.73438 59.354164 249.4375 58.979164Q249.15625 58.604164 248.625 58.385414Q248.09375 58.15104 247.45312 58.15104Q246.67188 58.15104 246.09375 58.385414Q245.53125 58.61979 245.17188 59.010414Q244.82812 59.40104 244.64062 59.86979Q244.3125 60.666664 244.3125 61.58854Q244.3125 62.74479 244.70312 63.52604Q245.10938 64.291664 245.85938 64.666664Q246.60938 65.041664 247.46875 65.041664Q248.20312 65.041664 248.90625 64.760414Q249.60938 64.46354 249.96875 64.15104L249.96875 62.541664L247.45312 62.541664ZM251.90625 62.80729Q251.90625 61.072914 252.85938 60.24479Q253.65625 59.55729 254.8125 59.55729Q256.09375 59.55729 256.90625 60.40104Q257.73438 61.229164 257.73438 62.71354Q257.73438 63.916664 257.375 64.604164Q257.01562 65.291664 256.3125 65.68229Q255.625 66.05729 254.8125 66.05729Q253.51562 66.05729 252.70312 65.229164Q251.90625 64.385414 251.90625 62.80729ZM252.98438 62.80729Q252.98438 63.99479 253.5 64.58854Q254.03125 65.18229 254.8125 65.18229Q255.60938 65.18229 256.125 64.58854Q256.64062 63.99479 256.64062 62.77604Q256.64062 61.61979 256.10938 61.02604Q255.59375 60.43229 254.8125 60.43229Q254.03125 60.43229 253.5 61.02604Q252.98438 61.604164 252.98438 62.80729ZM259.39062 65.916664L259.39062 57.322914L261.10938 57.322914L263.14062 63.40104Q263.42188 64.260414 263.54688 64.68229Q263.6875 64.21354 264.0 63.30729L266.0625 57.322914L267.59375 57.322914L267.59375 65.916664L266.5 65.916664L266.5 58.729164L264.0 65.916664L262.96875 65.916664L260.48438 58.604164L260.48438 65.916664L259.39062 65.916664ZM269.4375 65.916664L269.4375 57.322914L273.25 57.322914Q274.40625 57.322914 275.0 57.55729Q275.59375 57.791664 275.95312 58.385414Q276.3125 58.96354 276.3125 59.666664Q276.3125 60.58854 275.71875 61.21354Q275.125 61.83854 273.89062 62.010414Q274.34375 62.229164 274.57812 62.43229Q275.07812 62.885414 275.51562 63.572914L277.01562 65.916664L275.57812 65.916664L274.45312 64.135414Q273.95312 63.354164 273.625 62.947914Q273.3125 62.541664 273.04688 62.385414Q272.79688 62.21354 272.53125 62.135414Q272.34375 62.104164 271.90625 62.104164L270.57812 62.104164L270.57812 65.916664L269.4375 65.916664ZM270.57812 61.11979L273.03125 61.11979Q273.79688 61.11979 274.23438 60.96354Q274.6875 60.791664 274.90625 60.447914Q275.14062 60.08854 275.14062 59.666664Q275.14062 59.05729 274.6875 58.666664Q274.25 58.27604 273.29688 58.27604L270.57812 58.27604L270.57812 61.11979ZM281.39062 65.916664L281.39062 57.322914L283.10938 57.322914L285.14062 63.40104Q285.42188 64.260414 285.54688 64.68229Q285.6875 64.21354 286.0 63.30729L288.0625 57.322914L289.59375 57.322914L289.59375 65.916664L288.5 65.916664L288.5 58.729164L286.0 65.916664L284.96875 65.916664L282.48438 58.604164L282.48438 65.916664L281.39062 65.916664ZM295.375 65.916664L295.375 64.99479Q294.64062 66.05729 293.39062 66.05729Q292.84375 66.05729 292.35938 65.854164Q291.89062 65.635414 291.65625 65.322914Q291.42188 64.99479 291.32812 64.52604Q291.26562 64.229164 291.26562 63.541664L291.26562 59.697914L292.32812 59.697914L292.32812 63.15104Q292.32812 63.96354 292.39062 64.260414Q292.48438 64.666664 292.79688 64.916664Q293.125 65.15104 293.60938 65.15104Q294.07812 65.15104 294.48438 64.916664Q294.90625 64.666664 295.07812 64.24479Q295.26562 63.822914 295.26562 63.02604L295.26562 59.697914L296.3125 59.697914L296.3125 65.916664L295.375 65.916664ZM298.26562 65.916664L298.26562 57.322914L299.32812 57.322914L299.32812 65.916664L298.26562 65.916664ZM303.59375 64.979164L303.75 65.90104Q303.29688 65.99479 302.95312 65.99479Q302.375 65.99479 302.0625 65.822914Q301.75 65.635414 301.60938 65.33854Q301.48438 65.041664 301.48438 64.08854L301.48438 60.510414L300.71875 60.510414L300.71875 59.697914L301.48438 59.697914L301.48438 58.15104L302.53125 57.52604L302.53125 59.697914L303.59375 59.697914L303.59375 60.510414L302.53125 60.510414L302.53125 64.15104Q302.53125 64.604164 302.57812 64.729164Q302.64062 64.854164 302.76562 64.93229Q302.89062 65.010414 303.125 65.010414Q303.3125 65.010414 303.59375 64.979164ZM304.29688 58.541664L304.29688 57.322914L305.35938 57.322914L305.35938 58.541664L304.29688 58.541664ZM304.29688 65.916664L304.29688 59.697914L305.35938 59.697914L305.35938 65.916664L304.29688 65.916664ZM307.29688 68.30729L307.29688 59.697914L308.25 59.697914L308.25 60.49479Q308.59375 60.02604 309.01562 59.791664Q309.45312 59.55729 310.0625 59.55729Q310.85938 59.55729 311.46875 59.96354Q312.07812 60.36979 312.375 61.11979Q312.6875 61.86979 312.6875 62.760414Q312.6875 63.71354 312.34375 64.479164Q312.01562 65.24479 311.35938 65.65104Q310.70312 66.05729 309.98438 66.05729Q309.45312 66.05729 309.03125 65.83854Q308.60938 65.604164 308.34375 65.27604L308.34375 68.30729L307.29688 68.30729ZM308.25 62.83854Q308.25 64.041664 308.73438 64.61979Q309.21875 65.18229 309.90625 65.18229Q310.60938 65.18229 311.10938 64.58854Q311.60938 63.99479 311.60938 62.74479Q311.60938 61.55729 311.125 60.979164Q310.64062 60.385414 309.95312 60.385414Q309.28125 60.385414 308.76562 61.010414Q308.25 61.635414 308.25 62.83854ZM314.26562 65.916664L314.26562 57.322914L315.32812 57.322914L315.32812 65.916664L314.26562 65.916664ZM321.54688 63.916664L322.64062 64.041664Q322.39062 64.99479 321.6875 65.52604Q320.98438 66.05729 319.90625 66.05729Q318.54688 66.05729 317.73438 65.21354Q316.9375 64.36979 316.9375 62.854164Q316.9375 61.291664 317.75 60.43229Q318.5625 59.55729 319.84375 59.55729Q321.09375 59.55729 321.875 60.40104Q322.67188 61.24479 322.67188 62.791664Q322.67188 62.885414 322.67188 63.072914L318.03125 63.072914Q318.09375 64.104164 318.60938 64.65104Q319.125 65.18229 319.90625 65.18229Q320.48438 65.18229 320.89062 64.885414Q321.3125 64.572914 321.54688 63.916664ZM318.09375 62.21354L321.5625 62.21354Q321.5 61.416664 321.17188 61.02604Q320.65625 60.416664 319.85938 60.416664Q319.125 60.416664 318.625 60.90104Q318.14062 61.385414 318.09375 62.21354ZM323.59375 65.916664L325.85938 62.68229L323.76562 59.697914L325.07812 59.697914L326.03125 61.15104Q326.29688 61.572914 326.46875 61.854164Q326.71875 61.46354 326.9375 61.166664L327.98438 59.697914L329.25 59.697914L327.09375 62.61979L329.40625 65.916664L328.125 65.916664L326.84375 63.979164L326.5 63.46354L324.85938 65.916664L323.59375 65.916664Z" fill-rule="nonzero"/><path stroke="#fbbc04" stroke-width="4.0" stroke-linecap="butt" d="M345.5 61.916668L357.5 61.916668" fill-rule="nonzero"/><path fill="#1a1a1a" d="M370.45312 62.541664L370.45312 61.541664L374.07812 61.52604L374.07812 64.71354Q373.25 65.385414 372.35938 65.729164Q371.46875 66.05729 370.53125 66.05729Q369.26562 66.05729 368.21875 65.52604Q367.1875 64.979164 366.65625 63.96354Q366.14062 62.93229 366.14062 61.666664Q366.14062 60.40104 366.65625 59.322914Q367.1875 58.229164 368.17188 57.71354Q369.15625 57.18229 370.4375 57.18229Q371.375 57.18229 372.125 57.479164Q372.875 57.77604 373.29688 58.322914Q373.73438 58.854164 373.95312 59.729164L372.9375 60.010414Q372.73438 59.354164 372.4375 58.979164Q372.15625 58.604164 371.625 58.385414Q371.09375 58.15104 370.45312 58.15104Q369.67188 58.15104 369.09375 58.385414Q368.53125 58.61979 368.17188 59.010414Q367.82812 59.40104 367.64062 59.86979Q367.3125 60.666664 367.3125 61.58854Q367.3125 62.74479 367.70312 63.52604Q368.10938 64.291664 368.85938 64.666664Q369.60938 65.041664 370.46875 65.041664Q371.20312 65.041664 371.90625 64.760414Q372.60938 64.46354 372.96875 64.15104L372.96875 62.541664L370.45312 62.541664ZM374.90625 62.80729Q374.90625 61.072914 375.85938 60.24479Q376.65625 59.55729 377.8125 59.55729Q379.09375 59.55729 379.90625 60.40104Q380.73438 61.229164 380.73438 62.71354Q380.73438 63.916664 380.375 64.604164Q380.01562 65.291664 379.3125 65.68229Q378.625 66.05729 377.8125 66.05729Q376.51562 66.05729 375.70312 65.229164Q374.90625 64.385414 374.90625 62.80729ZM375.98438 62.80729Q375.98438 63.99479 376.5 64.58854Q377.03125 65.18229 377.8125 65.18229Q378.60938 65.18229 379.125 64.58854Q379.64062 63.99479 379.64062 62.77604Q379.64062 61.61979 379.10938 61.02604Q378.59375 60.43229 377.8125 60.43229Q377.03125 60.43229 376.5 61.02604Q375.98438 61.604164 375.98438 62.80729ZM382.39062 65.916664L382.39062 57.322914L384.10938 57.322914L386.14062 63.40104Q386.42188 64.260414 386.54688 64.68229Q386.6875 64.21354 387.0 63.30729L389.0625 57.322914L390.59375 57.322914L390.59375 65.916664L389.5 65.916664L389.5 58.729164L387.0 65.916664L385.96875 65.916664L383.48438 58.604164L383.48438 65.916664L382.39062 65.916664ZM392.4375 65.916664L392.4375 57.322914L396.25 57.322914Q397.40625 57.322914 398.0 57.55729Q398.59375 57.791664 398.95312 58.385414Q399.3125 58.96354 399.3125 59.666664Q399.3125 60.58854 398.71875 61.21354Q398.125 61.83854 396.89062 62.010414Q397.34375 62.229164 397.57812 62.43229Q398.07812 62.885414 398.51562 63.572914L400.01562 65.916664L398.57812 65.916664L397.45312 64.135414Q396.95312 63.354164 396.625 62.947914Q396.3125 62.541664 396.04688 62.385414Q395.79688 62.21354 395.53125 62.135414Q395.34375 62.104164 394.90625 62.104164L393.57812 62.104164L393.57812 65.916664L392.4375 65.916664ZM393.57812 61.11979L396.03125 61.11979Q396.79688 61.11979 397.23438 60.96354Q397.6875 60.791664 397.90625 60.447914Q398.14062 60.08854 398.14062 59.666664Q398.14062 59.05729 397.6875 58.666664Q397.25 58.27604 396.29688 58.27604L393.57812 58.27604L393.57812 61.11979ZM404.42188 65.916664L404.42188 57.322914L407.67188 57.322914Q408.51562 57.322914 408.96875 57.40104Q409.60938 57.510414 410.03125 57.80729Q410.46875 58.104164 410.71875 58.635414Q410.98438 59.166664 410.98438 59.80729Q410.98438 60.90104 410.28125 61.666664Q409.59375 62.416664 407.76562 62.416664L405.5625 62.416664L405.5625 65.916664L404.42188 65.916664ZM405.5625 61.416664L407.78125 61.416664Q408.89062 61.416664 409.34375 61.010414Q409.8125 60.58854 409.8125 59.83854Q409.8125 59.30729 409.53125 58.93229Q409.26562 58.541664 408.82812 58.416664Q408.53125 58.33854 407.76562 58.33854L405.5625 58.33854L405.5625 61.416664ZM416.35938 65.15104Q415.76562 65.65104 415.21875 65.854164Q414.6875 66.05729 414.0625 66.05729Q413.03125 66.05729 412.48438 65.55729Q411.9375 65.05729 411.9375 64.27604Q411.9375 63.822914 412.14062 63.447914Q412.34375 63.05729 412.6875 62.83854Q413.03125 62.604164 413.45312 62.49479Q413.75 62.40104 414.39062 62.322914Q415.65625 62.18229 416.26562 61.96354Q416.26562 61.74479 416.26562 61.697914Q416.26562 61.041664 415.96875 60.77604Q415.5625 60.43229 414.76562 60.43229Q414.03125 60.43229 413.67188 60.697914Q413.3125 60.947914 413.14062 61.604164L412.10938 61.46354Q412.25 60.80729 412.57812 60.40104Q412.90625 59.99479 413.51562 59.77604Q414.125 59.55729 414.92188 59.55729Q415.71875 59.55729 416.21875 59.74479Q416.71875 59.93229 416.95312 60.21354Q417.1875 60.49479 417.28125 60.93229Q417.32812 61.197914 417.32812 61.90104L417.32812 63.30729Q417.32812 64.77604 417.39062 65.166664Q417.46875 65.55729 417.67188 65.916664L416.5625 65.916664Q416.40625 65.58854 416.35938 65.15104ZM416.26562 62.791664Q415.6875 63.02604 414.54688 63.197914Q413.89062 63.291664 413.625 63.416664Q413.35938 63.52604 413.20312 63.74479Q413.0625 63.96354 413.0625 64.24479Q413.0625 64.666664 413.375 64.947914Q413.70312 65.229164 414.3125 65.229164Q414.92188 65.229164 415.39062 64.96354Q415.875 64.697914 416.09375 64.229164Q416.26562 63.86979 416.26562 63.18229L416.26562 62.791664ZM419.28125 65.916664L419.28125 59.697914L420.23438 59.697914L420.23438 60.635414Q420.59375 59.979164 420.89062 59.77604Q421.20312 59.55729 421.57812 59.55729Q422.10938 59.55729 422.65625 59.885414L422.29688 60.86979Q421.90625 60.635414 421.53125 60.635414Q421.17188 60.635414 420.89062 60.854164Q420.625 61.05729 420.51562 61.43229Q420.32812 61.99479 420.32812 62.65104L420.32812 65.916664L419.28125 65.916664ZM427.35938 65.15104Q426.76562 65.65104 426.21875 65.854164Q425.6875 66.05729 425.0625 66.05729Q424.03125 66.05729 423.48438 65.55729Q422.9375 65.05729 422.9375 64.27604Q422.9375 63.822914 423.14062 63.447914Q423.34375 63.05729 423.6875 62.83854Q424.03125 62.604164 424.45312 62.49479Q424.75 62.40104 425.39062 62.322914Q426.65625 62.18229 427.26562 61.96354Q427.26562 61.74479 427.26562 61.697914Q427.26562 61.041664 426.96875 60.77604Q426.5625 60.43229 425.76562 60.43229Q425.03125 60.43229 424.67188 60.697914Q424.3125 60.947914 424.14062 61.604164L423.10938 61.46354Q423.25 60.80729 423.57812 60.40104Q423.90625 59.99479 424.51562 59.77604Q425.125 59.55729 425.92188 59.55729Q426.71875 59.55729 427.21875 59.74479Q427.71875 59.93229 427.95312 60.21354Q428.1875 60.49479 428.28125 60.93229Q428.32812 61.197914 428.32812 61.90104L428.32812 63.30729Q428.32812 64.77604 428.39062 65.166664Q428.46875 65.55729 428.67188 65.916664L427.5625 65.916664Q427.40625 65.58854 427.35938 65.15104ZM427.26562 62.791664Q426.6875 63.02604 425.54688 63.197914Q424.89062 63.291664 424.625 63.416664Q424.35938 63.52604 424.20312 63.74479Q424.0625 63.96354 424.0625 64.24479Q424.0625 64.666664 424.375 64.947914Q424.70312 65.229164 425.3125 65.229164Q425.92188 65.229164 426.39062 64.96354Q426.875 64.697914 427.09375 64.229164Q427.26562 63.86979 427.26562 63.18229L427.26562 62.791664ZM430.26562 65.916664L430.26562 57.322914L431.32812 57.322914L431.32812 65.916664L430.26562 65.916664ZM433.26562 65.916664L433.26562 57.322914L434.32812 57.322914L434.32812 65.916664L433.26562 65.916664ZM440.54688 63.916664L441.64062 64.041664Q441.39062 64.99479 440.6875 65.52604Q439.98438 66.05729 438.90625 66.05729Q437.54688 66.05729 436.73438 65.21354Q435.9375 64.36979 435.9375 62.854164Q435.9375 61.291664 436.75 60.43229Q437.5625 59.55729 438.84375 59.55729Q440.09375 59.55729 440.875 60.40104Q441.67188 61.24479 441.67188 62.791664Q441.67188 62.885414 441.67188 63.072914L437.03125 63.072914Q437.09375 64.104164 437.60938 64.65104Q438.125 65.18229 438.90625 65.18229Q439.48438 65.18229 439.89062 64.885414Q440.3125 64.572914 440.54688 63.916664ZM437.09375 62.21354L440.5625 62.21354Q440.5 61.416664 440.17188 61.02604Q439.65625 60.416664 438.85938 60.416664Q438.125 60.416664 437.625 60.90104Q437.14062 61.385414 437.09375 62.21354ZM443.26562 65.916664L443.26562 57.322914L444.32812 57.322914L444.32812 65.916664L443.26562 65.916664Z" fill-rule="nonzero"/><path fill="#757575" d="M20.034374 37.55L20.034374 23.2375L22.89375 23.2375L26.26875 33.3625Q26.7375 34.784374 26.95625 35.4875Q27.20625 34.70625 27.721874 33.190624L31.14375 23.2375L33.690624 23.2375L33.690624 37.55L31.878124 37.55L31.878124 25.565624L27.70625 37.55L26.003124 37.55L21.8625 25.3625L21.8625 37.55L20.034374 37.55ZM37.128124 37.55L37.128124 23.2375L43.471874 23.2375Q45.378124 23.2375 46.378124 23.628124Q47.378124 24.003124 47.971874 24.9875Q48.565624 25.95625 48.565624 27.14375Q48.565624 28.659374 47.58125 29.70625Q46.596874 30.753124 44.534374 31.034374Q45.284374 31.39375 45.675 31.753124Q46.503124 32.503124 47.253124 33.659374L49.7375 37.55L47.3625 37.55L45.45625 34.565624Q44.628124 33.284374 44.096874 32.596874Q43.565624 31.909374 43.128124 31.64375Q42.70625 31.3625 42.26875 31.253124Q41.940624 31.190624 41.221874 31.190624L39.01875 31.190624L39.01875 37.55L37.128124 37.55ZM39.01875 29.55L43.096874 29.55Q44.39375 29.55 45.1125 29.284374Q45.846874 29.01875 46.221874 28.425Q46.6125 27.83125 46.6125 27.14375Q46.6125 26.128124 45.878124 25.471874Q45.14375 24.815624 43.55 24.815624L39.01875 24.815624L39.01875 29.55ZM57.096874 37.55L57.096874 23.2375L62.4875 23.2375Q63.925 23.2375 64.675 23.3625Q65.72188 23.55 66.44063 24.05Q67.15938 24.534374 67.58125 25.425Q68.01875 26.315624 68.01875 27.378124Q68.01875 29.20625 66.84688 30.471874Q65.69063 31.721874 62.659374 31.721874L58.9875 31.721874L58.9875 37.55L57.096874 37.55ZM58.9875 30.034374L62.690624 30.034374Q64.51875 30.034374 65.28438 29.3625Q66.06563 28.675 66.06563 27.425Q66.06563 26.534374 65.6125 25.89375Q65.15938 25.253124 64.425 25.05Q63.940624 24.925 62.64375 24.925L58.9875 24.925L58.9875 30.034374ZM76.97188 34.20625L78.78438 34.440624Q78.3625 36.01875 77.19063 36.909374Q76.03438 37.784374 74.22188 37.784374Q71.95625 37.784374 70.6125 36.39375Q69.28438 34.9875 69.28438 32.45625Q69.28438 29.83125 70.62813 28.39375Q71.97188 26.940624 74.12813 26.940624Q76.20625 26.940624 77.51875 28.3625Q78.84688 29.76875 78.84688 32.346874Q78.84688 32.503124 78.83125 32.815624L71.09688 32.815624Q71.19063 34.51875 72.06563 35.425Q72.94063 36.33125 74.2375 36.33125Q75.20625 36.33125 75.87813 35.83125Q76.56563 35.315624 76.97188 34.20625ZM71.19063 31.3625L76.9875 31.3625Q76.87813 30.065624 76.33125 29.409374Q75.4875 28.39375 74.14375 28.39375Q72.94063 28.39375 72.1125 29.20625Q71.28438 30.003124 71.19063 31.3625ZM80.84688 37.55L80.84688 27.175L82.425 27.175L82.425 28.753124Q83.03438 27.64375 83.55 27.3Q84.06563 26.940624 84.675 26.940624Q85.56563 26.940624 86.4875 27.503124L85.87813 29.14375Q85.2375 28.753124 84.59688 28.753124Q84.01875 28.753124 83.55 29.1125Q83.09688 29.45625 82.89375 30.065624Q82.6125 31.003124 82.6125 32.1125L82.6125 37.55L80.84688 37.55ZM88.28438 37.55L88.28438 28.55L86.7375 28.55L86.7375 27.175L88.28438 27.175L88.28438 26.08125Q88.28438 25.034374 88.47188 24.51875Q88.72188 23.83125 89.3625 23.409374Q90.00313 22.9875 91.15938 22.9875Q91.90938 22.9875 92.8 23.159374L92.53438 24.690624Q91.9875 24.596874 91.50313 24.596874Q90.70625 24.596874 90.3625 24.940624Q90.03438 25.284374 90.03438 26.221874L90.03438 27.175L92.06563 27.175L92.06563 28.55L90.03438 28.55L90.03438 37.55L88.28438 37.55ZM93.22188 32.3625Q93.22188 29.4875 94.81563 28.096874Q96.15938 26.940624 98.08125 26.940624Q100.22188 26.940624 101.56563 28.346874Q102.925 29.753124 102.925 32.221874Q102.925 34.221874 102.33125 35.378124Q101.7375 36.51875 100.58125 37.159374Q99.44063 37.784374 98.08125 37.784374Q95.89375 37.784374 94.55 36.39375Q93.22188 34.9875 93.22188 32.3625ZM95.01875 32.3625Q95.01875 34.3625 95.87813 35.346874Q96.75313 36.33125 98.08125 36.33125Q99.39375 36.33125 100.25313 35.346874Q101.12813 34.346874 101.12813 32.3Q101.12813 30.378124 100.25313 29.39375Q99.37813 28.39375 98.08125 28.39375Q96.75313 28.39375 95.87813 29.39375Q95.01875 30.378124 95.01875 32.3625ZM104.84688 37.55L104.84688 27.175L106.425 27.175L106.425 28.753124Q107.03438 27.64375 107.55 27.3Q108.06563 26.940624 108.675 26.940624Q109.56563 26.940624 110.4875 27.503124L109.87813 29.14375Q109.2375 28.753124 108.59688 28.753124Q108.01875 28.753124 107.55 29.1125Q107.09688 29.45625 106.89375 30.065624Q106.6125 31.003124 106.6125 32.1125L106.6125 37.55L104.84688 37.55ZM111.8625 37.55L111.8625 27.175L113.44063 27.175L113.44063 28.628124Q113.925 27.878124 114.7375 27.409374Q115.55 26.940624 116.58125 26.940624Q117.7375 26.940624 118.47188 27.425Q119.20625 27.89375 119.51875 28.753124Q120.75313 26.940624 122.72188 26.940624Q124.26875 26.940624 125.09688 27.8Q125.925 28.659374 125.925 30.425L125.925 37.55L124.175 37.55L124.175 31.01875Q124.175 29.95625 124.00313 29.503124Q123.83125 29.034374 123.37813 28.753124Q122.94063 28.471874 122.33125 28.471874Q121.2375 28.471874 120.50313 29.20625Q119.78438 29.925 119.78438 31.51875L119.78438 37.55L118.03438 37.55L118.03438 30.815624Q118.03438 29.64375 117.59688 29.065624Q117.175 28.471874 116.19063 28.471874Q115.45625 28.471874 114.81563 28.8625Q114.19063 29.253124 113.90938 30.003124Q113.62813 30.753124 113.62813 32.175L113.62813 37.55L111.8625 37.55ZM135.64375 36.26875Q134.65938 37.096874 133.75313 37.440624Q132.84688 37.784374 131.81563 37.784374Q130.1125 37.784374 129.19063 36.95625Q128.26875 36.1125 128.26875 34.815624Q128.26875 34.05 128.6125 33.425Q128.97188 32.8 129.53438 32.425Q130.09688 32.034374 130.8 31.83125Q131.31563 31.70625 132.3625 31.565624Q134.4875 31.315624 135.4875 30.971874Q135.50313 30.6125 135.50313 30.503124Q135.50313 29.440624 135.00313 28.9875Q134.33125 28.39375 133.00313 28.39375Q131.75313 28.39375 131.15938 28.83125Q130.58125 29.26875 130.3 30.378124L128.58125 30.14375Q128.81563 29.034374 129.34688 28.3625Q129.87813 27.675 130.89375 27.315624Q131.90938 26.940624 133.25313 26.940624Q134.58125 26.940624 135.40938 27.253124Q136.2375 27.565624 136.62813 28.05Q137.01875 28.51875 137.175 29.2375Q137.26875 29.690624 137.26875 30.8625L137.26875 33.20625Q137.26875 35.659374 137.37813 36.315624Q137.4875 36.95625 137.83125 37.55L135.9875 37.55Q135.72188 37.003124 135.64375 36.26875ZM135.4875 32.346874Q134.53438 32.7375 132.6125 33.003124Q131.53438 33.159374 131.08125 33.3625Q130.64375 33.55 130.39375 33.925Q130.14375 34.3 130.14375 34.76875Q130.14375 35.471874 130.675 35.940624Q131.20625 36.409374 132.2375 36.409374Q133.25313 36.409374 134.03438 35.971874Q134.83125 35.51875 135.20625 34.753124Q135.4875 34.14375 135.4875 32.9875L135.4875 32.346874ZM139.8625 37.55L139.8625 27.175L141.45625 27.175L141.45625 28.659374Q142.59688 26.940624 144.75313 26.940624Q145.69063 26.940624 146.47188 27.284374Q147.26875 27.6125 147.65938 28.159374Q148.05 28.70625 148.20625 29.45625Q148.3 29.95625 148.3 31.175L148.3 37.55L146.53438 37.55L146.53438 31.2375Q146.53438 30.159374 146.33125 29.628124Q146.12813 29.096874 145.59688 28.784374Q145.08125 28.471874 144.37813 28.471874Q143.25313 28.471874 142.44063 29.190624Q141.62813 29.89375 141.62813 31.878124L141.62813 37.55L139.8625 37.55ZM157.64375 33.753124L159.3625 33.971874Q159.08125 35.76875 157.90938 36.784374Q156.75313 37.784374 155.05 37.784374Q152.925 37.784374 151.62813 36.39375Q150.33125 35.003124 150.33125 32.409374Q150.33125 30.721874 150.87813 29.471874Q151.44063 28.20625 152.58125 27.58125Q153.72188 26.940624 155.06563 26.940624Q156.75313 26.940624 157.81563 27.8Q158.89375 28.659374 159.20625 30.221874L157.4875 30.4875Q157.25313 29.440624 156.62813 28.925Q156.00313 28.39375 155.12813 28.39375Q153.8 28.39375 152.97188 29.346874Q152.14375 30.3 152.14375 32.346874Q152.14375 34.440624 152.94063 35.39375Q153.7375 36.33125 155.03438 36.33125Q156.06563 36.33125 156.75313 35.70625Q157.45625 35.065624 157.64375 33.753124ZM167.97188 34.20625L169.78438 34.440624Q169.3625 36.01875 168.19063 36.909374Q167.03438 37.784374 165.22188 37.784374Q162.95625 37.784374 161.6125 36.39375Q160.28438 34.9875 160.28438 32.45625Q160.28438 29.83125 161.62813 28.39375Q162.97188 26.940624 165.12813 26.940624Q167.20625 26.940624 168.51875 28.3625Q169.84688 29.76875 169.84688 32.346874Q169.84688 32.503124 169.83125 32.815624L162.09688 32.815624Q162.19063 34.51875 163.06563 35.425Q163.94063 36.33125 165.2375 36.33125Q166.20625 36.33125 166.87813 35.83125Q167.56563 35.315624 167.97188 34.20625ZM162.19063 31.3625L167.9875 31.3625Q167.87813 30.065624 167.33125 29.409374Q166.4875 28.39375 165.14375 28.39375Q163.94063 28.39375 163.1125 29.20625Q162.28438 30.003124 162.19063 31.3625ZM177.22188 32.3625Q177.22188 29.4875 178.81563 28.096874Q180.15938 26.940624 182.08125 26.940624Q184.22188 26.940624 185.56563 28.346874Q186.925 29.753124 186.925 32.221874Q186.925 34.221874 186.33125 35.378124Q185.7375 36.51875 184.58125 37.159374Q183.44063 37.784374 182.08125 37.784374Q179.89375 37.784374 178.55 36.39375Q177.22188 34.9875 177.22188 32.3625ZM179.01875 32.3625Q179.01875 34.3625 179.87813 35.346874Q180.75313 36.33125 182.08125 36.33125Q183.39375 36.33125 184.25313 35.346874Q185.12813 34.346874 185.12813 32.3Q185.12813 30.378124 184.25313 29.39375Q183.37813 28.39375 182.08125 28.39375Q180.75313 28.39375 179.87813 29.39375Q179.01875 30.378124 179.01875 32.3625ZM188.8625 37.55L188.8625 27.175L190.45625 27.175L190.45625 28.659374Q191.59688 26.940624 193.75313 26.940624Q194.69063 26.940624 195.47188 27.284374Q196.26875 27.6125 196.65938 28.159374Q197.05 28.70625 197.20625 29.45625Q197.3 29.95625 197.3 31.175L197.3 37.55L195.53438 37.55L195.53438 31.2375Q195.53438 30.159374 195.33125 29.628124Q195.12813 29.096874 194.59688 28.784374Q194.08125 28.471874 193.37813 28.471874Q192.25313 28.471874 191.44063 29.190624Q190.62813 29.89375 190.62813 31.878124L190.62813 37.55L188.8625 37.55ZM205.39375 33.76875L207.14375 33.534374Q207.45625 35.034374 208.175 35.690624Q208.90938 36.346874 209.95625 36.346874Q211.19063 36.346874 212.03438 35.4875Q212.89375 34.628124 212.89375 33.3625Q212.89375 32.14375 212.09688 31.3625Q211.31563 30.58125 210.09688 30.58125Q209.59688 30.58125 208.8625 30.76875L209.05 29.221874Q209.22188 29.253124 209.33125 29.253124Q210.45625 29.253124 211.34688 28.675Q212.25313 28.08125 212.25313 26.8625Q212.25313 25.89375 211.59688 25.253124Q210.94063 24.6125 209.90938 24.6125Q208.89375 24.6125 208.20625 25.26875Q207.51875 25.909374 207.33125 27.190624L205.56563 26.878124Q205.89375 25.1125 207.03438 24.14375Q208.175 23.175 209.87813 23.175Q211.05 23.175 212.03438 23.675Q213.01875 24.175 213.53438 25.05Q214.06563 25.925 214.06563 26.89375Q214.06563 27.815624 213.56563 28.58125Q213.06563 29.346874 212.09688 29.8Q213.3625 30.08125 214.06563 31.01875Q214.76875 31.940624 214.76875 33.315624Q214.76875 35.190624 213.39375 36.503124Q212.03438 37.8 209.94063 37.8Q208.05 37.8 206.8 36.675Q205.56563 35.55 205.39375 33.76875ZM225.6125 35.8625L225.6125 37.55L216.15938 37.55Q216.14375 36.909374 216.3625 36.33125Q216.72188 35.3625 217.51875 34.425Q218.31563 33.4875 219.81563 32.253124Q222.15938 30.346874 222.97188 29.2375Q223.8 28.1125 223.8 27.1125Q223.8 26.065624 223.05 25.346874Q222.3 24.628124 221.09688 24.628124Q219.83125 24.628124 219.06563 25.39375Q218.3 26.159374 218.3 27.503124L216.4875 27.315624Q216.675 25.3 217.87813 24.2375Q219.09688 23.175 221.14375 23.175Q223.19063 23.175 224.39375 24.315624Q225.59688 25.45625 225.59688 27.14375Q225.59688 28.003124 225.2375 28.846874Q224.89375 29.675 224.08125 30.596874Q223.26875 31.503124 221.37813 33.1125Q219.78438 34.440624 219.33125 34.909374Q218.89375 35.378124 218.59688 35.8625L225.6125 35.8625ZM244.31563 32.534374L246.20625 33.003124Q245.6125 35.346874 244.06563 36.58125Q242.51875 37.8 240.26875 37.8Q237.95625 37.8 236.50313 36.8625Q235.06563 35.909374 234.3 34.128124Q233.55 32.33125 233.55 30.284374Q233.55 28.05 234.39375 26.39375Q235.25313 24.721874 236.83125 23.8625Q238.40938 22.9875 240.3 22.9875Q242.45625 22.9875 243.90938 24.08125Q245.37813 25.175 245.95625 27.159374L244.09688 27.596874Q243.59688 26.034374 242.64375 25.33125Q241.70625 24.6125 240.26875 24.6125Q238.6125 24.6125 237.50313 25.409374Q236.39375 26.190624 235.94063 27.534374Q235.50313 28.8625 235.50313 30.26875Q235.50313 32.096874 236.03438 33.471874Q236.56563 34.83125 237.69063 35.503124Q238.81563 36.175 240.1125 36.175Q241.70625 36.175 242.81563 35.253124Q243.925 34.33125 244.31563 32.534374ZM248.09688 37.55L248.09688 23.2375L253.4875 23.2375Q254.925 23.2375 255.675 23.3625Q256.72186 23.55 257.4406 24.05Q258.15936 24.534374 258.58124 25.425Q259.01874 26.315624 259.01874 27.378124Q259.01874 29.20625 257.84686 30.471874Q256.6906 31.721874 253.65938 31.721874L249.9875 31.721874L249.9875 37.55L248.09688 37.55ZM249.9875 30.034374L253.69063 30.034374Q255.51875 30.034374 256.28436 29.3625Q257.0656 28.675 257.0656 27.425Q257.0656 26.534374 256.6125 25.89375Q256.15936 25.253124 255.425 25.05Q254.94063 24.925 253.64375 24.925L249.9875 24.925L249.9875 30.034374ZM270.4875 23.2375L272.3781 23.2375L272.3781 31.503124Q272.3781 33.659374 271.89374 34.940624Q271.40936 36.20625 270.1281 37.003124Q268.8625 37.8 266.78436 37.8Q264.76874 37.8 263.4875 37.1125Q262.22186 36.409374 261.675 35.096874Q261.1281 33.784374 261.1281 31.503124L261.1281 23.2375L263.01874 23.2375L263.01874 31.4875Q263.01874 33.3625 263.3625 34.253124Q263.70624 35.128124 264.55 35.6125Q265.39374 36.08125 266.6281 36.08125Q268.70624 36.08125 269.59686 35.14375Q270.4875 34.190624 270.4875 31.4875L270.4875 23.2375ZM275.33124 37.55L275.33124 35.55L277.33124 35.55L277.33124 37.55Q277.33124 38.659374 276.9406 39.33125Q276.55 40.01875 275.70624 40.378124L275.20624 39.628124Q275.76874 39.39375 276.03436 38.909374Q276.3 38.440624 276.33124 37.55L275.33124 37.55ZM295.6125 35.8625L295.6125 37.55L286.15936 37.55Q286.14374 36.909374 286.3625 36.33125Q286.72186 35.3625 287.51874 34.425Q288.3156 33.4875 289.8156 32.253124Q292.15936 30.346874 292.97186 29.2375Q293.8 28.1125 293.8 27.1125Q293.8 26.065624 293.05 25.346874Q292.3 24.628124 291.09686 24.628124Q289.83124 24.628124 289.0656 25.39375Q288.3 26.159374 288.3 27.503124L286.4875 27.315624Q286.675 25.3 287.8781 24.2375Q289.09686 23.175 291.14374 23.175Q293.1906 23.175 294.39374 24.315624Q295.59686 25.45625 295.59686 27.14375Q295.59686 28.003124 295.2375 28.846874Q294.89374 29.675 294.08124 30.596874Q293.26874 31.503124 291.3781 33.1125Q289.78436 34.440624 289.33124 34.909374Q288.89374 35.378124 288.59686 35.8625L295.6125 35.8625ZM297.3781 30.4875Q297.3781 27.95625 297.89374 26.409374Q298.425 24.846874 299.45624 24.01875Q300.4875 23.175 302.05 23.175Q303.20624 23.175 304.0656 23.64375Q304.9406 24.096874 305.5031 24.971874Q306.0656 25.846874 306.39374 27.1125Q306.72186 28.3625 306.72186 30.4875Q306.72186 33.003124 306.1906 34.55Q305.675 36.096874 304.64374 36.95625Q303.6281 37.8 302.05 37.8Q299.97186 37.8 298.8 36.315624Q297.3781 34.51875 297.3781 30.4875ZM299.1906 30.4875Q299.1906 34.01875 300.0031 35.190624Q300.83124 36.346874 302.05 36.346874Q303.2531 36.346874 304.08124 35.175Q304.90936 34.003124 304.90936 30.4875Q304.90936 26.95625 304.08124 25.8Q303.2531 24.628124 302.03436 24.628124Q300.8156 24.628124 300.09686 25.659374Q299.1906 26.95625 299.1906 30.4875ZM308.3781 30.4875Q308.3781 27.95625 308.89374 26.409374Q309.425 24.846874 310.45624 24.01875Q311.4875 23.175 313.05 23.175Q314.20624 23.175 315.0656 23.64375Q315.9406 24.096874 316.5031 24.971874Q317.0656 25.846874 317.39374 27.1125Q317.72186 28.3625 317.72186 30.4875Q317.72186 33.003124 317.1906 34.55Q316.675 36.096874 315.64374 36.95625Q314.6281 37.8 313.05 37.8Q310.97186 37.8 309.8 36.315624Q308.3781 34.51875 308.3781 30.4875ZM310.1906 30.4875Q310.1906 34.01875 311.0031 35.190624Q311.83124 36.346874 313.05 36.346874Q314.2531 36.346874 315.08124 35.175Q315.90936 34.003124 315.90936 30.4875Q315.90936 26.95625 315.08124 25.8Q314.2531 24.628124 313.03436 24.628124Q311.8156 24.628124 311.09686 25.659374Q310.1906 26.95625 310.1906 30.4875ZM332.8 31.940624L332.8 30.253124L338.8625 30.2375L338.8625 35.55Q337.45624 36.675 335.97186 37.2375Q334.4875 37.8 332.925 37.8Q330.8156 37.8 329.09686 36.89375Q327.3781 35.9875 326.4875 34.284374Q325.6125 32.565624 325.6125 30.45625Q325.6125 28.3625 326.4875 26.565624Q327.3625 24.753124 329.0031 23.878124Q330.64374 22.9875 332.78436 22.9875Q334.33124 22.9875 335.58124 23.4875Q336.84686 23.9875 337.55 24.89375Q338.26874 25.784374 338.64374 27.2375L336.9406 27.70625Q336.6125 26.6125 336.1281 25.9875Q335.65936 25.3625 334.76874 24.9875Q333.8781 24.6125 332.8 24.6125Q331.4875 24.6125 330.53436 25.003124Q329.59686 25.39375 329.01874 26.05Q328.4406 26.690624 328.1125 27.45625Q327.5656 28.784374 327.5656 30.346874Q327.5656 32.253124 328.22186 33.55Q328.89374 34.83125 330.14374 35.45625Q331.40936 36.08125 332.8156 36.08125Q334.05 36.08125 335.22186 35.6125Q336.39374 35.14375 337.0031 34.596874L337.0031 31.940624L332.8 31.940624ZM342.01874 37.55L342.01874 23.2375L347.39374 23.2375Q349.03436 23.2375 350.01874 23.675Q351.0031 24.096874 351.5656 25.003124Q352.1281 25.909374 352.1281 26.89375Q352.1281 27.815624 351.6281 28.628124Q351.14374 29.440624 350.1281 29.925Q351.425 30.315624 352.1281 31.2375Q352.83124 32.14375 352.83124 33.39375Q352.83124 34.409374 352.39374 35.26875Q351.97186 36.128124 351.34686 36.596874Q350.72186 37.065624 349.78436 37.315624Q348.84686 37.55 347.47186 37.55L342.01874 37.55ZM343.90936 29.253124L347.0031 29.253124Q348.26874 29.253124 348.8156 29.08125Q349.53436 28.8625 349.89374 28.378124Q350.26874 27.878124 350.26874 27.1125Q350.26874 26.409374 349.925 25.8625Q349.58124 25.315624 348.9406 25.128124Q348.3156 24.925 346.76874 24.925L343.90936 24.925L343.90936 29.253124ZM343.90936 35.8625L347.47186 35.8625Q348.39374 35.8625 348.76874 35.784374Q349.425 35.675 349.8625 35.409374Q350.3 35.128124 350.58124 34.6125Q350.8625 34.08125 350.8625 33.39375Q350.8625 32.596874 350.45624 32.003124Q350.05 31.409374 349.3156 31.175Q348.58124 30.940624 347.22186 30.940624L343.90936 30.940624L343.90936 35.8625ZM360.8625 37.55L360.8625 27.175L362.4406 27.175L362.4406 28.628124Q362.925 27.878124 363.7375 27.409374Q364.55 26.940624 365.58124 26.940624Q366.7375 26.940624 367.47186 27.425Q368.20624 27.89375 368.51874 28.753124Q369.7531 26.940624 371.72186 26.940624Q373.26874 26.940624 374.09686 27.8Q374.925 28.659374 374.925 30.425L374.925 37.55L373.175 37.55L373.175 31.01875Q373.175 29.95625 373.0031 29.503124Q372.83124 29.034374 372.3781 28.753124Q371.9406 28.471874 371.33124 28.471874Q370.2375 28.471874 369.5031 29.20625Q368.78436 29.925 368.78436 31.51875L368.78436 37.55L367.03436 37.55L367.03436 30.815624Q367.03436 29.64375 366.59686 29.065624Q366.175 28.471874 365.1906 28.471874Q364.45624 28.471874 363.8156 28.8625Q363.1906 29.253124 362.90936 30.003124Q362.6281 30.753124 362.6281 32.175L362.6281 37.55L360.8625 37.55ZM384.64374 36.26875Q383.65936 37.096874 382.7531 37.440624Q381.84686 37.784374 380.8156 37.784374Q379.1125 37.784374 378.1906 36.95625Q377.26874 36.1125 377.26874 34.815624Q377.26874 34.05 377.6125 33.425Q377.97186 32.8 378.53436 32.425Q379.09686 32.034374 379.8 31.83125Q380.3156 31.70625 381.3625 31.565624Q383.4875 31.315624 384.4875 30.971874Q384.5031 30.6125 384.5031 30.503124Q384.5031 29.440624 384.0031 28.9875Q383.33124 28.39375 382.0031 28.39375Q380.7531 28.39375 380.15936 28.83125Q379.58124 29.26875 379.3 30.378124L377.58124 30.14375Q377.8156 29.034374 378.34686 28.3625Q378.8781 27.675 379.89374 27.315624Q380.90936 26.940624 382.2531 26.940624Q383.58124 26.940624 384.40936 27.253124Q385.2375 27.565624 385.6281 28.05Q386.01874 28.51875 386.175 29.2375Q386.26874 29.690624 386.26874 30.8625L386.26874 33.20625Q386.26874 35.659374 386.3781 36.315624Q386.4875 36.95625 386.83124 37.55L384.9875 37.55Q384.72186 37.003124 384.64374 36.26875ZM384.4875 32.346874Q383.53436 32.7375 381.6125 33.003124Q380.53436 33.159374 380.08124 33.3625Q379.64374 33.55 379.39374 33.925Q379.14374 34.3 379.14374 34.76875Q379.14374 35.471874 379.675 35.940624Q380.20624 36.409374 381.2375 36.409374Q382.2531 36.409374 383.03436 35.971874Q383.83124 35.51875 384.20624 34.753124Q384.4875 34.14375 384.4875 32.9875L384.4875 32.346874ZM395.64374 33.753124L397.3625 33.971874Q397.08124 35.76875 395.90936 36.784374Q394.7531 37.784374 393.05 37.784374Q390.925 37.784374 389.6281 36.39375Q388.33124 35.003124 388.33124 32.409374Q388.33124 30.721874 388.8781 29.471874Q389.4406 28.20625 390.58124 27.58125Q391.72186 26.940624 393.0656 26.940624Q394.7531 26.940624 395.8156 27.8Q396.89374 28.659374 397.20624 30.221874L395.4875 30.4875Q395.2531 29.440624 394.6281 28.925Q394.0031 28.39375 393.1281 28.39375Q391.8 28.39375 390.97186 29.346874Q390.14374 30.3 390.14374 32.346874Q390.14374 34.440624 390.9406 35.39375Q391.7375 36.33125 393.03436 36.33125Q394.0656 36.33125 394.7531 35.70625Q395.45624 35.065624 395.64374 33.753124ZM398.8625 37.55L398.8625 23.2375L400.6281 23.2375L400.6281 28.3625Q401.8625 26.940624 403.7375 26.940624Q404.8781 26.940624 405.72186 27.39375Q406.58124 27.846874 406.9406 28.659374Q407.3156 29.45625 407.3156 30.971874L407.3156 37.55L405.5656 37.55L405.5656 30.971874Q405.5656 29.659374 404.9875 29.065624Q404.40936 28.45625 403.3781 28.45625Q402.59686 28.45625 401.89374 28.8625Q401.20624 29.26875 400.90936 29.971874Q400.6281 30.659374 400.6281 31.878124L400.6281 37.55L398.8625 37.55ZM409.8781 25.253124L409.8781 23.2375L411.64374 23.2375L411.64374 25.253124L409.8781 25.253124ZM409.8781 37.55L409.8781 27.175L411.64374 27.175L411.64374 37.55L409.8781 37.55ZM413.8625 37.55L413.8625 27.175L415.45624 27.175L415.45624 28.659374Q416.59686 26.940624 418.7531 26.940624Q419.6906 26.940624 420.47186 27.284374Q421.26874 27.6125 421.65936 28.159374Q422.05 28.70625 422.20624 29.45625Q422.3 29.95625 422.3 31.175L422.3 37.55L420.53436 37.55L420.53436 31.2375Q420.53436 30.159374 420.33124 29.628124Q420.1281 29.096874 419.59686 28.784374Q419.08124 28.471874 418.3781 28.471874Q417.2531 28.471874 416.4406 29.190624Q415.6281 29.89375 415.6281 31.878124L415.6281 37.55L413.8625 37.55ZM431.97186 34.20625L433.78436 34.440624Q433.3625 36.01875 432.1906 36.909374Q431.03436 37.784374 429.22186 37.784374Q426.95624 37.784374 425.6125 36.39375Q424.28436 34.9875 424.28436 32.45625Q424.28436 29.83125 425.6281 28.39375Q426.97186 26.940624 429.1281 26.940624Q431.20624 26.940624 432.51874 28.3625Q433.84686 29.76875 433.84686 32.346874Q433.84686 32.503124 433.83124 32.815624L426.09686 32.815624Q426.1906 34.51875 427.0656 35.425Q427.9406 36.33125 429.2375 36.33125Q430.20624 36.33125 430.8781 35.83125Q431.5656 35.315624 431.97186 34.20625ZM426.1906 31.3625L431.9875 31.3625Q431.8781 30.065624 431.33124 29.409374Q430.4875 28.39375 429.14374 28.39375Q427.9406 28.39375 427.1125 29.20625Q426.28436 30.003124 426.1906 31.3625Z" fill-rule="nonzero"/></svg>