<svg version="1.1" viewBox="0.0 0.0 600.0 371.0" fill="none" stroke="none" stroke-linecap="square" stroke-miterlimit="10" width="600" height="371" xmlns:xlink="http://www.w3.org/1999/xlink" xmlns="http://www.w3.org/2000/svg"><path fill="#ffffff" d="M0 0L600.0 0L600.0 371.0L0 371.0L0 0Z" fill-rule="nonzero"/><path stroke="#cccccc" stroke-width="1.0" stroke-linecap="butt" d="M136.5 88.5L136.5 300.5" fill-rule="nonzero"/><path stroke="#cccccc" stroke-width="1.0" stroke-linecap="butt" d="M284.5 88.5L284.5 300.5" fill-rule="nonzero"/><path stroke="#cccccc" stroke-width="1.0" stroke-linecap="butt" d="M433.5 88.5L433.5 300.5" fill-rule="nonzero"/><path stroke="#cccccc" stroke-width="1.0" stroke-linecap="butt" d="M581.5 88.5L581.5 300.5" fill-rule="nonzero"/><path stroke="#333333" stroke-width="1.0" stroke-linecap="butt" d="M62.5 300.5L581.5 300.5" fill-rule="nonzero"/><path stroke="#cccccc" stroke-width="1.0" stroke-linecap="butt" d="M62.5 247.5L581.5 247.5" fill-rule="nonzero"/><path stroke="#cccccc" stroke-width="1.0" stroke-linecap="butt" d="M62.5 194.5L581.5 194.5" fill-rule="nonzero"/><path stroke="#cccccc" stroke-width="1.0" stroke-linecap="butt" d="M62.5 141.5L581.5 141.5" fill-rule="nonzero"/><path stroke="#cccccc" stroke-width="1.0" stroke-linecap="butt" d="M62.5 88.5L581.5 88.5" fill-rule="nonzero"/><clipPath id="id_0"><path d="M62.55 88.28333L581.45 88.28333L581.45 300.45L62.55 300.45L62.55 88.28333Z" clip-rule="nonzero"/></clipPath><path stroke="#4285f4" stroke-width="2.0" stroke-linecap="butt" clip-path="url(#id_0)" d="M62.55 108.37207L136.67857 200.69826L284.9357 241.18283L581.45 252.09456" fill-rule="nonzero"/><path stroke="#ea4335" stroke-width="2.0" stroke-linecap="butt" clip-path="url(#id_0)" d="M62.55 285.81714L136.67857 292.7181L284.9357 296.31512L581.45 296.57584" fill-rule="nonzero"/><path stroke="#fbbc04" stroke-width="2.0" stroke-linecap="butt" clip-path="url(#id_0)" d="M62.55 288.1918L136.67857 293.96912L284.9357 297.00708L581.45 297.7104" fill-rule="nonzero"/><path fill="#000000" fill-opacity="0.0" clip-path="url(#id_0)" d="M65.55 108.37207C65.55 110.02892 64.206856 111.37207 62.55 111.37207C60.893147 111.37207 59.55 110.02892 59.55 108.37207C59.55 106.71522 60.893147 105.37207 62.55 105.37207C64.206856 105.37207 65.55 106.71522 65.55 108.37207Z" fill-rule="nonzero"/><path fill="#000000" fill-opacity="0.0" clip-path="url(#id_0)" d="M139.67857 200.69826C139.67857 202.3551 138.33542 203.69826 136.67857 203.69826C135.02171 203.69826 133.67857 202.3551 133.67857 200.69826C133.67857 199.0414 135.02171 197.69826 136.67857 197.69826C138.33542 197.69826 139.67857 199.0414 139.67857 200.69826Z" fill-rule="nonzero"/><path fill="#000000" fill-opacity="0.0" clip-path="url(#id_0)" d="M287.9357 241.18283C287.9357 242.83969 286.59256 244.18283 284.9357 244.18283C283.27887 244.18283 281.9357 242.83969 281.9357 241.18283C281.9357 239.52599 283.27887 238.18283 284.9357 238.18283C286.59256 238.18283 287.9357 239.52599 287.9357 241.18283Z" fill-rule="nonzero"/><path fill="#000000" fill-opacity="0.0" clip-path="url(#id_0)" d="M584.45 252.09456C584.45 253.75142 583.1069 255.09456 581.45 255.09456C579.79315 255.09456 578.45 253.75142 578.45 252.09456C578.45 250.43771 579.79315 249.09456 581.45 249.09456C583.1069 249.09456 584.45 250.43771 584.45 252.09456Z" fill-rule="nonzero"/><path fill="#000000" fill-opacity="0.0" clip-path="url(#id_0)" d="M65.55 285.81714C65.55 287.474 64.206856 288.81714 62.55 288.81714C60.893147 288.81714 59.55 287.474 59.55 285.81714C59.55 284.16028 60.893147 282.81714 62.55 282.81714C64.206856 282.81714 65.55 284.16028 65.55 285.81714Z" fill-rule="nonzero"/><path fill="#000000" fill-opacity="0.0" clip-path="url(#id_0)" d="M139.67857 292.7181C139.67857 294.37497 138.33542 295.7181 136.67857 295.7181C135.02171 295.7181 133.67857 294.37497 133.67857 292.7181C133.67857 291.06125 135.02171 289.7181 136.67857 289.7181C138.33542 289.7181 139.67857 291.06125 139.67857 292.7181Z" fill-rule="nonzero"/><path fill="#000000" fill-opacity="0.0" clip-path="url(#id_0)" d="M287.9357 296.31512C287.9357 297.972 286.59256 299.31512 284.9357 299.31512C283.27887 299.31512 281.9357 297.972 281.9357 296.31512C281.9357 294.6583 283.27887 293.31512 284.9357 293.31512C286.59256 293.31512 287.9357 294.6583 287.9357 296.31512Z" fill-rule="nonzero"/><path fill="#000000" fill-opacity="0.0" clip-path="url(#id_0)" d="M584.45 296.57584C584.45 298.2327 583.1069 299.57584 581.45 299.57584C579.79315 299.57584 578.45 298.2327 578.45 296.57584C578.45 294.91898 579.79315 293.57584 581.45 293.57584C583.1069 293.57584 584.45 294.91898 584.45 296.57584Z" fill-rule="nonzero"/><path fill="#000000" fill-opacity="0.0" clip-path="url(#id_0)" d="M65.55 288.1918C65.55 289.84866 64.206856 291.1918 62.55 291.1918C60.893147 291.1918 59.55 289.84866 59.55 288.1918C59.55 286.53494 60.893147 285.1918 62.55 285.1918C64.206856 285.1918 65.55 286.53494 65.55 288.1918Z" fill-rule="nonzero"/><path fill="#000000" fill-opacity="0.0" clip-path="url(#id_0)" d="M139.67857 293.96912C139.67857 295.62595 138.33542 296.96912 136.67857 296.96912C135.02171 296.96912 133.67857 295.62595 133.67857 293.96912C133.67857 292.31226 135.02171 290.96912 136.67857 290.96912C138.33542 290.96912 139.67857 292.31226 139.67857 293.96912Z" fill-rule="nonzero"/><path fill="#000000" fill-opacity="0.0" clip-path="url(#id_0)" d="M287.9357 297.00708C287.9357 298.6639 286.59256 300.00708 284.9357 300.00708C283.27887 300.00708 281.9357 298.6639 281.9357 297.00708C281.9357 295.35022 283.27887 294.00708 284.9357 294.00708C286.59256 294.00708 287.9357 295.35022 287.9357 297.00708Z" fill-rule="nonzero"/><path fill="#000000" fill-opacity="0.0" clip-path="url(#id_0)" d="M584.45 297.7104C584.45 299.36725 583.1069 300.7104 581.45 300.7104C579.79315 300.7104 578.45 299.36725 578.45 297.7104C578.45 296.05356 579.79315 294.7104 581.45 294.7104C583.1069 294.7104 584.45 296.05356 584.45 297.7104Z" fill-rule="nonzero"/><path fill="#000000" d="M292.42188 349.45L292.42188 340.85626L295.67188 340.85626Q296.51562 340.85626 296.96875 340.9344Q297.60938 341.04376 298.03125 341.34064Q298.46875 341.6375 298.71875 342.16876Q298.98438 342.7 298.98438 343.34064Q298.98438 344.4344 298.28125 345.2Q297.59375 345.95 295.76562 345.95L293.5625 345.95L293.5625 349.45L292.42188 349.45ZM293.5625 344.95L295.78125 344.95Q296.89062 344.95 297.34375 344.54376Q297.8125 344.1219 297.8125 343.3719Q297.8125 342.84064 297.53125 342.46564Q297.26562 342.075 296.82812 341.95Q296.53125 341.8719 295.76562 341.8719L293.5625 341.8719L293.5625 344.95ZM304.35938 348.6844Q303.76562 349.1844 303.21875 349.3875Q302.6875 349.59064 302.0625 349.59064Q301.03125 349.59064 300.48438 349.09064Q299.9375 348.59064 299.9375 347.8094Q299.9375 347.35626 300.14062 346.98126Q300.34375 346.59064 300.6875 346.3719Q301.03125 346.1375 301.45312 346.02814Q301.75 345.9344 302.39062 345.85626Q303.65625 345.71564 304.26562 345.4969Q304.26562 345.27814 304.26562 345.23126Q304.26562 344.575 303.96875 344.3094Q303.5625 343.96564 302.76562 343.96564Q302.03125 343.96564 301.67188 344.23126Q301.3125 344.48126 301.14062 345.1375L300.10938 344.9969Q300.25 344.34064 300.57812 343.9344Q300.90625 343.52814 301.51562 343.3094Q302.125 343.09064 302.92188 343.09064Q303.71875 343.09064 304.21875 343.27814Q304.71875 343.46564 304.95312 343.7469Q305.1875 344.02814 305.28125 344.46564Q305.32812 344.73126 305.32812 345.4344L305.32812 346.84064Q305.32812 348.3094 305.39062 348.7Q305.46875 349.09064 305.67188 349.45L304.5625 349.45Q304.40625 349.1219 304.35938 348.6844ZM304.26562 346.325Q303.6875 346.5594 302.54688 346.73126Q301.89062 346.825 301.625 346.95Q301.35938 347.0594 301.20312 347.27814Q301.0625 347.4969 301.0625 347.77814Q301.0625 348.2 301.375 348.48126Q301.70312 348.7625 302.3125 348.7625Q302.92188 348.7625 303.39062 348.4969Q303.875 348.23126 304.09375 347.7625Q304.26562 347.40314 304.26562 346.71564L304.26562 346.325ZM307.28125 349.45L307.28125 343.23126L308.23438 343.23126L308.23438 344.16876Q308.59375 343.5125 308.89062 343.3094Q309.20312 343.09064 309.57812 343.09064Q310.10938 343.09064 310.65625 343.41876L310.29688 344.40314Q309.90625 344.16876 309.53125 344.16876Q309.17188 344.16876 308.89062 344.3875Q308.625 344.59064 308.51562 344.96564Q308.32812 345.52814 308.32812 346.1844L308.32812 349.45L307.28125 349.45ZM315.35938 348.6844Q314.76562 349.1844 314.21875 349.3875Q313.6875 349.59064 313.0625 349.59064Q312.03125 349.59064 311.48438 349.09064Q310.9375 348.59064 310.9375 347.8094Q310.9375 347.35626 311.14062 346.98126Q311.34375 346.59064 311.6875 346.3719Q312.03125 346.1375 312.45312 346.02814Q312.75 345.9344 313.39062 345.85626Q314.65625 345.71564 315.26562 345.4969Q315.26562 345.27814 315.26562 345.23126Q315.26562 344.575 314.96875 344.3094Q314.5625 343.96564 313.76562 343.96564Q313.03125 343.96564 312.67188 344.23126Q312.3125 344.48126 312.14062 345.1375L311.10938 344.9969Q311.25 344.34064 311.57812 343.9344Q311.90625 343.52814 312.51562 343.3094Q313.125 343.09064 313.92188 343.09064Q314.71875 343.09064 315.21875 343.27814Q315.71875 343.46564 315.95312 343.7469Q316.1875 344.02814 316.28125 344.46564Q316.32812 344.73126 316.32812 345.4344L316.32812 346.84064Q316.32812 348.3094 316.39062 348.7Q316.46875 349.09064 316.67188 349.45L315.5625 349.45Q315.40625 349.1219 315.35938 348.6844ZM315.26562 346.325Q314.6875 346.5594 313.54688 346.73126Q312.89062 346.825 312.625 346.95Q312.35938 347.0594 312.20312 347.27814Q312.0625 347.4969 312.0625 347.77814Q312.0625 348.2 312.375 348.48126Q312.70312 348.7625 313.3125 348.7625Q313.92188 348.7625 314.39062 348.4969Q314.875 348.23126 315.09375 347.7625Q315.26562 347.40314 315.26562 346.71564L315.26562 346.325ZM318.26562 349.45L318.26562 340.85626L319.32812 340.85626L319.32812 349.45L318.26562 349.45ZM325.54688 347.45L326.64062 347.575Q326.39062 348.52814 325.6875 349.0594Q324.98438 349.59064 323.90625 349.59064Q322.54688 349.59064 321.73438 348.7469Q320.9375 347.90314 320.9375 346.3875Q320.9375 344.825 321.75 343.96564Q322.5625 343.09064 323.84375 343.09064Q325.09375 343.09064 325.875 343.9344Q326.67188 344.77814 326.67188 346.325Q326.67188 346.41876 326.67188 346.60626L322.03125 346.60626Q322.09375 347.6375 322.60938 348.1844Q323.125 348.71564 323.90625 348.71564Q324.48438 348.71564 324.89062 348.41876Q325.3125 348.10626 325.54688 347.45ZM322.09375 345.7469L325.5625 345.7469Q325.5 344.95 325.17188 344.5594Q324.65625 343.95 323.85938 343.95Q323.125 343.95 322.625 344.4344Q322.14062 344.91876 322.09375 345.7469ZM328.26562 349.45L328.26562 340.85626L329.32812 340.85626L329.32812 349.45L328.26562 349.45ZM331.26562 349.45L331.26562 340.85626L332.32812 340.85626L332.32812 349.45L331.26562 349.45ZM334.29688 342.075L334.29688 340.85626L335.35938 340.85626L335.35938 342.075L334.29688 342.075ZM334.29688 349.45L334.29688 343.23126L335.35938 343.23126L335.35938 349.45L334.29688 349.45ZM336.875 347.59064L337.90625 347.4344Q338.0 348.0594 338.39062 348.3875Q338.79688 348.71564 339.53125 348.71564Q340.25 348.71564 340.59375 348.4344Q340.95312 348.1375 340.95312 347.73126Q340.95312 347.3719 340.64062 347.16876Q340.42188 347.02814 339.5625 346.8094Q338.40625 346.5125 337.95312 346.3094Q337.51562 346.09064 337.28125 345.71564Q337.04688 345.34064 337.04688 344.8719Q337.04688 344.46564 337.23438 344.10626Q337.42188 343.7469 337.75 343.5125Q338.0 343.34064 338.42188 343.21564Q338.84375 343.09064 339.34375 343.09064Q340.0625 343.09064 340.60938 343.3094Q341.17188 343.5125 341.4375 343.8719Q341.70312 344.23126 341.79688 344.825L340.76562 344.96564Q340.70312 344.4969 340.35938 344.23126Q340.03125 343.95 339.40625 343.95Q338.6875 343.95 338.375 344.2Q338.0625 344.4344 338.0625 344.7625Q338.0625 344.96564 338.1875 345.1219Q338.32812 345.29376 338.59375 345.40314Q338.75 345.46564 339.53125 345.66876Q340.65625 345.98126 341.09375 346.16876Q341.53125 346.35626 341.78125 346.71564Q342.03125 347.075 342.03125 347.6219Q342.03125 348.15314 341.71875 348.6219Q341.42188 349.075 340.84375 349.34064Q340.26562 349.59064 339.53125 349.59064Q338.3125 349.59064 337.67188 349.09064Q337.04688 348.575 336.875 347.59064ZM343.29688 349.45L343.29688 343.23126L344.23438 343.23126L344.23438 344.10626Q344.53125 343.6375 345.01562 343.3719Q345.5 343.09064 346.125 343.09064Q346.8125 343.09064 347.25 343.3719Q347.70312 343.65314 347.875 344.16876Q348.625 343.09064 349.79688 343.09064Q350.73438 343.09064 351.21875 343.60626Q351.71875 344.10626 351.71875 345.1844L351.71875 349.45L350.67188 349.45L350.67188 345.52814Q350.67188 344.90314 350.5625 344.6219Q350.46875 344.34064 350.20312 344.16876Q349.9375 343.9969 349.5625 343.9969Q348.90625 343.9969 348.46875 344.4344Q348.04688 344.8719 348.04688 345.84064L348.04688 349.45L346.98438 349.45L346.98438 345.40314Q346.98438 344.7 346.71875 344.35626Q346.46875 343.9969 345.89062 343.9969Q345.4375 343.9969 345.0625 344.23126Q344.6875 344.46564 344.51562 344.91876Q344.34375 345.3719 344.34375 346.21564L344.34375 349.45L343.29688 349.45Z" fill-rule="nonzero"/><path fill="#000000" d="M33.05 300.21564Q33.05 298.6844 33.3625 297.7625Q33.675 296.825 34.284374 296.325Q34.909374 295.825 35.846874 295.825Q36.534374 295.825 37.05 296.10626Q37.58125 296.3875 37.925 296.91876Q38.26875 297.4344 38.45625 298.1844Q38.64375 298.9344 38.64375 300.21564Q38.64375 301.73126 38.33125 302.65314Q38.034374 303.575 37.409374 304.09064Q36.8 304.59064 35.846874 304.59064Q34.6125 304.59064 33.89375 303.7Q33.05 302.6375 33.05 300.21564ZM34.128124 300.21564Q34.128124 302.325 34.628124 303.02814Q35.128124 303.73126 35.846874 303.73126Q36.58125 303.73126 37.065624 303.02814Q37.565624 302.325 37.565624 300.21564Q37.565624 298.09064 37.065624 297.40314Q36.58125 296.7 35.83125 296.7Q35.1125 296.7 34.675 297.3094Q34.128124 298.09064 34.128124 300.21564ZM40.64375 304.45L40.64375 303.2469L41.846874 303.2469L41.846874 304.45L40.64375 304.45ZM43.05 300.21564Q43.05 298.6844 43.3625 297.7625Q43.675 296.825 44.284374 296.325Q44.909374 295.825 45.846874 295.825Q46.534374 295.825 47.05 296.10626Q47.58125 296.3875 47.925 296.91876Q48.26875 297.4344 48.45625 298.1844Q48.64375 298.9344 48.64375 300.21564Q48.64375 301.73126 48.33125 302.65314Q48.034374 303.575 47.409374 304.09064Q46.8 304.59064 45.846874 304.59064Q44.6125 304.59064 43.89375 303.7Q43.05 302.6375 43.05 300.21564ZM44.128124 300.21564Q44.128124 302.325 44.628124 303.02814Q45.128124 303.73126 45.846874 303.73126Q46.58125 303.73126 47.065624 303.02814Q47.565624 302.325 47.565624 300.21564Q47.565624 298.09064 47.065624 297.40314Q46.58125 296.7 45.83125 296.7Q45.1125 296.7 44.675 297.3094Q44.128124 298.09064 44.128124 300.21564ZM50.05 300.21564Q50.05 298.6844 50.3625 297.7625Q50.675 296.825 51.284374 296.325Q51.909374 295.825 52.846874 295.825Q53.534374 295.825 54.05 296.10626Q54.58125 296.3875 54.925 296.91876Q55.26875 297.4344 55.45625 298.1844Q55.64375 298.9344 55.64375 300.21564Q55.64375 301.73126 55.33125 302.65314Q55.034374 303.575 54.409374 304.09064Q53.8 304.59064 52.846874 304.59064Q51.6125 304.59064 50.89375 303.7Q50.05 302.6375 50.05 300.21564ZM51.128124 300.21564Q51.128124 302.325 51.628124 303.02814Q52.128124 303.73126 52.846874 303.73126Q53.58125 303.73126 54.065624 303.02814Q54.565624 302.325 54.565624 300.21564Q54.565624 298.09064 54.065624 297.40314Q53.58125 296.7 52.83125 296.7Q52.1125 296.7 51.675 297.3094Q51.128124 298.09064 51.128124 300.21564Z" fill-rule="nonzero"/><path fill="#000000" d="M24.596874 250.39272L24.596874 251.40834L18.909374 251.40834Q18.909374 251.03334 19.034374 250.67397Q19.253124 250.09584 19.721874 249.53334Q20.20625 248.97084 21.1125 248.23647Q22.51875 247.08022 23.003124 246.40834Q23.503124 245.73647 23.503124 245.14272Q23.503124 244.51772 23.05 244.09584Q22.596874 243.65834 21.878124 243.65834Q21.1125 243.65834 20.659374 244.11147Q20.20625 244.56459 20.190624 245.37709L19.1125 245.26772Q19.221874 244.04897 19.940624 243.42397Q20.675 242.78334 21.909374 242.78334Q23.14375 242.78334 23.8625 243.47084Q24.58125 244.15834 24.58125 245.17397Q24.58125 245.68959 24.3625 246.18959Q24.159374 246.67397 23.659374 247.23647Q23.175 247.78334 22.05 248.73647Q21.096874 249.53334 20.815624 249.83022Q20.55 250.11147 20.378124 250.39272L24.596874 250.39272ZM26.05 247.17397Q26.05 245.64272 26.3625 244.72084Q26.675 243.78334 27.284374 243.28334Q27.909374 242.78334 28.846874 242.78334Q29.534374 242.78334 30.05 243.06459Q30.58125 243.34584 30.925 243.87709Q31.26875 244.39272 31.45625 245.14272Q31.64375 245.89272 31.64375 247.17397Q31.64375 248.68959 31.33125 249.61147Q31.034374 250.53334 30.409374 251.04897Q29.8 251.54897 28.846874 251.54897Q27.6125 251.54897 26.89375 250.65834Q26.05 249.59584 26.05 247.17397ZM27.128124 247.17397Q27.128124 249.28334 27.628124 249.98647Q28.128124 250.68959 28.846874 250.68959Q29.58125 250.68959 30.065624 249.98647Q30.565624 249.28334 30.565624 247.17397Q30.565624 245.04897 30.065624 244.36147Q29.58125 243.65834 28.83125 243.65834Q28.1125 243.65834 27.675 244.26772Q27.128124 245.04897 27.128124 247.17397ZM33.05 247.17397Q33.05 245.64272 33.3625 244.72084Q33.675 243.78334 34.284374 243.28334Q34.909374 242.78334 35.846874 242.78334Q36.534374 242.78334 37.05 243.06459Q37.58125 243.34584 37.925 243.87709Q38.26875 244.39272 38.45625 245.14272Q38.64375 245.89272 38.64375 247.17397Q38.64375 248.68959 38.33125 249.61147Q38.034374 250.53334 37.409374 251.04897Q36.8 251.54897 35.846874 251.54897Q34.6125 251.54897 33.89375 250.65834Q33.05 249.59584 33.05 247.17397ZM34.128124 247.17397Q34.128124 249.28334 34.628124 249.98647Q35.128124 250.68959 35.846874 250.68959Q36.58125 250.68959 37.065624 249.98647Q37.565624 249.28334 37.565624 247.17397Q37.565624 245.04897 37.065624 244.36147Q36.58125 243.65834 35.83125 243.65834Q35.1125 243.65834 34.675 244.26772Q34.128124 245.04897 34.128124 247.17397ZM40.64375 251.40834L40.64375 250.20522L41.846874 250.20522L41.846874 251.40834L40.64375 251.40834ZM43.05 247.17397Q43.05 245.64272 43.3625 244.72084Q43.675 243.78334 44.284374 243.28334Q44.909374 242.78334 45.846874 242.78334Q46.534374 242.78334 47.05 243.06459Q47.58125 243.34584 47.925 243.87709Q48.26875 244.39272 48.45625 245.14272Q48.64375 245.89272 48.64375 247.17397Q48.64375 248.68959 48.33125 249.61147Q48.034374 250.53334 47.409374 251.04897Q46.8 251.54897 45.846874 251.54897Q44.6125 251.54897 43.89375 250.65834Q43.05 249.59584 43.05 247.17397ZM44.128124 247.17397Q44.128124 249.28334 44.628124 249.98647Q45.128124 250.68959 45.846874 250.68959Q46.58125 250.68959 47.065624 249.98647Q47.565624 249.28334 47.565624 247.17397Q47.565624 245.04897 47.065624 244.36147Q46.58125 243.65834 45.83125 243.65834Q45.1125 243.65834 44.675 244.26772Q44.128124 245.04897 44.128124 247.17397ZM50.05 247.17397Q50.05 245.64272 50.3625 244.72084Q50.675 243.78334 51.284374 243.28334Q51.909374 242.78334 52.846874 242.78334Q53.534374 242.78334 54.05 243.06459Q54.58125 243.34584 54.925 243.87709Q55.26875 244.39272 55.45625 245.14272Q55.64375 245.89272 55.64375 247.17397Q55.64375 248.68959 55.33125 249.61147Q55.034374 250.53334 54.409374 251.04897Q53.8 251.54897 52.846874 251.54897Q51.6125 251.54897 50.89375 250.65834Q50.05 249.59584 50.05 247.17397ZM51.128124 247.17397Q51.128124 249.28334 51.628124 249.98647Q52.128124 250.68959 52.846874 250.68959Q53.58125 250.68959 54.065624 249.98647Q54.565624 249.28334 54.565624 247.17397Q54.565624 245.04897 54.065624 244.36147Q53.58125 243.65834 52.83125 243.65834Q52.1125 243.65834 51.675 244.26772Q51.128124 245.04897 51.128124 247.17397Z" fill-rule="nonzero"/><path fill="#000000" d="M22.425 198.36667L22.425 196.30417L18.70625 196.30417L18.70625 195.33542L22.628124 189.77292L23.4875 189.77292L23.4875 195.33542L24.64375 195.33542L24.64375 196.30417L23.4875 196.30417L23.4875 198.36667L22.425 198.36667ZM22.425 195.33542L22.425 191.47604L19.7375 195.33542L22.425 195.33542ZM26.05 194.1323Q26.05 192.60104 26.3625 191.67917Q26.675 190.74167 27.284374 190.24167Q27.909374 189.74167 28.846874 189.74167Q29.534374 189.74167 30.05 190.02292Q30.58125 190.30417 30.925 190.83542Q31.26875 191.35104 31.45625 192.10104Q31.64375 192.85104 31.64375 194.1323Q31.64375 195.64792 31.33125 196.5698Q31.034374 197.49167 30.409374 198.0073Q29.8 198.5073 28.846874 198.5073Q27.6125 198.5073 26.89375 197.61667Q26.05 196.55417 26.05 194.1323ZM27.128124 194.1323Q27.128124 196.24167 27.628124 196.9448Q28.128124 197.64792 28.846874 197.64792Q29.58125 197.64792 30.065624 196.9448Q30.565624 196.24167 30.565624 194.1323Q30.565624 192.0073 30.065624 191.3198Q29.58125 190.61667 28.83125 190.61667Q28.1125 190.61667 27.675 191.22604Q27.128124 192.0073 27.128124 194.1323ZM33.05 194.1323Q33.05 192.60104 33.3625 191.67917Q33.675 190.74167 34.284374 190.24167Q34.909374 189.74167 35.846874 189.74167Q36.534374 189.74167 37.05 190.02292Q37.58125 190.30417 37.925 190.83542Q38.26875 191.35104 38.45625 192.10104Q38.64375 192.85104 38.64375 194.1323Q38.64375 195.64792 38.33125 196.5698Q38.034374 197.49167 37.409374 198.0073Q36.8 198.5073 35.846874 198.5073Q34.6125 198.5073 33.89375 197.61667Q33.05 196.55417 33.05 194.1323ZM34.128124 194.1323Q34.128124 196.24167 34.628124 196.9448Q35.128124 197.64792 35.846874 197.64792Q36.58125 197.64792 37.065624 196.9448Q37.565624 196.24167 37.565624 194.1323Q37.565624 192.0073 37.065624 191.3198Q36.58125 190.61667 35.83125 190.61667Q35.1125 190.61667 34.675 191.22604Q34.128124 192.0073 34.128124 194.1323ZM40.64375 198.36667L40.64375 197.16354L41.846874 197.16354L41.846874 198.36667L40.64375 198.36667ZM43.05 194.1323Q43.05 192.60104 43.3625 191.67917Q43.675 190.74167 44.284374 190.24167Q44.909374 189.74167 45.846874 189.74167Q46.534374 189.74167 47.05 190.02292Q47.58125 190.30417 47.925 190.83542Q48.26875 191.35104 48.45625 192.10104Q48.64375 192.85104 48.64375 194.1323Q48.64375 195.64792 48.33125 196.5698Q48.034374 197.49167 47.409374 198.0073Q46.8 198.5073 45.846874 198.5073Q44.6125 198.5073 43.89375 197.61667Q43.05 196.55417 43.05 194.1323ZM44.128124 194.1323Q44.128124 196.24167 44.628124 196.9448Q45.128124 197.64792 45.846874 197.64792Q46.58125 197.64792 47.065624 196.9448Q47.565624 196.24167 47.565624 194.1323Q47.565624 192.0073 47.065624 191.3198Q46.58125 190.61667 45.83125 190.61667Q45.1125 190.61667 44.675 191.22604Q44.128124 192.0073 44.128124 194.1323ZM50.05 194.1323Q50.05 192.60104 50.3625 191.67917Q50.675 190.74167 51.284374 190.24167Q51.909374 189.74167 52.846874 189.74167Q53.534374 189.74167 54.05 190.02292Q54.58125 190.30417 54.925 190.83542Q55.26875 191.35104 55.45625 192.10104Q55.64375 192.85104 55.64375 194.1323Q55.64375 195.64792 55.33125 196.5698Q55.034374 197.49167 54.409374 198.0073Q53.8 198.5073 52.846874 198.5073Q51.6125 198.5073 50.89375 197.61667Q50.05 196.55417 50.05 194.1323ZM51.128124 194.1323Q51.128124 196.24167 51.628124 196.9448Q52.128124 197.64792 52.846874 197.64792Q53.58125 197.64792 54.065624 196.9448Q54.565624 196.24167 54.565624 194.1323Q54.565624 192.0073 54.065624 191.3198Q53.58125 190.61667 52.83125 190.61667Q52.1125 190.61667 51.675 191.22604Q51.128124 192.0073 51.128124 194.1323Z" fill-rule="nonzero"/><path fill="#000000" d="M24.51875 138.84062L23.471874 138.91875Q23.33125 138.29375 23.08125 138.0125Q22.64375 137.55937 22.01875 137.55937Q21.51875 137.55937 21.128124 137.84062Q20.64375 138.21562 20.346874 138.91875Q20.065624 139.60625 20.05 140.8875Q20.425 140.30937 20.971874 140.02812Q21.534374 139.74687 22.14375 139.74687Q23.190624 139.74687 23.925 140.52812Q24.675 141.30937 24.675 142.52812Q24.675 143.34062 24.315624 144.04375Q23.971874 144.73125 23.3625 145.10625Q22.753124 145.46562 21.9875 145.46562Q20.659374 145.46562 19.83125 144.49687Q19.003124 143.52812 19.003124 141.30937Q19.003124 138.80937 19.925 137.68437Q20.721874 136.7 22.08125 136.7Q23.096874 136.7 23.7375 137.27812Q24.39375 137.84062 24.51875 138.84062ZM20.221874 142.54375Q20.221874 143.09062 20.440624 143.59062Q20.675 144.075 21.08125 144.34062Q21.503124 144.60625 21.971874 144.60625Q22.628124 144.60625 23.1125 144.075Q23.596874 143.52812 23.596874 142.60625Q23.596874 141.71562 23.1125 141.2Q22.64375 140.68437 21.925 140.68437Q21.20625 140.68437 20.70625 141.2Q20.221874 141.71562 20.221874 142.54375ZM26.05 141.09062Q26.05 139.55937 26.3625 138.6375Q26.675 137.7 27.284374 137.2Q27.909374 136.7 28.846874 136.7Q29.534374 136.7 30.05 136.98125Q30.58125 137.2625 30.925 137.79375Q31.26875 138.30937 31.45625 139.05937Q31.64375 139.80937 31.64375 141.09062Q31.64375 142.60625 31.33125 143.52812Q31.034374 144.45 30.409374 144.96562Q29.8 145.46562 28.846874 145.46562Q27.6125 145.46562 26.89375 144.575Q26.05 143.5125 26.05 141.09062ZM27.128124 141.09062Q27.128124 143.2 27.628124 143.90312Q28.128124 144.60625 28.846874 144.60625Q29.58125 144.60625 30.065624 143.90312Q30.565624 143.2 30.565624 141.09062Q30.565624 138.96562 30.065624 138.27812Q29.58125 137.575 28.83125 137.575Q28.1125 137.575 27.675 138.18437Q27.128124 138.96562 27.128124 141.09062ZM33.05 141.09062Q33.05 139.55937 33.3625 138.6375Q33.675 137.7 34.284374 137.2Q34.909374 136.7 35.846874 136.7Q36.534374 136.7 37.05 136.98125Q37.58125 137.2625 37.925 137.79375Q38.26875 138.30937 38.45625 139.05937Q38.64375 139.80937 38.64375 141.09062Q38.64375 142.60625 38.33125 143.52812Q38.034374 144.45 37.409374 144.96562Q36.8 145.46562 35.846874 145.46562Q34.6125 145.46562 33.89375 144.575Q33.05 143.5125 33.05 141.09062ZM34.128124 141.09062Q34.128124 143.2 34.628124 143.90312Q35.128124 144.60625 35.846874 144.60625Q36.58125 144.60625 37.065624 143.90312Q37.565624 143.2 37.565624 141.09062Q37.565624 138.96562 37.065624 138.27812Q36.58125 137.575 35.83125 137.575Q35.1125 137.575 34.675 138.18437Q34.128124 138.96562 34.128124 141.09062ZM40.64375 145.325L40.64375 144.12187L41.846874 144.12187L41.846874 145.325L40.64375 145.325ZM43.05 141.09062Q43.05 139.55937 43.3625 138.6375Q43.675 137.7 44.284374 137.2Q44.909374 136.7 45.846874 136.7Q46.534374 136.7 47.05 136.98125Q47.58125 137.2625 47.925 137.79375Q48.26875 138.30937 48.45625 139.05937Q48.64375 139.80937 48.64375 141.09062Q48.64375 142.60625 48.33125 143.52812Q48.034374 144.45 47.409374 144.96562Q46.8 145.46562 45.846874 145.46562Q44.6125 145.46562 43.89375 144.575Q43.05 143.5125 43.05 141.09062ZM44.128124 141.09062Q44.128124 143.2 44.628124 143.90312Q45.128124 144.60625 45.846874 144.60625Q46.58125 144.60625 47.065624 143.90312Q47.565624 143.2 47.565624 141.09062Q47.565624 138.96562 47.065624 138.27812Q46.58125 137.575 45.83125 137.575Q45.1125 137.575 44.675 138.18437Q44.128124 138.96562 44.128124 141.09062ZM50.05 141.09062Q50.05 139.55937 50.3625 138.6375Q50.675 137.7 51.284374 137.2Q51.909374 136.7 52.846874 136.7Q53.534374 136.7 54.05 136.98125Q54.58125 137.2625 54.925 137.79375Q55.26875 138.30937 55.45625 139.05937Q55.64375 139.80937 55.64375 141.09062Q55.64375 142.60625 55.33125 143.52812Q55.034374 144.45 54.409374 144.96562Q53.8 145.46562 52.846874 145.46562Q51.6125 145.46562 50.89375 144.575Q50.05 143.5125 50.05 141.09062ZM51.128124 141.09062Q51.128124 143.2 51.628124 143.90312Q52.128124 144.60625 52.846874 144.60625Q53.58125 144.60625 54.065624 143.90312Q54.565624 143.2 54.565624 141.09062Q54.565624 138.96562 54.065624 138.27812Q53.58125 137.575 52.83125 137.575Q52.1125 137.575 51.675 138.18437Q51.128124 138.96562 51.128124 141.09062Z" fill-rule="nonzero"/><path fill="#000000" d="M20.675 87.62708Q20.01875 87.37708 19.690624 86.93958Q19.378124 86.48646 19.378124 85.87708Q19.378124 84.93958 20.05 84.29896Q20.7375 83.65833 21.846874 83.65833Q22.971874 83.65833 23.659374 84.31458Q24.346874 84.97083 24.346874 85.90833Q24.346874 86.50208 24.034374 86.93958Q23.721874 87.37708 23.08125 87.62708Q23.878124 87.87708 24.284374 88.45521Q24.690624 89.03333 24.690624 89.83021Q24.690624 90.92396 23.909374 91.67396Q23.14375 92.42396 21.8625 92.42396Q20.596874 92.42396 19.815624 91.67396Q19.034374 90.92396 19.034374 89.79896Q19.034374 88.95521 19.45625 88.39271Q19.89375 87.83021 20.675 87.62708ZM20.45625 85.83021Q20.45625 86.43958 20.846874 86.83021Q21.253124 87.22083 21.878124 87.22083Q22.4875 87.22083 22.878124 86.84583Q23.26875 86.45521 23.26875 85.89271Q23.26875 85.31458 22.8625 84.92396Q22.45625 84.51771 21.8625 84.51771Q21.253124 84.51771 20.846874 84.90833Q20.45625 85.29896 20.45625 85.83021ZM20.128124 89.79896Q20.128124 90.25208 20.33125 90.67396Q20.55 91.09583 20.971874 91.33021Q21.39375 91.56458 21.878124 91.56458Q22.628124 91.56458 23.1125 91.08021Q23.6125 90.59583 23.6125 89.84583Q23.6125 89.08021 23.1125 88.58021Q22.6125 88.08021 21.846874 88.08021Q21.096874 88.08021 20.6125 88.58021Q20.128124 89.06458 20.128124 89.79896ZM26.05 88.04896Q26.05 86.51771 26.3625 85.59583Q26.675 84.65833 27.284374 84.15833Q27.909374 83.65833 28.846874 83.65833Q29.534374 83.65833 30.05 83.93958Q30.58125 84.22083 30.925 84.75208Q31.26875 85.26771 31.45625 86.01771Q31.64375 86.76771 31.64375 88.04896Q31.64375 89.56458 31.33125 90.48646Q31.034374 91.40833 30.409374 91.92396Q29.8 92.42396 28.846874 92.42396Q27.6125 92.42396 26.89375 91.53333Q26.05 90.47083 26.05 88.04896ZM27.128124 88.04896Q27.128124 90.15833 27.628124 90.86146Q28.128124 91.56458 28.846874 91.56458Q29.58125 91.56458 30.065624 90.86146Q30.565624 90.15833 30.565624 88.04896Q30.565624 85.92396 30.065624 85.23646Q29.58125 84.53333 28.83125 84.53333Q28.1125 84.53333 27.675 85.14271Q27.128124 85.92396 27.128124 88.04896ZM33.05 88.04896Q33.05 86.51771 33.3625 85.59583Q33.675 84.65833 34.284374 84.15833Q34.909374 83.65833 35.846874 83.65833Q36.534374 83.65833 37.05 83.93958Q37.58125 84.22083 37.925 84.75208Q38.26875 85.26771 38.45625 86.01771Q38.64375 86.76771 38.64375 88.04896Q38.64375 89.56458 38.33125 90.48646Q38.034374 91.40833 37.409374 91.92396Q36.8 92.42396 35.846874 92.42396Q34.6125 92.42396 33.89375 91.53333Q33.05 90.47083 33.05 88.04896ZM34.128124 88.04896Q34.128124 90.15833 34.628124 90.86146Q35.128124 91.56458 35.846874 91.56458Q36.58125 91.56458 37.065624 90.86146Q37.565624 90.15833 37.565624 88.04896Q37.565624 85.92396 37.065624 85.23646Q36.58125 84.53333 35.83125 84.53333Q35.1125 84.53333 34.675 85.14271Q34.128124 85.92396 34.128124 88.04896ZM40.64375 92.28333L40.64375 91.08021L41.846874 91.08021L41.846874 92.28333L40.64375 92.28333ZM43.05 88.04896Q43.05 86.51771 43.3625 85.59583Q43.675 84.65833 44.284374 84.15833Q44.909374 83.65833 45.846874 83.65833Q46.534374 83.65833 47.05 83.93958Q47.58125 84.22083 47.925 84.75208Q48.26875 85.26771 48.45625 86.01771Q48.64375 86.76771 48.64375 88.04896Q48.64375 89.56458 48.33125 90.48646Q48.034374 91.40833 47.409374 91.92396Q46.8 92.42396 45.846874 92.42396Q44.6125 92.42396 43.89375 91.53333Q43.05 90.47083 43.05 88.04896ZM44.128124 88.04896Q44.128124 90.15833 44.628124 90.86146Q45.128124 91.56458 45.846874 91.56458Q46.58125 91.56458 47.065624 90.86146Q47.565624 90.15833 47.565624 88.04896Q47.565624 85.92396 47.065624 85.23646Q46.58125 84.53333 45.83125 84.53333Q45.1125 84.53333 44.675 85.14271Q44.128124 85.92396 44.128124 88.04896ZM50.05 88.04896Q50.05 86.51771 50.3625 85.59583Q50.675 84.65833 51.284374 84.15833Q51.909374 83.65833 52.846874 83.65833Q53.534374 83.65833 54.05 83.93958Q54.58125 84.22083 54.925 84.75208Q55.26875 85.26771 55.45625 86.01771Q55.64375 86.76771 55.64375 88.04896Q55.64375 89.56458 55.33125 90.48646Q55.034374 91.40833 54.409374 91.92396Q53.8 92.42396 52.846874 92.42396Q51.6125 92.42396 50.89375 91.53333Q50.05 90.47083 50.05 88.04896ZM51.128124 88.04896Q51.128124 90.15833 51.628124 90.86146Q52.128124 91.56458 52.846874 91.56458Q53.58125 91.56458 54.065624 90.86146Q54.565624 90.15833 54.565624 88.04896Q54.565624 85.92396 54.065624 85.23646Q53.58125 84.53333 52.83125 84.53333Q52.1125 84.53333 51.675 85.14271Q51.128124 85.92396 51.128124 88.04896Z" fill-rule="nonzero"/><path fill="#000000" d="M139.22545 316.4344L139.22545 317.45L133.53795 317.45Q133.53795 317.075 133.66295 316.71564Q133.8817 316.1375 134.35045 315.575Q134.83482 315.0125 135.74107 314.27814Q137.14732 313.1219 137.6317 312.45Q138.1317 311.77814 138.1317 311.1844Q138.1317 310.5594 137.67857 310.1375Q137.22545 309.7 136.5067 309.7Q135.74107 309.7 135.28795 310.15314Q134.83482 310.60626 134.8192 311.41876L133.74107 311.3094Q133.85045 310.09064 134.5692 309.46564Q135.30357 308.825 136.53795 308.825Q137.77232 308.825 138.49107 309.5125Q139.20982 310.2 139.20982 311.21564Q139.20982 311.73126 138.99107 312.23126Q138.78795 312.71564 138.28795 313.27814Q137.80357 313.825 136.67857 314.77814Q135.72545 315.575 135.4442 315.8719Q135.17857 316.15314 135.0067 316.4344L139.22545 316.4344Z" fill-rule="nonzero"/><path fill="#000000" d="M285.3107 317.45L285.3107 315.3875L281.59195 315.3875L281.59195 314.41876L285.51382 308.85626L286.3732 308.85626L286.3732 314.41876L287.52945 314.41876L287.52945 315.3875L286.3732 315.3875L286.3732 317.45L285.3107 317.45ZM285.3107 314.41876L285.3107 310.5594L282.6232 314.41876L285.3107 314.41876Z" fill-rule="nonzero"/><path fill="#000000" d="M435.66162 310.96564L434.61475 311.04376Q434.47412 310.41876 434.22412 310.1375Q433.78662 309.6844 433.16162 309.6844Q432.66162 309.6844 432.271 309.96564Q431.78662 310.34064 431.48975 311.04376Q431.2085 311.73126 431.19287 313.0125Q431.56787 312.4344 432.11475 312.15314Q432.67725 311.8719 433.28662 311.8719Q434.3335 311.8719 435.06787 312.65314Q435.81787 313.4344 435.81787 314.65314Q435.81787 315.46564 435.4585 316.16876Q435.11475 316.85626 434.50537 317.23126Q433.896 317.59064 433.13037 317.59064Q431.80225 317.59064 430.97412 316.6219Q430.146 315.65314 430.146 313.4344Q430.146 310.9344 431.06787 309.8094Q431.86475 308.825 433.22412 308.825Q434.23975 308.825 434.88037 309.40314Q435.53662 309.96564 435.66162 310.96564ZM431.36475 314.66876Q431.36475 315.21564 431.5835 315.71564Q431.81787 316.2 432.22412 316.46564Q432.646 316.73126 433.11475 316.73126Q433.771 316.73126 434.25537 316.2Q434.73975 315.65314 434.73975 314.73126Q434.73975 313.84064 434.25537 313.325Q433.78662 312.8094 433.06787 312.8094Q432.34912 312.8094 431.84912 313.325Q431.36475 313.84064 431.36475 314.66876Z" fill-rule="nonzero"/><path fill="#000000" d="M580.075 312.79376Q579.41876 312.54376 579.09064 312.10626Q578.77814 311.65314 578.77814 311.04376Q578.77814 310.10626 579.45 309.46564Q580.1375 308.825 581.2469 308.825Q582.3719 308.825 583.0594 309.48126Q583.7469 310.1375 583.7469 311.075Q583.7469 311.66876 583.4344 312.10626Q583.1219 312.54376 582.48126 312.79376Q583.27814 313.04376 583.6844 313.6219Q584.09064 314.2 584.09064 314.9969Q584.09064 316.09064 583.3094 316.84064Q582.54376 317.59064 581.2625 317.59064Q579.9969 317.59064 579.21564 316.84064Q578.4344 316.09064 578.4344 314.96564Q578.4344 314.1219 578.85626 313.5594Q579.29376 312.9969 580.075 312.79376ZM579.85626 310.9969Q579.85626 311.60626 580.2469 311.9969Q580.65314 312.3875 581.27814 312.3875Q581.8875 312.3875 582.27814 312.0125Q582.66876 311.6219 582.66876 311.0594Q582.66876 310.48126 582.2625 310.09064Q581.85626 309.6844 581.2625 309.6844Q580.65314 309.6844 580.2469 310.075Q579.85626 310.46564 579.85626 310.9969ZM579.52814 314.96564Q579.52814 315.41876 579.73126 315.84064Q579.95 316.2625 580.3719 316.4969Q580.79376 316.73126 581.27814 316.73126Q582.02814 316.73126 582.5125 316.2469Q583.0125 315.7625 583.0125 315.0125Q583.0125 314.2469 582.5125 313.7469Q582.0125 313.2469 581.2469 313.2469Q580.4969 313.2469 580.0125 313.7469Q579.52814 314.23126 579.52814 314.96564Z" fill-rule="nonzero"/><path stroke="#4285f4" stroke-width="4.0" stroke-linecap="butt" d="M154.5 61.916668L166.5 61.916668" fill-rule="nonzero"/><path fill="#1a1a1a" d="M175.04688 63.15104L176.10938 63.05729Q176.1875 63.71354 176.46875 64.11979Q176.75 64.52604 177.32812 64.791664Q177.92188 65.041664 178.65625 65.041664Q179.29688 65.041664 179.79688 64.854164Q180.29688 64.65104 180.53125 64.322914Q180.78125 63.979164 180.78125 63.58854Q180.78125 63.18229 180.54688 62.885414Q180.3125 62.572914 179.78125 62.36979Q179.42188 62.229164 178.23438 61.947914Q177.0625 61.666664 176.59375 61.416664Q175.96875 61.08854 175.67188 60.61979Q175.375 60.135414 175.375 59.541664Q175.375 58.90104 175.73438 58.33854Q176.10938 57.760414 176.8125 57.479164Q177.53125 57.18229 178.39062 57.18229Q179.34375 57.18229 180.07812 57.49479Q180.8125 57.791664 181.20312 58.40104Q181.59375 58.99479 181.625 59.74479L180.53125 59.822914Q180.4375 59.010414 179.92188 58.604164Q179.42188 58.18229 178.4375 58.18229Q177.40625 58.18229 176.9375 58.55729Q176.46875 58.93229 176.46875 59.46354Q176.46875 59.93229 176.79688 60.229164Q177.125 60.52604 178.5 60.83854Q179.89062 61.15104 180.40625 61.385414Q181.15625 61.74479 181.51562 62.27604Q181.875 62.791664 181.875 63.49479Q181.875 64.18229 181.48438 64.791664Q181.09375 65.385414 180.35938 65.729164Q179.625 66.05729 178.70312 66.05729Q177.53125 66.05729 176.73438 65.729164Q175.95312 65.385414 175.5 64.697914Q175.0625 64.010414 175.04688 63.15104ZM183.29688 68.30729L183.29688 59.697914L184.25 59.697914L184.25 60.49479Q184.59375 60.02604 185.01562 59.791664Q185.45312 59.55729 186.0625 59.55729Q186.85938 59.55729 187.46875 59.96354Q188.07812 60.36979 188.375 61.11979Q188.6875 61.86979 188.6875 62.760414Q188.6875 63.71354 188.34375 64.479164Q188.01562 65.24479 187.35938 65.65104Q186.70312 66.05729 185.98438 66.05729Q185.45312 66.05729 185.03125 65.83854Q184.60938 65.604164 184.34375 65.27604L184.34375 68.30729L183.29688 68.30729ZM184.25 62.83854Q184.25 64.041664 184.73438 64.61979Q185.21875 65.18229 185.90625 65.18229Q186.60938 65.18229 187.10938 64.58854Q187.60938 63.99479 187.60938 62.74479Q187.60938 61.55729 187.125 60.979164Q186.64062 60.385414 185.95312 60.385414Q185.28125 60.385414 184.76562 61.010414Q184.25 61.635414 184.25 62.83854ZM194.35938 65.15104Q193.76562 65.65104 193.21875 65.854164Q192.6875 66.05729 192.0625 66.05729Q191.03125 66.05729 190.48438 65.55729Q189.9375 65.05729 189.9375 64.27604Q189.9375 63.822914 190.14062 63.447914Q190.34375 63.05729 190.6875 62.83854Q191.03125 62.604164 191.45312 62.49479Q191.75 62.40104 192.39062 62.322914Q193.65625 62.18229 194.26562 61.96354Q194.26562 61.74479 194.26562 61.697914Q194.26562 61.041664 193.96875 60.77604Q193.5625 60.43229 192.76562 60.43229Q192.03125 60.43229 191.67188 60.697914Q191.3125 60.947914 191.14062 61.604164L190.10938 61.46354Q190.25 60.80729 190.57812 60.40104Q190.90625 59.99479 191.51562 59.77604Q192.125 59.55729 192.92188 59.55729Q193.71875 59.55729 194.21875 59.74479Q194.71875 59.93229 194.95312 60.21354Q195.1875 60.49479 195.28125 60.93229Q195.32812 61.197914 195.32812 61.90104L195.32812 63.30729Q195.32812 64.77604 195.39062 65.166664Q195.46875 65.55729 195.67188 65.916664L194.5625 65.916664Q194.40625 65.58854 194.35938 65.15104ZM194.26562 62.791664Q193.6875 63.02604 192.54688 63.197914Q191.89062 63.291664 191.625 63.416664Q191.35938 63.52604 191.20312 63.74479Q191.0625 63.96354 191.0625 64.24479Q191.0625 64.666664 191.375 64.947914Q191.70312 65.229164 192.3125 65.229164Q192.92188 65.229164 193.39062 64.96354Q193.875 64.697914 194.09375 64.229164Q194.26562 63.86979 194.26562 63.18229L194.26562 62.791664ZM197.28125 65.916664L197.28125 59.697914L198.23438 59.697914L198.23438 60.635414Q198.59375 59.979164 198.89062 59.77604Q199.20312 59.55729 199.57812 59.55729Q200.10938 59.55729 200.65625 59.885414L200.29688 60.86979Q199.90625 60.635414 199.53125 60.635414Q199.17188 60.635414 198.89062 60.854164Q198.625 61.05729 198.51562 61.43229Q198.32812 61.99479 198.32812 62.65104L198.32812 65.916664L197.28125 65.916664ZM201.29688 65.916664L201.29688 57.322914L202.35938 57.322914L202.35938 62.229164L204.84375 59.697914L206.21875 59.697914L203.82812 61.99479L206.45312 65.916664L205.15625 65.916664L203.09375 62.729164L202.35938 63.447914L202.35938 65.916664L201.29688 65.916664Z" fill-rule="nonzero"/><path stroke="#ea4335" stroke-width="4.0" stroke-linecap="butt" d="M222.5 61.916668L234.5 61.916668" fill-rule="nonzero"/><path fill="#1a1a1a" d="M247.45312 62.541664L247.45312 61.541664L251.07812 61.52604L251.07812 64.71354Q250.25 65.385414 249.35938 65.729164Q248.46875 66.05729 247.53125 66.05729Q246.26562 66.05729 245.21875 65.52604Q244.1875 64.979164 243.65625 63.96354Q243.14062 62.93229 243.14062 61.666664Q243.14062 60.40104 243.65625 59.322914Q244.1875 58.229164 245.17188 57.71354Q246.15625 57.18229 247.4375 57.18229Q248.375 57.18229 249.125 57.479164Q249.875 57.77604 250.29688 58.322914Q250.73438 58.854164 250.95312 59.729164L249.9375 60.010414Q249.73438 59.354164 249.4375 58.979164Q249.15625 58.604164 248.625 58.385414Q248.09375 58.15104 247.45312 58.15104Q246.67188 58.15104 246.09375 58.385414Q245.53125 58.61979 245.17188 59.010414Q244.82812 59.40104 244.64062 59.86979Q244.3125 60.666664 244.3125 61.58854Q244.3125 62.74479 244.70312 63.52604Q245.10938 64.291664 245.85938 64.666664Q246.60938 65.041664 247.46875 65.041664Q248.20312 65.041664 248.90625 64.760414Q249.60938 64.46354 249.96875 64.15104L249.96875 62.541664L247.45312 62.541664ZM251.90625 62.80729Q251.90625 61.072914 252.85938 60.24479Q253.65625 59.55729 254.8125 59.55729Q256.09375 59.55729 256.90625 60.40104Q257.73438 61.229164 257.73438 62.71354Q257.73438 63.916664 257.375 64.604164Q257.01562 65.291664 256.3125 65.68229Q255.625 66.05729 254.8125 66.05729Q253.51562 66.05729 252.70312 65.229164Q251.90625 64.385414 251.90625 62.80729ZM252.98438 62.80729Q252.98438 63.99479 253.5 64.58854Q254.03125 65.18229 254.8125 65.18229Q255.60938 65.18229 256.125 64.58854Q256.64062 63.99479 256.64062 62.77604Q256.64062 61.61979 256.10938 61.02604Q255.59375 60.43229 254.8125 60.43229Q254.03125 60.43229 253.5 61.02604Q252.98438 61.604164 252.98438 62.80729ZM259.39062 65.916664L259.39062 57.322914L261.10938 57.322914L263.14062 63.40104Q263.42188 64.260414 263.54688 64.68229Q263.6875 64.21354 264.0 63.30729L266.0625 57.322914L267.59375 57.322914L267.59375 65.916664L266.5 65.916664L266.5 58.729164L264.0 65.916664L262.96875 65.916664L260.48438 58.604164L260.48438 65.916664L259.39062 65.916664ZM269.4375 65.916664L269.4375 57.322914L273.25 57.322914Q274.40625 57.322914 275.0 57.55729Q275.59375 57.791664 275.95312 58.385414Q276.3125 58.96354 276.3125 59.666664Q276.3125 60.58854 275.71875 61.21354Q275.125 61.83854 273.89062 62.010414Q274.34375 62.229164 274.57812 62.43229Q275.07812 62.885414 275.51562 63.572914L277.01562 65.916664L275.57812 65.916664L274.45312 64.135414Q273.95312 63.354164 273.625 62.947914Q273.3125 62.541664 273.04688 62.385414Q272.79688 62.21354 272.53125 62.135414Q272.34375 62.104164 271.90625 62.104164L270.57812 62.104164L270.57812 65.916664L269.4375 65.916664ZM270.57812 61.11979L273.03125 61.11979Q273.79688 61.11979 274.23438 60.96354Q274.6875 60.791664 274.90625 60.447914Q275.14062 60.08854 275.14062 59.666664Q275.14062 59.05729 274.6875 58.666664Q274.25 58.27604 273.29688 58.27604L270.57812 58.27604L270.57812 61.11979ZM281.39062 65.916664L281.39062 57.322914L283.10938 57.322914L285.14062 63.40104Q285.42188 64.260414 285.54688 64.68229Q285.6875 64.21354 286.0 63.30729L288.0625 57.322914L289.59375 57.322914L289.59375 65.916664L288.5 65.916664L288.5 58.729164L286.0 65.916664L284.96875 65.916664L282.48438 58.604164L282.48438 65.916664L281.39062 65.916664ZM295.375 65.916664L295.375 64.99479Q294.64062 66.05729 293.39062 66.05729Q292.84375 66.05729 292.35938 65.854164Q291.89062 65.635414 291.65625 65.322914Q291.42188 64.99479 291.32812 64.52604Q291.26562 64.229164 291.26562 63.541664L291.26562 59.697914L292.32812 59.697914L292.32812 63.15104Q292.32812 63.96354 292.39062 64.260414Q292.48438 64.666664 292.79688 64.916664Q293.125 65.15104 293.60938 65.15104Q294.07812 65.15104 294.48438 64.916664Q294.90625 64.666664 295.07812 64.24479Q295.26562 63.822914 295.26562 63.02604L295.26562 59.697914L296.3125 59.697914L296.3125 65.916664L295.375 65.916664ZM298.26562 65.916664L298.26562 57.322914L299.32812 57.322914L299.32812 65.916664L298.26562 65.916664ZM303.59375 64.979164L303.75 65.90104Q303.29688 65.99479 302.95312 65.99479Q302.375 65.99479 302.0625 65.822914Q301.75 65.635414 301.60938 65.33854Q301.48438 65.041664 301.48438 64.08854L301.48438 60.510414L300.71875 60.510414L300.71875 59.697914L301.48438 59.697914L301.48438 58.15104L302.53125 57.52604L302.53125 59.697914L303.59375 59.697914L303.59375 60.510414L302.53125 60.510414L302.53125 64.15104Q302.53125 64.604164 302.57812 64.729164Q302.64062 64.854164 302.76562 64.93229Q302.89062 65.010414 303.125 65.010414Q303.3125 65.010414 303.59375 64.979164ZM304.29688 58.541664L304.29688 57.322914L305.35938 57.322914L305.35938 58.541664L304.29688 58.541664ZM304.29688 65.916664L304.29688 59.697914L305.35938 59.697914L305.35938 65.916664L304.29688 65.916664ZM307.29688 68.30729L307.29688 59.697914L308.25 59.697914L308.25 60.49479Q308.59375 60.02604 309.01562 59.791664Q309.45312 59.55729 310.0625 59.55729Q310.85938 59.55729 311.46875 59.96354Q312.07812 60.36979 312.375 61.11979Q312.6875 61.86979 312.6875 62.760414Q312.6875 63.71354 312.34375 64.479164Q312.01562 65.24479 311.35938 65.65104Q310.70312 66.05729 309.98438 66.05729Q309.45312 66.05729 309.03125 65.83854Q308.60938 65.604164 308.34375 65.27604L308.34375 68.30729L307.29688 68.30729ZM308.25 62.83854Q308.25 64.041664 308.73438 64.61979Q309.21875 65.18229 309.90625 65.18229Q310.60938 65.18229 311.10938 64.58854Q311.60938 63.99479 311.60938 62.74479Q311.60938 61.55729 311.125 60.979164Q310.64062 60.385414 309.95312 60.385414Q309.28125 60.385414 308.76562 61.010414Q308.25 61.635414 308.25 62.83854ZM314.26562 65.916664L314.26562 57.322914L315.32812 57.322914L315.32812 65.916664L314.26562 65.916664ZM321.54688 63.916664L322.64062 64.041664Q322.39062 64.99479 321.6875 65.52604Q320.98438 66.05729 319.90625 66.05729Q318.54688 66.05729 317.73438 65.21354Q316.9375 64.36979 316.9375 62.854164Q316.9375 61.291664 317.75 60.43229Q318.5625 59.55729 319.84375 59.55729Q321.09375 59.55729 321.875 60.40104Q322.67188 61.24479 322.67188 62.791664Q322.67188 62.885414 322.67188 63.072914L318.03125 63.072914Q318.09375 64.104164 318.60938 64.65104Q319.125 65.18229 319.90625 65.18229Q320.48438 65.18229 320.89062 64.885414Q321.3125 64.572914 321.54688 63.916664ZM318.09375 62.21354L321.5625 62.21354Q321.5 61.416664 321.17188 61.02604Q320.65625 60.416664 319.85938 60.416664Q319.125 60.416664 318.625 60.90104Q318.14062 61.385414 318.09375 62.21354ZM323.59375 65.916664L325.85938 62.68229L323.76562 59.697914L325.07812 59.697914L326.03125 61.15104Q326.29688 61.572914 326.46875 61.854164Q326.71875 61.46354 326.9375 61.166664L327.98438 59.697914L329.25 59.697914L327.09375 62.61979L329.40625 65.916664L328.125 65.916664L326.84375 63.979164L326.5 63.46354L324.85938 65.916664L323.59375 65.916664Z" fill-rule="nonzero"/><path stroke="#fbbc04" stroke-width="4.0" stroke-linecap="butt" d="M345.5 61.916668L357.5 61.916668" fill-rule="nonzero"/><path fill="#1a1a1a" d="M370.45312 62.541664L370.45312 61.541664L374.07812 61.52604L374.07812 64.71354Q373.25 65.385414 372.35938 65.729164Q371.46875 66.05729 370.53125 66.05729Q369.26562 66.05729 368.21875 65.52604Q367.1875 64.979164 366.65625 63.96354Q366.14062 62.93229 366.14062 61.666664Q366.14062 60.40104 366.65625 59.322914Q367.1875 58.229164 368.17188 57.71354Q369.15625 57.18229 370.4375 57.18229Q371.375 57.18229 372.125 57.479164Q372.875 57.77604 373.29688 58.322914Q373.73438 58.854164 373.95312 59.729164L372.9375 60.010414Q372.73438 59.354164 372.4375 58.979164Q372.15625 58.604164 371.625 58.385414Q371.09375 58.15104 370.45312 58.15104Q369.67188 58.15104 369.09375 58.385414Q368.53125 58.61979 368.17188 59.010414Q367.82812 59.40104 367.64062 59.86979Q367.3125 60.666664 367.3125 61.58854Q367.3125 62.74479 367.70312 63.52604Q368.10938 64.291664 368.85938 64.666664Q369.60938 65.041664 370.46875 65.041664Q371.20312 65.041664 371.90625 64.760414Q372.60938 64.46354 372.96875 64.15104L372.96875 62.541664L370.45312 62.541664ZM374.90625 62.80729Q374.90625 61.072914 375.85938 60.24479Q376.65625 59.55729 377.8125 59.55729Q379.09375 59.55729 379.90625 60.40104Q380.73438 61.229164 380.73438 62.71354Q380.73438 63.916664 380.375 64.604164Q380.01562 65.291664 379.3125 65.68229Q378.625 66.05729 377.8125 66.05729Q376.51562 66.05729 375.70312 65.229164Q374.90625 64.385414 374.90625 62.80729ZM375.98438 62.80729Q375.98438 63.99479 376.5 64.58854Q377.03125 65.18229 377.8125 65.18229Q378.60938 65.18229 379.125 64.58854Q379.64062 63.99479 379.64062 62.77604Q379.64062 61.61979 379.10938 61.02604Q378.59375 60.43229 377.8125 60.43229Q377.03125 60.43229 376.5 61.02604Q375.98438 61.604164 375.98438 62.80729ZM382.39062 65.916664L382.39062 57.322914L384.10938 57.322914L386.14062 63.40104Q386.42188 64.260414 386.54688 64.68229Q386.6875 64.21354 387.0 63.30729L389.0625 57.322914L390.59375 57.322914L390.59375 65.916664L389.5 65.916664L389.5 58.729164L387.0 65.916664L385.96875 65.916664L383.48438 58.604164L383.48438 65.916664L382.39062 65.916664ZM392.4375 65.916664L392.4375 57.322914L396.25 57.322914Q397.40625 57.322914 398.0 57.55729Q398.59375 57.791664 398.95312 58.385414Q399.3125 58.96354 399.3125 59.666664Q399.3125 60.58854 398.71875 61.21354Q398.125 61.83854 396.89062 62.010414Q397.34375 62.229164 397.57812 62.43229Q398.07812 62.885414 398.51562 63.572914L400.01562 65.916664L398.57812 65.916664L397.45312 64.135414Q396.95312 63.354164 396.625 62.947914Q396.3125 62.541664 396.04688 62.385414Q395.79688 62.21354 395.53125 62.135414Q395.34375 62.104164 394.90625 62.104164L393.57812 62.104164L393.57812 65.916664L392.4375 65.916664ZM393.57812 61.11979L396.03125 61.11979Q396.79688 61.11979 397.23438 60.96354Q397.6875 60.791664 397.90625 60.447914Q398.14062 60.08854 398.14062 59.666664Q398.14062 59.05729 397.6875 58.666664Q397.25 58.27604 396.29688 58.27604L393.57812 58.27604L393.57812 61.11979ZM404.42188 65.916664L404.42188 57.322914L407.67188 57.322914Q408.51562 57.322914 408.96875 57.40104Q409.60938 57.510414 410.03125 57.80729Q410.46875 58.104164 410.71875 58.635414Q410.98438 59.166664 410.98438 59.80729Q410.98438 60.90104 410.28125 61.666664Q409.59375 62.416664 407.76562 62.416664L405.5625 62.416664L405.5625 65.916664L404.42188 65.916664ZM405.5625 61.416664L407.78125 61.416664Q408.89062 61.416664 409.34375 61.010414Q409.8125 60.58854 409.8125 59.83854Q409.8125 59.30729 409.53125 58.93229Q409.26562 58.541664 408.82812 58.416664Q408.53125 58.33854 407.76562 58.33854L405.5625 58.33854L405.5625 61.416664ZM416.35938 65.15104Q415.76562 65.65104 415.21875 65.854164Q414.6875 66.05729 414.0625 66.05729Q413.03125 66.05729 412.48438 65.55729Q411.9375 65.05729 411.9375 64.27604Q411.9375 63.822914 412.14062 63.447914Q412.34375 63.05729 412.6875 62.83854Q413.03125 62.604164 413.45312 62.49479Q413.75 62.40104 414.39062 62.322914Q415.65625 62.18229 416.26562 61.96354Q416.26562 61.74479 416.26562 61.697914Q416.26562 61.041664 415.96875 60.77604Q415.5625 60.43229 414.76562 60.43229Q414.03125 60.43229 413.67188 60.697914Q413.3125 60.947914 413.14062 61.604164L412.10938 61.46354Q412.25 60.80729 412.57812 60.40104Q412.90625 59.99479 413.51562 59.77604Q414.125 59.55729 414.92188 59.55729Q415.71875 59.55729 416.21875 59.74479Q416.71875 59.93229 416.95312 60.21354Q417.1875 60.49479 417.28125 60.93229Q417.32812 61.197914 417.32812 61.90104L417.32812 63.30729Q417.32812 64.77604 417.39062 65.166664Q417.46875 65.55729 417.67188 65.916664L416.5625 65.916664Q416.40625 65.58854 416.35938 65.15104ZM416.26562 62.791664Q415.6875 63.02604 414.54688 63.197914Q413.89062 63.291664 413.625 63.416664Q413.35938 63.52604 413.20312 63.74479Q413.0625 63.96354 413.0625 64.24479Q413.0625 64.666664 413.375 64.947914Q413.70312 65.229164 414.3125 65.229164Q414.92188 65.229164 415.39062 64.96354Q415.875 64.697914 416.09375 64.229164Q416.26562 63.86979 416.26562 63.18229L416.26562 62.791664ZM419.28125 65.916664L419.28125 59.697914L420.23438 59.697914L420.23438 60.635414Q420.59375 59.979164 420.89062 59.77604Q421.20312 59.55729 421.57812 59.55729Q422.10938 59.55729 422.65625 59.885414L422.29688 60.86979Q421.90625 60.635414 421.53125 60.635414Q421.17188 60.635414 420.89062 60.854164Q420.625 61.05729 420.51562 61.43229Q420.32812 61.99479 420.32812 62.65104L420.32812 65.916664L419.28125 65.916664ZM427.35938 65.15104Q426.76562 65.65104 426.21875 65.854164Q425.6875 66.05729 425.0625 66.05729Q424.03125 66.05729 423.48438 65.55729Q422.9375 65.05729 422.9375 64.27604Q422.9375 63.822914 423.14062 63.447914Q423.34375 63.05729 423.6875 62.83854Q424.03125 62.604164 424.45312 62.49479Q424.75 62.40104 425.39062 62.322914Q426.65625 62.18229 427.26562 61.96354Q427.26562 61.74479 427.26562 61.697914Q427.26562 61.041664 426.96875 60.77604Q426.5625 60.43229 425.76562 60.43229Q425.03125 60.43229 424.67188 60.697914Q424.3125 60.947914 424.14062 61.604164L423.10938 61.46354Q423.25 60.80729 423.57812 60.40104Q423.90625 59.99479 424.51562 59.77604Q425.125 59.55729 425.92188 59.55729Q426.71875 59.55729 427.21875 59.74479Q427.71875 59.93229 427.95312 60.21354Q428.1875 60.49479 428.28125 60.93229Q428.32812 61.197914 428.32812 61.90104L428.32812 63.30729Q428.32812 64.77604 428.39062 65.166664Q428.46875 65.55729 428.67188 65.916664L427.5625 65.916664Q427.40625 65.58854 427.35938 65.15104ZM427.26562 62.791664Q426.6875 63.02604 425.54688 63.197914Q424.89062 63.291664 424.625 63.416664Q424.35938 63.52604 424.20312 63.74479Q424.0625 63.96354 424.0625 64.24479Q424.0625 64.666664 424.375 64.947914Q424.70312 65.229164 425.3125 65.229164Q425.92188 65.229164 426.39062 64.96354Q426.875 64.697914 427.09375 64.229164Q427.26562 63.86979 427.26562 63.18229L427.26562 62.791664ZM430.26562 65.916664L430.26562 57.322914L431.32812 57.322914L431.32812 65.916664L430.26562 65.916664ZM433.26562 65.916664L433.26562 57.322914L434.32812 57.322914L434.32812 65.916664L433.26562 65.916664ZM440.54688 63.916664L441.64062 64.041664Q441.39062 64.99479 440.6875 65.52604Q439.98438 66.05729 438.90625 66.05729Q437.54688 66.05729 436.73438 65.21354Q435.9375 64.36979 435.9375 62.854164Q435.9375 61.291664 436.75 60.43229Q437.5625 59.55729 438.84375 59.55729Q440.09375 59.55729 440.875 60.40104Q441.67188 61.24479 441.67188 62.791664Q441.67188 62.885414 441.67188 63.072914L437.03125 63.072914Q437.09375 64.104164 437.60938 64.65104Q438.125 65.18229 438.90625 65.18229Q439.48438 65.18229 439.89062 64.885414Q440.3125 64.572914 440.54688 63.916664ZM437.09375 62.21354L440.5625 62.21354Q440.5 61.416664 440.17188 61.02604Q439.65625 60.416664 438.85938 60.416664Q438.125 60.416664 437.625 60.90104Q437.14062 61.385414 437.09375 62.21354ZM443.26562 65.916664L443.26562 57.322914L444.32812 57.322914L444.32812 65.916664L443.26562 65.916664Z" fill-rule="nonzero"/><path fill="#757575" d="M20.034374 37.55L20.034374 23.2375L22.89375 23.2375L26.26875 33.3625Q26.7375 34.784374 26.95625 35.4875Q27.20625 34.70625 27.721874 33.190624L31.14375 23.2375L33.690624 23.2375L33.690624 37.55L31.878124 37.55L31.878124 25.565624L27.70625 37.55L26.003124 37.55L21.8625 25.3625L21.8625 37.55L20.034374 37.55ZM37.128124 37.55L37.128124 23.2375L43.471874 23.2375Q45.378124 23.2375 46.378124 23.628124Q47.378124 24.003124 47.971874 24.9875Q48.565624 25.95625 48.565624 27.14375Q48.565624 28.659374 47.58125 29.70625Q46.596874 30.753124 44.534374 31.034374Q45.284374 31.39375 45.675 31.753124Q46.503124 32.503124 47.253124 33.659374L49.7375 37.55L47.3625 37.55L45.45625 34.565624Q44.628124 33.284374 44.096874 32.596874Q43.565624 31.909374 43.128124 31.64375Q42.70625 31.3625 42.26875 31.253124Q41.940624 31.190624 41.221874 31.190624L39.01875 31.190624L39.01875 37.55L37.128124 37.55ZM39.01875 29.55L43.096874 29.55Q44.39375 29.55 45.1125 29.284374Q45.846874 29.01875 46.221874 28.425Q46.6125 27.83125 46.6125 27.14375Q46.6125 26.128124 45.878124 25.471874Q45.14375 24.815624 43.55 24.815624L39.01875 24.815624L39.01875 29.55ZM57.096874 37.55L57.096874 23.2375L62.4875 23.2375Q63.925 23.2375 64.675 23.3625Q65.72188 23.55 66.44063 24.05Q67.15938 24.534374 67.58125 25.425Q68.01875 26.315624 68.01875 27.378124Q68.01875 29.20625 66.84688 30.471874Q65.69063 31.721874 62.659374 31.721874L58.9875 31.721874L58.9875 37.55L57.096874 37.55ZM58.9875 30.034374L62.690624 30.034374Q64.51875 30.034374 65.28438 29.3625Q66.06563 28.675 66.06563 27.425Q66.06563 26.534374 65.6125 25.89375Q65.15938 25.253124 64.425 25.05Q63.940624 24.925 62.64375 24.925L58.9875 24.925L58.9875 30.034374ZM76.97188 34.20625L78.78438 34.440624Q78.3625 36.01875 77.19063 36.909374Q76.03438 37.784374 74.22188 37.784374Q71.95625 37.784374 70.6125 36.39375Q69.28438 34.9875 69.28438 32.45625Q69.28438 29.83125 70.62813 28.39375Q71.97188 26.940624 74.12813 26.940624Q76.20625 26.940624 77.51875 28.3625Q78.84688 29.76875 78.84688 32.346874Q78.84688 32.503124 78.83125 32.815624L71.09688 32.815624Q71.19063 34.51875 72.06563 35.425Q72.94063 36.33125 74.2375 36.33125Q75.20625 36.33125 75.87813 35.83125Q76.56563 35.315624 76.97188 34.20625ZM71.19063 31.3625L76.9875 31.3625Q76.87813 30.065624 76.33125 29.409374Q75.4875 28.39375 74.14375 28.39375Q72.94063 28.39375 72.1125 29.20625Q71.28438 30.003124 71.19063 31.3625ZM80.84688 37.55L80.84688 27.175L82.425 27.175L82.425 28.753124Q83.03438 27.64375 83.55 27.3Q84.06563 26.940624 84.675 26.940624Q85.56563 26.940624 86.4875 27.503124L85.87813 29.14375Q85.2375 28.753124 84.59688 28.753124Q84.01875 28.753124 83.55 29.1125Q83.09688 29.45625 82.89375 30.065624Q82.6125 31.003124 82.6125 32.1125L82.6125 37.55L80.84688 37.55ZM88.28438 37.55L88.28438 28.55L86.7375 28.55L86.7375 27.175L88.28438 27.175L88.28438 26.08125Q88.28438 25.034374 88.47188 24.51875Q88.72188 23.83125 89.3625 23.409374Q90.00313 22.9875 91.15938 22.9875Q91.90938 22.9875 92.8 23.159374L92.53438 24.690624Q91.9875 24.596874 91.50313 24.596874Q90.70625 24.596874 90.3625 24.940624Q90.03438 25.284374 90.03438 26.221874L90.03438 27.175L92.06563 27.175L92.06563 28.55L90.03438 28.55L90.03438 37.55L88.28438 37.55ZM93.22188 32.3625Q93.22188 29.4875 94.81563 28.096874Q96.15938 26.940624 98.08125 26.940624Q100.22188 26.940624 101.56563 28.346874Q102.925 29.753124 102.925 32.221874Q102.925 34.221874 102.33125 35.378124Q101.7375 36.51875 100.58125 37.159374Q99.44063 37.784374 98.08125 37.784374Q95.89375 37.784374 94.55 36.39375Q93.22188 34.9875 93.22188 32.3625ZM95.01875 32.3625Q95.01875 34.3625 95.87813 35.346874Q96.75313 36.33125 98.08125 36.33125Q99.39375 36.33125 100.25313 35.346874Q101.12813 34.346874 101.12813 32.3Q101.12813 30.378124 100.25313 29.39375Q99.37813 28.39375 98.08125 28.39375Q96.75313 28.39375 95.87813 29.39375Q95.01875 30.378124 95.01875 32.3625ZM104.84688 37.55L104.84688 27.175L106.425 27.175L106.425 28.753124Q107.03438 27.64375 107.55 27.3Q108.06563 26.940624 108.675 26.940624Q109.56563 26.940624 110.4875 27.503124L109.87813 29.14375Q109.2375 28.753124 108.59688 28.753124Q108.01875 28.753124 107.55 29.1125Q107.09688 29.45625 106.89375 30.065624Q106.6125 31.003124 106.6125 32.1125L106.6125 37.55L104.84688 37.55ZM111.8625 37.55L111.8625 27.175L113.44063 27.175L113.44063 28.628124Q113.925 27.878124 114.7375 27.409374Q115.55 26.940624 116.58125 26.940624Q117.7375 26.940624 118.47188 27.425Q119.20625 27.89375 119.51875 28.753124Q120.75313 26.940624 122.72188 26.940624Q124.26875 26.940624 125.09688 27.8Q125.925 28.659374 125.925 30.425L125.925 37.55L124.175 37.55L124.175 31.01875Q124.175 29.95625 124.00313 29.503124Q123.83125 29.034374 123.37813 28.753124Q122.94063 28.471874 122.33125 28.471874Q121.2375 28.471874 120.50313 29.20625Q119.78438 29.925 119.78438 31.51875L119.78438 37.55L118.03438 37.55L118.03438 30.815624Q118.03438 29.64375 117.59688 29.065624Q117.175 28.471874 116.19063 28.471874Q115.45625 28.471874 114.81563 28.8625Q114.19063 29.253124 113.90938 30.003124Q113.62813 30.753124 113.62813 32.175L113.62813 37.55L111.8625 37.55ZM135.64375 36.26875Q134.65938 37.096874 133.75313 37.440624Q132.84688 37.784374 131.81563 37.784374Q130.1125 37.784374 129.19063 36.95625Q128.26875 36.1125 128.26875 34.815624Q128.26875 34.05 128.6125 33.425Q128.97188 32.8 129.53438 32.425Q130.09688 32.034374 130.8 31.83125Q131.31563 31.70625 132.3625 31.565624Q134.4875 31.315624 135.4875 30.971874Q135.50313 30.6125 135.50313 30.503124Q135.50313 29.440624 135.00313 28.9875Q134.33125 28.39375 133.00313 28.39375Q131.75313 28.39375 131.15938 28.83125Q130.58125 29.26875 130.3 30.378124L128.58125 30.14375Q128.81563 29.034374 129.34688 28.3625Q129.87813 27.675 130.89375 27.315624Q131.90938 26.940624 133.25313 26.940624Q134.58125 26.940624 135.40938 27.253124Q136.2375 27.565624 136.62813 28.05Q137.01875 28.51875 137.175 29.2375Q137.26875 29.690624 137.26875 30.8625L137.26875 33.20625Q137.26875 35.659374 137.37813 36.315624Q137.4875 36.95625 137.83125 37.55L135.9875 37.55Q135.72188 37.003124 135.64375 36.26875ZM135.4875 32.346874Q134.53438 32.7375 132.6125 33.003124Q131.53438 33.159374 131.08125 33.3625Q130.64375 33.55 130.39375 33.925Q130.14375 34.3 130.14375 34.76875Q130.14375 35.471874 130.675 35.940624Q131.20625 36.409374 132.2375 36.409374Q133.25313 36.409374 134.03438 35.971874Q134.83125 35.51875 135.20625 34.753124Q135.4875 34.14375 135.4875 32.9875L135.4875 32.346874ZM139.8625 37.55L139.8625 27.175L141.45625 27.175L141.45625 28.659374Q142.59688 26.940624 144.75313 26.940624Q145.69063 26.940624 146.47188 27.284374Q147.26875 27.6125 147.65938 28.159374Q148.05 28.70625 148.20625 29.45625Q148.3 29.95625 148.3 31.175L148.3 37.55L146.53438 37.55L146.53438 31.2375Q146.53438 30.159374 146.33125 29.628124Q146.12813 29.096874 145.59688 28.784374Q145.08125 28.471874 144.37813 28.471874Q143.25313 28.471874 142.44063 29.190624Q141.62813 29.89375 141.62813 31.878124L141.62813 37.55L139.8625 37.55ZM157.64375 33.753124L159.3625 33.971874Q159.08125 35.76875 157.90938 36.784374Q156.75313 37.784374 155.05 37.784374Q152.925 37.784374 151.62813 36.39375Q150.33125 35.003124 150.33125 32.409374Q150.33125 30.721874 150.87813 29.471874Q151.44063 28.20625 152.58125 27.58125Q153.72188 26.940624 155.06563 26.940624Q156.75313 26.940624 157.81563 27.8Q158.89375 28.659374 159.20625 30.221874L157.4875 30.4875Q157.25313 29.440624 156.62813 28.925Q156.00313 28.39375 155.12813 28.39375Q153.8 28.39375 152.97188 29.346874Q152.14375 30.3 152.14375 32.346874Q152.14375 34.440624 152.94063 35.39375Q153.7375 36.33125 155.03438 36.33125Q156.06563 36.33125 156.75313 35.70625Q157.45625 35.065624 157.64375 33.753124ZM167.97188 34.20625L169.78438 34.440624Q169.3625 36.01875 168.19063 36.909374Q167.03438 37.784374 165.22188 37.784374Q162.95625 37.784374 161.6125 36.39375Q160.28438 34.9875 160.28438 32.45625Q160.28438 29.83125 161.62813 28.39375Q162.97188 26.940624 165.12813 26.940624Q167.20625 26.940624 168.51875 28.3625Q169.84688 29.76875 169.84688 32.346874Q169.84688 32.503124 169.83125 32.815624L162.09688 32.815624Q162.19063 34.51875 163.06563 35.425Q163.94063 36.33125 165.2375 36.33125Q166.20625 36.33125 166.87813 35.83125Q167.56563 35.315624 167.97188 34.20625ZM162.19063 31.3625L167.9875 31.3625Q167.87813 30.065624 167.33125 29.409374Q166.4875 28.39375 165.14375 28.39375Q163.94063 28.39375 163.1125 29.20625Q162.28438 30.003124 162.19063 31.3625ZM177.22188 32.3625Q177.22188 29.4875 178.81563 28.096874Q180.15938 26.940624 182.08125 26.940624Q184.22188 26.940624 185.56563 28.346874Q186.925 29.753124 186.925 32.221874Q186.925 34.221874 186.33125 35.378124Q185.7375 36.51875 184.58125 37.159374Q183.44063 37.784374 182.08125 37.784374Q179.89375 37.784374 178.55 36.39375Q177.22188 34.9875 177.22188 32.3625ZM179.01875 32.3625Q179.01875 34.3625 179.87813 35.346874Q180.75313 36.33125 182.08125 36.33125Q183.39375 36.33125 184.25313 35.346874Q185.12813 34.346874 185.12813 32.3Q185.12813 30.378124 184.25313 29.39375Q183.37813 28.39375 182.08125 28.39375Q180.75313 28.39375 179.87813 29.39375Q179.01875 30.378124 179.01875 32.3625ZM188.8625 37.55L188.8625 27.175L190.45625 27.175L190.45625 28.659374Q191.59688 26.940624 193.75313 26.940624Q194.69063 26.940624 195.47188 27.284374Q196.26875 27.6125 196.65938 28.159374Q197.05 28.70625 197.20625 29.45625Q197.3 29.95625 197.3 31.175L197.3 37.55L195.53438 37.55L195.53438 31.2375Q195.53438 30.159374 195.33125 29.628124Q195.12813 29.096874 194.59688 28.784374Q194.08125 28.471874 193.37813 28.471874Q192.25313 28.471874 191.44063 29.190624Q190.62813 29.89375 190.62813 31.878124L190.62813 37.55L188.8625 37.55ZM214.50313 26.7375L212.75313 26.878124Q212.51875 25.846874 212.09688 25.378124Q211.37813 24.6125 210.33125 24.6125Q209.4875 24.6125 208.8625 25.08125Q208.03438 25.690624 207.55 26.8625Q207.06563 28.01875 207.05 30.159374Q207.69063 29.20625 208.59688 28.7375Q209.51875 28.26875 210.53438 28.26875Q212.28438 28.26875 213.51875 29.565624Q214.75313 30.846874 214.75313 32.89375Q214.75313 34.253124 214.175 35.409374Q213.59688 36.565624 212.58125 37.190624Q211.56563 37.8 210.26875 37.8Q208.08125 37.8 206.69063 36.190624Q205.3 34.565624 205.3 30.846874Q205.3 26.70625 206.83125 24.815624Q208.175 23.175 210.44063 23.175Q212.12813 23.175 213.20625 24.128124Q214.28438 25.065624 214.50313 26.7375ZM207.33125 32.909374Q207.33125 33.815624 207.70625 34.64375Q208.09688 35.471874 208.78438 35.909374Q209.4875 36.346874 210.2375 36.346874Q211.3625 36.346874 212.15938 35.45625Q212.95625 34.55 212.95625 33.003124Q212.95625 31.51875 212.15938 30.675Q211.37813 29.815624 210.175 29.815624Q208.9875 29.815624 208.15938 30.675Q207.33125 31.51875 207.33125 32.909374ZM233.31563 32.534374L235.20625 33.003124Q234.6125 35.346874 233.06563 36.58125Q231.51875 37.8 229.26875 37.8Q226.95625 37.8 225.50313 36.8625Q224.06563 35.909374 223.3 34.128124Q222.55 32.33125 222.55 30.284374Q222.55 28.05 223.39375 26.39375Q224.25313 24.721874 225.83125 23.8625Q227.40938 22.9875 229.3 22.9875Q231.45625 22.9875 232.90938 24.08125Q234.37813 25.175 234.95625 27.159374L233.09688 27.596874Q232.59688 26.034374 231.64375 25.33125Q230.70625 24.6125 229.26875 24.6125Q227.6125 24.6125 226.50313 25.409374Q225.39375 26.190624 224.94063 27.534374Q224.50313 28.8625 224.50313 30.26875Q224.50313 32.096874 225.03438 33.471874Q225.56563 34.83125 226.69063 35.503124Q227.81563 36.175 229.1125 36.175Q230.70625 36.175 231.81563 35.253124Q232.925 34.33125 233.31563 32.534374ZM237.09688 37.55L237.09688 23.2375L242.4875 23.2375Q243.925 23.2375 244.675 23.3625Q245.72188 23.55 246.44063 24.05Q247.15938 24.534374 247.58125 25.425Q248.01875 26.315624 248.01875 27.378124Q248.01875 29.20625 246.84688 30.471874Q245.69063 31.721874 242.65938 31.721874L238.9875 31.721874L238.9875 37.55L237.09688 37.55ZM238.9875 30.034374L242.69063 30.034374Q244.51875 30.034374 245.28438 29.3625Q246.06563 28.675 246.06563 27.425Q246.06563 26.534374 245.6125 25.89375Q245.15938 25.253124 244.425 25.05Q243.94063 24.925 242.64375 24.925L238.9875 24.925L238.9875 30.034374ZM259.4875 23.2375L261.3781 23.2375L261.3781 31.503124Q261.3781 33.659374 260.89374 34.940624Q260.40936 36.20625 259.1281 37.003124Q257.8625 37.8 255.78438 37.8Q253.76875 37.8 252.4875 37.1125Q251.22188 36.409374 250.675 35.096874Q250.12813 33.784374 250.12813 31.503124L250.12813 23.2375L252.01875 23.2375L252.01875 31.4875Q252.01875 33.3625 252.3625 34.253124Q252.70625 35.128124 253.55 35.6125Q254.39375 36.08125 255.62813 36.08125Q257.70624 36.08125 258.59686 35.14375Q259.4875 34.190624 259.4875 31.4875L259.4875 23.2375ZM264.33124 37.55L264.33124 35.55L266.33124 35.55L266.33124 37.55Q266.33124 38.659374 265.9406 39.33125Q265.55 40.01875 264.70624 40.378124L264.20624 39.628124Q264.76874 39.39375 265.03436 38.909374Q265.3 38.440624 265.33124 37.55L264.33124 37.55ZM282.0031 37.55L280.2375 37.55L280.2375 26.346874Q279.6125 26.95625 278.58124 27.565624Q277.55 28.159374 276.72186 28.471874L276.72186 26.76875Q278.20624 26.08125 279.3 25.096874Q280.40936 24.096874 280.8625 23.175L282.0031 23.175L282.0031 37.55ZM295.5031 26.7375L293.7531 26.878124Q293.51874 25.846874 293.09686 25.378124Q292.3781 24.6125 291.33124 24.6125Q290.4875 24.6125 289.8625 25.08125Q289.03436 25.690624 288.55 26.8625Q288.0656 28.01875 288.05 30.159374Q288.6906 29.20625 289.59686 28.7375Q290.51874 28.26875 291.53436 28.26875Q293.28436 28.26875 294.51874 29.565624Q295.7531 30.846874 295.7531 32.89375Q295.7531 34.253124 295.175 35.409374Q294.59686 36.565624 293.58124 37.190624Q292.5656 37.8 291.26874 37.8Q289.08124 37.8 287.6906 36.190624Q286.3 34.565624 286.3 30.846874Q286.3 26.70625 287.83124 24.815624Q289.175 23.175 291.4406 23.175Q293.1281 23.175 294.20624 24.128124Q295.28436 25.065624 295.5031 26.7375ZM288.33124 32.909374Q288.33124 33.815624 288.70624 34.64375Q289.09686 35.471874 289.78436 35.909374Q290.4875 36.346874 291.2375 36.346874Q292.3625 36.346874 293.15936 35.45625Q293.95624 34.55 293.95624 33.003124Q293.95624 31.51875 293.15936 30.675Q292.3781 29.815624 291.175 29.815624Q289.9875 29.815624 289.15936 30.675Q288.33124 31.51875 288.33124 32.909374ZM310.8 31.940624L310.8 30.253124L316.8625 30.2375L316.8625 35.55Q315.45624 36.675 313.97186 37.2375Q312.4875 37.8 310.925 37.8Q308.8156 37.8 307.09686 36.89375Q305.3781 35.9875 304.4875 34.284374Q303.6125 32.565624 303.6125 30.45625Q303.6125 28.3625 304.4875 26.565624Q305.3625 24.753124 307.0031 23.878124Q308.64374 22.9875 310.78436 22.9875Q312.33124 22.9875 313.58124 23.4875Q314.84686 23.9875 315.55 24.89375Q316.26874 25.784374 316.64374 27.2375L314.9406 27.70625Q314.6125 26.6125 314.1281 25.9875Q313.65936 25.3625 312.76874 24.9875Q311.8781 24.6125 310.8 24.6125Q309.4875 24.6125 308.53436 25.003124Q307.59686 25.39375 307.01874 26.05Q306.4406 26.690624 306.1125 27.45625Q305.5656 28.784374 305.5656 30.346874Q305.5656 32.253124 306.22186 33.55Q306.89374 34.83125 308.14374 35.45625Q309.40936 36.08125 310.8156 36.08125Q312.05 36.08125 313.22186 35.6125Q314.39374 35.14375 315.0031 34.596874L315.0031 31.940624L310.8 31.940624ZM320.01874 37.55L320.01874 23.2375L325.39374 23.2375Q327.03436 23.2375 328.01874 23.675Q329.0031 24.096874 329.5656 25.003124Q330.1281 25.909374 330.1281 26.89375Q330.1281 27.815624 329.6281 28.628124Q329.14374 29.440624 328.1281 29.925Q329.425 30.315624 330.1281 31.2375Q330.83124 32.14375 330.83124 33.39375Q330.83124 34.409374 330.39374 35.26875Q329.97186 36.128124 329.34686 36.596874Q328.72186 37.065624 327.78436 37.315624Q326.84686 37.55 325.47186 37.55L320.01874 37.55ZM321.90936 29.253124L325.0031 29.253124Q326.26874 29.253124 326.8156 29.08125Q327.53436 28.8625 327.89374 28.378124Q328.26874 27.878124 328.26874 27.1125Q328.26874 26.409374 327.925 25.8625Q327.58124 25.315624 326.9406 25.128124Q326.3156 24.925 324.76874 24.925L321.90936 24.925L321.90936 29.253124ZM321.90936 35.8625L325.47186 35.8625Q326.39374 35.8625 326.76874 35.784374Q327.425 35.675 327.8625 35.409374Q328.3 35.128124 328.58124 34.6125Q328.8625 34.08125 328.8625 33.39375Q328.8625 32.596874 328.45624 32.003124Q328.05 31.409374 327.3156 31.175Q326.58124 30.940624 325.22186 30.940624L321.90936 30.940624L321.90936 35.8625ZM338.8625 37.55L338.8625 27.175L340.4406 27.175L340.4406 28.628124Q340.925 27.878124 341.7375 27.409374Q342.55 26.940624 343.58124 26.940624Q344.7375 26.940624 345.47186 27.425Q346.20624 27.89375 346.51874 28.753124Q347.7531 26.940624 349.72186 26.940624Q351.26874 26.940624 352.09686 27.8Q352.925 28.659374 352.925 30.425L352.925 37.55L351.175 37.55L351.175 31.01875Q351.175 29.95625 351.0031 29.503124Q350.83124 29.034374 350.3781 28.753124Q349.9406 28.471874 349.33124 28.471874Q348.2375 28.471874 347.5031 29.20625Q346.78436 29.925 346.78436 31.51875L346.78436 37.55L345.03436 37.55L345.03436 30.815624Q345.03436 29.64375 344.59686 29.065624Q344.175 28.471874 343.1906 28.471874Q342.45624 28.471874 341.8156 28.8625Q341.1906 29.253124 340.90936 30.003124Q340.6281 30.753124 340.6281 32.175L340.6281 37.55L338.8625 37.55ZM362.64374 36.26875Q361.65936 37.096874 360.7531 37.440624Q359.84686 37.784374 358.8156 37.784374Q357.1125 37.784374 356.1906 36.95625Q355.26874 36.1125 355.26874 34.815624Q355.26874 34.05 355.6125 33.425Q355.97186 32.8 356.53436 32.425Q357.09686 32.034374 357.8 31.83125Q358.3156 31.70625 359.3625 31.565624Q361.4875 31.315624 362.4875 30.971874Q362.5031 30.6125 362.5031 30.503124Q362.5031 29.440624 362.0031 28.9875Q361.33124 28.39375 360.0031 28.39375Q358.7531 28.39375 358.15936 28.83125Q357.58124 29.26875 357.3 30.378124L355.58124 30.14375Q355.8156 29.034374 356.34686 28.3625Q356.8781 27.675 357.89374 27.315624Q358.90936 26.940624 360.2531 26.940624Q361.58124 26.940624 362.40936 27.253124Q363.2375 27.565624 363.6281 28.05Q364.01874 28.51875 364.175 29.2375Q364.26874 29.690624 364.26874 30.8625L364.26874 33.20625Q364.26874 35.659374 364.3781 36.315624Q364.4875 36.95625 364.83124 37.55L362.9875 37.55Q362.72186 37.003124 362.64374 36.26875ZM362.4875 32.346874Q361.53436 32.7375 359.6125 33.003124Q358.53436 33.159374 358.08124 33.3625Q357.64374 33.55 357.39374 33.925Q357.14374 34.3 357.14374 34.76875Q357.14374 35.471874 357.675 35.940624Q358.20624 36.409374 359.2375 36.409374Q360.2531 36.409374 361.03436 35.971874Q361.83124 35.51875 362.20624 34.753124Q362.4875 34.14375 362.4875 32.9875L362.4875 32.346874ZM373.64374 33.753124L375.3625 33.971874Q375.08124 35.76875 373.90936 36.784374Q372.7531 37.784374 371.05 37.784374Q368.925 37.784374 367.6281 36.39375Q366.33124 35.003124 366.33124 32.409374Q366.33124 30.721874 366.8781 29.471874Q367.4406 28.20625 368.58124 27.58125Q369.72186 26.940624 371.0656 26.940624Q372.7531 26.940624 373.8156 27.8Q374.89374 28.659374 375.20624 30.221874L373.4875 30.4875Q373.2531 29.440624 372.6281 28.925Q372.0031 28.39375 371.1281 28.39375Q369.8 28.39375 368.97186 29.346874Q368.14374 30.3 368.14374 32.346874Q368.14374 34.440624 368.9406 35.39375Q369.7375 36.33125 371.03436 36.33125Q372.0656 36.33125 372.7531 35.70625Q373.45624 35.065624 373.64374 33.753124ZM376.8625 37.55L376.8625 23.2375L378.6281 23.2375L378.6281 28.3625Q379.8625 26.940624 381.7375 26.940624Q382.8781 26.940624 383.72186 27.39375Q384.58124 27.846874 384.9406 28.659374Q385.3156 29.45625 385.3156 30.971874L385.3156 37.55L383.5656 37.55L383.5656 30.971874Q383.5656 29.659374 382.9875 29.065624Q382.40936 28.45625 381.3781 28.45625Q380.59686 28.45625 379.89374 28.8625Q379.20624 29.26875 378.90936 29.971874Q378.6281 30.659374 378.6281 31.878124L378.6281 37.55L376.8625 37.55ZM387.8781 25.253124L387.8781 23.2375L389.64374 23.2375L389.64374 25.253124L387.8781 25.253124ZM387.8781 37.55L387.8781 27.175L389.64374 27.175L389.64374 37.55L387.8781 37.55ZM391.8625 37.55L391.8625 27.175L393.45624 27.175L393.45624 28.659374Q394.59686 26.940624 396.7531 26.940624Q397.6906 26.940624 398.47186 27.284374Q399.26874 27.6125 399.65936 28.159374Q400.05 28.70625 400.20624 29.45625Q400.3 29.95625 400.3 31.175L400.3 37.55L398.53436 37.55L398.53436 31.2375Q398.53436 30.159374 398.33124 29.628124Q398.1281 29.096874 397.59686 28.784374Q397.08124 28.471874 396.3781 28.471874Q395.2531 28.471874 394.4406 29.190624Q393.6281 29.89375 393.6281 31.878124L393.6281 37.55L391.8625 37.55ZM409.97186 34.20625L411.78436 34.440624Q411.3625 36.01875 410.1906 36.909374Q409.03436 37.784374 407.22186 37.784374Q404.95624 37.784374 403.6125 36.39375Q402.28436 34.9875 402.28436 32.45625Q402.28436 29.83125 403.6281 28.39375Q404.97186 26.940624 407.1281 26.940624Q409.20624 26.940624 410.51874 28.3625Q411.84686 29.76875 411.84686 32.346874Q411.84686 32.503124 411.83124 32.815624L404.09686 32.815624Q404.1906 34.51875 405.0656 35.425Q405.9406 36.33125 407.2375 36.33125Q408.20624 36.33125 408.8781 35.83125Q409.5656 35.315624 409.97186 34.20625ZM404.1906 31.3625L409.9875 31.3625Q409.8781 30.065624 409.33124 29.409374Q408.4875 28.39375 407.14374 28.39375Q405.9406 28.39375 405.1125 29.20625Q404.28436 30.003124 404.1906 31.3625Z" fill-rule="nonzero"/></svg>