<svg version="1.1" viewBox="0.0 0.0 600.0 371.0" fill="none" stroke="none" stroke-linecap="square" stroke-miterlimit="10" width="600" height="371" xmlns:xlink="http://www.w3.org/1999/xlink" xmlns="http://www.w3.org/2000/svg"><path fill="#ffffff" d="M0 0L600.0 0L600.0 371.0L0 371.0L0 0Z" fill-rule="nonzero"/><path stroke="#cccccc" stroke-width="1.0" stroke-linecap="butt" d="M168.5 88.5L168.5 300.5" fill-rule="nonzero"/><path stroke="#cccccc" stroke-width="1.0" stroke-linecap="butt" d="M243.5 88.5L243.5 300.5" fill-rule="nonzero"/><path stroke="#cccccc" stroke-width="1.0" stroke-linecap="butt" d="M318.5 88.5L318.5 300.5" fill-rule="nonzero"/><path stroke="#cccccc" stroke-width="1.0" stroke-linecap="butt" d="M394.5 88.5L394.5 300.5" fill-rule="nonzero"/><path stroke="#cccccc" stroke-width="1.0" stroke-linecap="butt" d="M469.5 88.5L469.5 300.5" fill-rule="nonzero"/><path stroke="#cccccc" stroke-width="1.0" stroke-linecap="butt" d="M544.5 88.5L544.5 300.5" fill-rule="nonzero"/><path stroke="#333333" stroke-width="1.0" stroke-linecap="butt" d="M101.5 300.5L581.5 300.5" fill-rule="nonzero"/><path stroke="#cccccc" stroke-width="1.0" stroke-linecap="butt" d="M101.5 247.5L581.5 247.5" fill-rule="nonzero"/><path stroke="#cccccc" stroke-width="1.0" stroke-linecap="butt" d="M101.5 194.5L581.5 194.5" fill-rule="nonzero"/><path stroke="#cccccc" stroke-width="1.0" stroke-linecap="butt" d="M101.5 141.5L581.5 141.5" fill-rule="nonzero"/><path stroke="#cccccc" stroke-width="1.0" stroke-linecap="butt" d="M101.5 88.5L581.5 88.5" fill-rule="nonzero"/><clipPath id="id_0"><path d="M101.55 88.28333L581.45 88.28333L581.45 300.45L101.55 300.45L101.55 88.28333Z" clip-rule="nonzero"/></clipPath><path stroke="#4285f4" stroke-width="2.0" stroke-linecap="butt" clip-path="url(#id_0)" d="M108.35158 121.36775L123.39341 207.15639L153.47708 250.23842L213.64441 272.05063L333.9791 281.57745L574.64844 284.27356" fill-rule="nonzero"/><path stroke="#ea4335" stroke-width="2.0" stroke-linecap="butt" clip-path="url(#id_0)" d="M108.35158 276.00977L123.39341 286.217L153.47708 292.90472L213.64441 296.08722L333.9791 297.0896L574.64844 298.31686" fill-rule="nonzero"/><path fill="#4285f4" clip-path="url(#id_0)" d="M112.85158 121.36775C112.85158 123.853035 110.83686 125.86775 108.35158 125.86775C105.866295 125.86775 103.85158 123.853035 103.85158 121.36775C103.85158 118.88248 105.866295 116.86775 108.35158 116.86775C110.83686 116.86775 112.85158 118.88248 112.85158 121.36775Z" fill-rule="nonzero"/><path fill="#4285f4" clip-path="url(#id_0)" d="M127.89341 207.15639C127.89341 209.64168 125.87869 211.65639 123.39341 211.65639C120.908134 211.65639 118.89341 209.64168 118.89341 207.15639C118.89341 204.67111 120.908134 202.65639 123.39341 202.65639C125.87869 202.65639 127.89341 204.67111 127.89341 207.15639Z" fill-rule="nonzero"/><path fill="#4285f4" clip-path="url(#id_0)" d="M157.97708 250.23842C157.97708 252.72371 155.96236 254.73842 153.47708 254.73842C150.9918 254.73842 148.97708 252.72371 148.97708 250.23842C148.97708 247.75314 150.9918 245.73842 153.47708 245.73842C155.96236 245.73842 157.97708 247.75314 157.97708 250.23842Z" fill-rule="nonzero"/><path fill="#4285f4" clip-path="url(#id_0)" d="M218.14441 272.05063C218.14441 274.53592 216.1297 276.55063 213.64441 276.55063C211.15913 276.55063 209.14441 274.53592 209.14441 272.05063C209.14441 269.56537 211.15913 267.55063 213.64441 267.55063C216.1297 267.55063 218.14441 269.56537 218.14441 272.05063Z" fill-rule="nonzero"/><path fill="#4285f4" clip-path="url(#id_0)" d="M338.4791 281.57745C338.4791 284.06274 336.46436 286.07745 333.9791 286.07745C331.4938 286.07745 329.4791 284.06274 329.4791 281.57745C329.4791 279.09216 331.4938 277.07745 333.9791 277.07745C336.46436 277.07745 338.4791 279.09216 338.4791 281.57745Z" fill-rule="nonzero"/><path fill="#4285f4" clip-path="url(#id_0)" d="M579.14844 284.27356C579.14844 286.75885 577.1337 288.77356 574.64844 288.77356C572.16315 288.77356 570.14844 286.75885 570.14844 284.27356C570.14844 281.78827 572.16315 279.77356 574.64844 279.77356C577.1337 279.77356 579.14844 281.78827 579.14844 284.27356Z" fill-rule="nonzero"/><path fill="#ea4335" clip-path="url(#id_0)" d="M112.85158 276.00977C112.85158 278.49506 110.83686 280.50977 108.35158 280.50977C105.866295 280.50977 103.85158 278.49506 103.85158 276.00977C103.85158 273.5245 105.866295 271.50977 108.35158 271.50977C110.83686 271.50977 112.85158 273.5245 112.85158 276.00977Z" fill-rule="nonzero"/><path fill="#ea4335" clip-path="url(#id_0)" d="M127.89341 286.217C127.89341 288.7023 125.87869 290.717 123.39341 290.717C120.908134 290.717 118.89341 288.7023 118.89341 286.217C118.89341 283.73172 120.908134 281.717 123.39341 281.717C125.87869 281.717 127.89341 283.73172 127.89341 286.217Z" fill-rule="nonzero"/><path fill="#ea4335" clip-path="url(#id_0)" d="M157.97708 292.90472C157.97708 295.38998 155.96236 297.40472 153.47708 297.40472C150.9918 297.40472 148.97708 295.38998 148.97708 292.90472C148.97708 290.41943 150.9918 288.40472 153.47708 288.40472C155.96236 288.40472 157.97708 290.41943 157.97708 292.90472Z" fill-rule="nonzero"/><path fill="#ea4335" clip-path="url(#id_0)" d="M218.14441 296.08722C218.14441 298.5725 216.1297 300.58722 213.64441 300.58722C211.15913 300.58722 209.14441 298.5725 209.14441 296.08722C209.14441 293.60193 211.15913 291.58722 213.64441 291.58722C216.1297 291.58722 218.14441 293.60193 218.14441 296.08722Z" fill-rule="nonzero"/><path fill="#ea4335" clip-path="url(#id_0)" d="M338.4791 297.0896C338.4791 299.5749 336.46436 301.5896 333.9791 301.5896C331.4938 301.5896 329.4791 299.5749 329.4791 297.0896C329.4791 294.6043 331.4938 292.5896 333.9791 292.5896C336.46436 292.5896 338.4791 294.6043 338.4791 297.0896Z" fill-rule="nonzero"/><path fill="#ea4335" clip-path="url(#id_0)" d="M579.14844 298.31686C579.14844 300.80215 577.1337 302.81686 574.64844 302.81686C572.16315 302.81686 570.14844 300.80215 570.14844 298.31686C570.14844 295.8316 572.16315 293.81686 574.64844 293.81686C577.1337 293.81686 579.14844 295.8316 579.14844 298.31686Z" fill-rule="nonzero"/><path fill="#000000" d="M311.92188 349.45L311.92188 340.85626L315.17188 340.85626Q316.01562 340.85626 316.46875 340.9344Q317.10938 341.04376 317.53125 341.34064Q317.96875 341.6375 318.21875 342.16876Q318.48438 342.7 318.48438 343.34064Q318.48438 344.4344 317.78125 345.2Q317.09375 345.95 315.26562 345.95L313.0625 345.95L313.0625 349.45L311.92188 349.45ZM313.0625 344.95L315.28125 344.95Q316.39062 344.95 316.84375 344.54376Q317.3125 344.1219 317.3125 343.3719Q317.3125 342.84064 317.03125 342.46564Q316.76562 342.075 316.32812 341.95Q316.03125 341.8719 315.26562 341.8719L313.0625 341.8719L313.0625 344.95ZM323.85938 348.6844Q323.26562 349.1844 322.71875 349.3875Q322.1875 349.59064 321.5625 349.59064Q320.53125 349.59064 319.98438 349.09064Q319.4375 348.59064 319.4375 347.8094Q319.4375 347.35626 319.64062 346.98126Q319.84375 346.59064 320.1875 346.3719Q320.53125 346.1375 320.95312 346.02814Q321.25 345.9344 321.89062 345.85626Q323.15625 345.71564 323.76562 345.4969Q323.76562 345.27814 323.76562 345.23126Q323.76562 344.575 323.46875 344.3094Q323.0625 343.96564 322.26562 343.96564Q321.53125 343.96564 321.17188 344.23126Q320.8125 344.48126 320.64062 345.1375L319.60938 344.9969Q319.75 344.34064 320.07812 343.9344Q320.40625 343.52814 321.01562 343.3094Q321.625 343.09064 322.42188 343.09064Q323.21875 343.09064 323.71875 343.27814Q324.21875 343.46564 324.45312 343.7469Q324.6875 344.02814 324.78125 344.46564Q324.82812 344.73126 324.82812 345.4344L324.82812 346.84064Q324.82812 348.3094 324.89062 348.7Q324.96875 349.09064 325.17188 349.45L324.0625 349.45Q323.90625 349.1219 323.85938 348.6844ZM323.76562 346.325Q323.1875 346.5594 322.04688 346.73126Q321.39062 346.825 321.125 346.95Q320.85938 347.0594 320.70312 347.27814Q320.5625 347.4969 320.5625 347.77814Q320.5625 348.2 320.875 348.48126Q321.20312 348.7625 321.8125 348.7625Q322.42188 348.7625 322.89062 348.4969Q323.375 348.23126 323.59375 347.7625Q323.76562 347.40314 323.76562 346.71564L323.76562 346.325ZM326.78125 349.45L326.78125 343.23126L327.73438 343.23126L327.73438 344.16876Q328.09375 343.5125 328.39062 343.3094Q328.70312 343.09064 329.07812 343.09064Q329.60938 343.09064 330.15625 343.41876L329.79688 344.40314Q329.40625 344.16876 329.03125 344.16876Q328.67188 344.16876 328.39062 344.3875Q328.125 344.59064 328.01562 344.96564Q327.82812 345.52814 327.82812 346.1844L327.82812 349.45L326.78125 349.45ZM334.85938 348.6844Q334.26562 349.1844 333.71875 349.3875Q333.1875 349.59064 332.5625 349.59064Q331.53125 349.59064 330.98438 349.09064Q330.4375 348.59064 330.4375 347.8094Q330.4375 347.35626 330.64062 346.98126Q330.84375 346.59064 331.1875 346.3719Q331.53125 346.1375 331.95312 346.02814Q332.25 345.9344 332.89062 345.85626Q334.15625 345.71564 334.76562 345.4969Q334.76562 345.27814 334.76562 345.23126Q334.76562 344.575 334.46875 344.3094Q334.0625 343.96564 333.26562 343.96564Q332.53125 343.96564 332.17188 344.23126Q331.8125 344.48126 331.64062 345.1375L330.60938 344.9969Q330.75 344.34064 331.07812 343.9344Q331.40625 343.52814 332.01562 343.3094Q332.625 343.09064 333.42188 343.09064Q334.21875 343.09064 334.71875 343.27814Q335.21875 343.46564 335.45312 343.7469Q335.6875 344.02814 335.78125 344.46564Q335.82812 344.73126 335.82812 345.4344L335.82812 346.84064Q335.82812 348.3094 335.89062 348.7Q335.96875 349.09064 336.17188 349.45L335.0625 349.45Q334.90625 349.1219 334.85938 348.6844ZM334.76562 346.325Q334.1875 346.5594 333.04688 346.73126Q332.39062 346.825 332.125 346.95Q331.85938 347.0594 331.70312 347.27814Q331.5625 347.4969 331.5625 347.77814Q331.5625 348.2 331.875 348.48126Q332.20312 348.7625 332.8125 348.7625Q333.42188 348.7625 333.89062 348.4969Q334.375 348.23126 334.59375 347.7625Q334.76562 347.40314 334.76562 346.71564L334.76562 346.325ZM337.76562 349.45L337.76562 340.85626L338.82812 340.85626L338.82812 349.45L337.76562 349.45ZM345.04688 347.45L346.14062 347.575Q345.89062 348.52814 345.1875 349.0594Q344.48438 349.59064 343.40625 349.59064Q342.04688 349.59064 341.23438 348.7469Q340.4375 347.90314 340.4375 346.3875Q340.4375 344.825 341.25 343.96564Q342.0625 343.09064 343.34375 343.09064Q344.59375 343.09064 345.375 343.9344Q346.17188 344.77814 346.17188 346.325Q346.17188 346.41876 346.17188 346.60626L341.53125 346.60626Q341.59375 347.6375 342.10938 348.1844Q342.625 348.71564 343.40625 348.71564Q343.98438 348.71564 344.39062 348.41876Q344.8125 348.10626 345.04688 347.45ZM341.59375 345.7469L345.0625 345.7469Q345.0 344.95 344.67188 344.5594Q344.15625 343.95 343.35938 343.95Q342.625 343.95 342.125 344.4344Q341.64062 344.91876 341.59375 345.7469ZM347.76562 349.45L347.76562 340.85626L348.82812 340.85626L348.82812 349.45L347.76562 349.45ZM350.76562 349.45L350.76562 340.85626L351.82812 340.85626L351.82812 349.45L350.76562 349.45ZM353.79688 342.075L353.79688 340.85626L354.85938 340.85626L354.85938 342.075L353.79688 342.075ZM353.79688 349.45L353.79688 343.23126L354.85938 343.23126L354.85938 349.45L353.79688 349.45ZM356.375 347.59064L357.40625 347.4344Q357.5 348.0594 357.89062 348.3875Q358.29688 348.71564 359.03125 348.71564Q359.75 348.71564 360.09375 348.4344Q360.45312 348.1375 360.45312 347.73126Q360.45312 347.3719 360.14062 347.16876Q359.92188 347.02814 359.0625 346.8094Q357.90625 346.5125 357.45312 346.3094Q357.01562 346.09064 356.78125 345.71564Q356.54688 345.34064 356.54688 344.8719Q356.54688 344.46564 356.73438 344.10626Q356.92188 343.7469 357.25 343.5125Q357.5 343.34064 357.92188 343.21564Q358.34375 343.09064 358.84375 343.09064Q359.5625 343.09064 360.10938 343.3094Q360.67188 343.5125 360.9375 343.8719Q361.20312 344.23126 361.29688 344.825L360.26562 344.96564Q360.20312 344.4969 359.85938 344.23126Q359.53125 343.95 358.90625 343.95Q358.1875 343.95 357.875 344.2Q357.5625 344.4344 357.5625 344.7625Q357.5625 344.96564 357.6875 345.1219Q357.82812 345.29376 358.09375 345.40314Q358.25 345.46564 359.03125 345.66876Q360.15625 345.98126 360.59375 346.16876Q361.03125 346.35626 361.28125 346.71564Q361.53125 347.075 361.53125 347.6219Q361.53125 348.15314 361.21875 348.6219Q360.92188 349.075 360.34375 349.34064Q359.76562 349.59064 359.03125 349.59064Q357.8125 349.59064 357.17188 349.09064Q356.54688 348.575 356.375 347.59064ZM362.79688 349.45L362.79688 343.23126L363.73438 343.23126L363.73438 344.10626Q364.03125 343.6375 364.51562 343.3719Q365.0 343.09064 365.625 343.09064Q366.3125 343.09064 366.75 343.3719Q367.20312 343.65314 367.375 344.16876Q368.125 343.09064 369.29688 343.09064Q370.23438 343.09064 370.71875 343.60626Q371.21875 344.10626 371.21875 345.1844L371.21875 349.45L370.17188 349.45L370.17188 345.52814Q370.17188 344.90314 370.0625 344.6219Q369.96875 344.34064 369.70312 344.16876Q369.4375 343.9969 369.0625 343.9969Q368.40625 343.9969 367.96875 344.4344Q367.54688 344.8719 367.54688 345.84064L367.54688 349.45L366.48438 349.45L366.48438 345.40314Q366.48438 344.7 366.21875 344.35626Q365.96875 343.9969 365.39062 343.9969Q364.9375 343.9969 364.5625 344.23126Q364.1875 344.46564 364.01562 344.91876Q363.84375 345.3719 363.84375 346.21564L363.84375 349.45L362.79688 349.45Z" fill-rule="nonzero"/><path fill="#000000" d="M29.550013 231.42917L20.956263 231.42917L20.956263 227.61667Q20.956263 226.46042 21.190638 225.86667Q21.425013 225.27292 22.018763 224.91354Q22.596888 224.55417 23.300013 224.55417Q24.221888 224.55417 24.846888 225.14792Q25.471888 225.74167 25.643763 226.97604Q25.862513 226.52292 26.065638 226.28854Q26.518763 225.78854 27.206263 225.35104L29.550013 223.85104L29.550013 225.28854L27.768763 226.41354Q26.987513 226.91354 26.581263 227.24167Q26.175013 227.55417 26.018763 227.8198Q25.846888 228.0698 25.768763 228.33542Q25.737513 228.52292 25.737513 228.96042L25.737513 230.28854L29.550013 230.28854L29.550013 231.42917ZM24.753138 230.28854L24.753138 227.83542Q24.753138 227.0698 24.596888 226.6323Q24.425013 226.17917 24.081263 225.96042Q23.721888 225.72604 23.300013 225.72604Q22.690638 225.72604 22.300013 226.17917Q21.909388 226.61667 21.909388 227.5698L21.909388 230.28854L24.753138 230.28854ZM29.550013 218.49167L28.628138 218.49167Q29.690638 219.22604 29.690638 220.47604Q29.690638 221.02292 29.487513 221.5073Q29.268763 221.97604 28.956263 222.21042Q28.628138 222.4448 28.159388 222.53854Q27.862513 222.60104 27.175013 222.60104L23.331263 222.60104L23.331263 221.53854L26.784388 221.53854Q27.596888 221.53854 27.893763 221.47604Q28.300013 221.3823 28.550013 221.0698Q28.784388 220.74167 28.784388 220.2573Q28.784388 219.78854 28.550013 219.3823Q28.300013 218.96042 27.878138 218.78854Q27.456263 218.60104 26.659388 218.60104L23.331263 218.60104L23.331263 217.55417L29.550013 217.55417L29.550013 218.49167ZM29.550013 215.5698L23.331263 215.5698L23.331263 214.6323L24.206263 214.6323Q23.190638 213.9448 23.190638 212.64792Q23.190638 212.08542 23.393763 211.61667Q23.596888 211.1323 23.925013 210.89792Q24.253138 210.66354 24.690638 210.5698Q24.987513 210.52292 25.721888 210.52292L29.550013 210.52292L29.550013 211.5698L25.768763 211.5698Q25.112513 211.5698 24.800013 211.6948Q24.487513 211.8198 24.300013 212.1323Q24.096888 212.4448 24.096888 212.86667Q24.096888 213.53854 24.534388 214.03854Q24.956263 214.52292 26.143763 214.52292L29.550013 214.52292L29.550013 215.5698ZM28.612513 206.27292L29.534388 206.11667Q29.628138 206.5698 29.628138 206.91354Q29.628138 207.49167 29.456263 207.80417Q29.268763 208.11667 28.971888 208.2573Q28.675013 208.3823 27.721888 208.3823L24.143763 208.3823L24.143763 209.14792L23.331263 209.14792L23.331263 208.3823L21.784388 208.3823L21.159388 207.33542L23.331263 207.33542L23.331263 206.27292L24.143763 206.27292L24.143763 207.33542L27.784388 207.33542Q28.237513 207.33542 28.362513 207.28854Q28.487513 207.22604 28.565638 207.10104Q28.643763 206.97604 28.643763 206.74167Q28.643763 206.55417 28.612513 206.27292ZM22.175013 205.5698L20.956263 205.5698L20.956263 204.5073L22.175013 204.5073L22.175013 205.5698ZM29.550013 205.5698L23.331263 205.5698L23.331263 204.5073L29.550013 204.5073L29.550013 205.5698ZM29.550013 202.5698L23.331263 202.5698L23.331263 201.6323L24.206263 201.6323Q23.737513 201.33542 23.471888 200.85104Q23.190638 200.36667 23.190638 199.74167Q23.190638 199.05417 23.471888 198.61667Q23.753138 198.16354 24.268763 197.99167Q23.190638 197.24167 23.190638 196.0698Q23.190638 195.1323 23.706263 194.64792Q24.206263 194.14792 25.284388 194.14792L29.550013 194.14792L29.550013 195.1948L25.628138 195.1948Q25.003138 195.1948 24.721888 195.30417Q24.440638 195.39792 24.268763 195.66354Q24.096888 195.92917 24.096888 196.30417Q24.096888 196.96042 24.534388 197.39792Q24.971888 197.8198 25.940638 197.8198L29.550013 197.8198L29.550013 198.8823L25.503138 198.8823Q24.800013 198.8823 24.456263 199.14792Q24.096888 199.39792 24.096888 199.97604Q24.096888 200.42917 24.331263 200.80417Q24.565638 201.17917 25.018763 201.35104Q25.471888 201.52292 26.315638 201.52292L29.550013 201.52292L29.550013 202.5698ZM27.550013 188.3198L27.675013 187.22604Q28.628138 187.47604 29.159388 188.17917Q29.690638 188.8823 29.690638 189.96042Q29.690638 191.3198 28.846888 192.1323Q28.003138 192.92917 26.487513 192.92917Q24.925013 192.92917 24.065638 192.11667Q23.190638 191.30417 23.190638 190.02292Q23.190638 188.77292 24.034388 187.99167Q24.878138 187.1948 26.425013 187.1948Q26.518763 187.1948 26.706263 187.1948L26.706263 191.83542Q27.737513 191.77292 28.284388 191.2573Q28.815638 190.74167 28.815638 189.96042Q28.815638 189.3823 28.518763 188.97604Q28.206263 188.55417 27.550013 188.3198ZM25.846888 191.77292L25.846888 188.30417Q25.050013 188.36667 24.659388 188.6948Q24.050013 189.21042 24.050013 190.0073Q24.050013 190.74167 24.534388 191.24167Q25.018763 191.72604 25.846888 191.77292ZM32.08126 180.55417Q30.971888 181.42917 29.503138 182.03854Q28.018763 182.6323 26.440638 182.6323Q25.050013 182.6323 23.768763 182.1948Q22.284388 181.66354 20.815638 180.55417L20.815638 179.80417Q22.034388 180.5073 22.550013 180.74167Q23.362513 181.10104 24.237513 181.30417Q25.331263 181.55417 26.440638 181.55417Q29.268763 181.55417 32.08126 179.80417L32.08126 180.55417ZM27.690638 178.99167L27.534388 177.96042Q28.159388 177.86667 28.487513 177.47604Q28.815638 177.0698 28.815638 176.33542Q28.815638 175.61667 28.534388 175.27292Q28.237513 174.91354 27.831263 174.91354Q27.471888 174.91354 27.268763 175.22604Q27.128138 175.4448 26.909388 176.30417Q26.612513 177.46042 26.409388 177.91354Q26.190638 178.35104 25.815638 178.58542Q25.440638 178.8198 24.971888 178.8198Q24.565638 178.8198 24.206263 178.6323Q23.846888 178.4448 23.612513 178.11667Q23.440638 177.86667 23.315638 177.4448Q23.190638 177.02292 23.190638 176.52292Q23.190638 175.80417 23.409388 175.2573Q23.612513 174.6948 23.971888 174.42917Q24.331263 174.16354 24.925013 174.0698L25.065638 175.10104Q24.596888 175.16354 24.331263 175.5073Q24.050013 175.83542 24.050013 176.46042Q24.050013 177.17917 24.300013 177.49167Q24.534388 177.80417 24.862513 177.80417Q25.065638 177.80417 25.221888 177.67917Q25.393763 177.53854 25.503138 177.27292Q25.565638 177.11667 25.768763 176.33542Q26.081263 175.21042 26.268763 174.77292Q26.456263 174.33542 26.815638 174.08542Q27.175013 173.83542 27.721888 173.83542Q28.253138 173.83542 28.721888 174.14792Q29.175013 174.4448 29.440638 175.02292Q29.690638 175.60104 29.690638 176.33542Q29.690638 177.55417 29.190638 178.1948Q28.675013 178.8198 27.690638 178.99167ZM32.08126 171.8823L32.08126 172.6323Q29.268763 170.8823 26.440638 170.8823Q25.346888 170.8823 24.253138 171.1323Q23.378138 171.33542 22.565638 171.6948Q22.050013 171.92917 20.815638 172.6323L20.815638 171.8823Q22.284388 170.78854 23.768763 170.2573Q25.050013 169.80417 26.440638 169.80417Q28.018763 169.80417 29.503138 170.41354Q30.971888 171.02292 32.08126 171.8823Z" fill-rule="nonzero"/><path fill="#000000" d="M72.05 300.21564Q72.05 298.6844 72.3625 297.7625Q72.675 296.825 73.28438 296.325Q73.90938 295.825 74.84688 295.825Q75.53438 295.825 76.05 296.10626Q76.58125 296.3875 76.925 296.91876Q77.26875 297.4344 77.45625 298.1844Q77.64375 298.9344 77.64375 300.21564Q77.64375 301.73126 77.33125 302.65314Q77.03438 303.575 76.40938 304.09064Q75.8 304.59064 74.84688 304.59064Q73.6125 304.59064 72.89375 303.7Q72.05 302.6375 72.05 300.21564ZM73.12813 300.21564Q73.12813 302.325 73.62813 303.02814Q74.12813 303.73126 74.84688 303.73126Q75.58125 303.73126 76.06563 303.02814Q76.56563 302.325 76.56563 300.21564Q76.56563 298.09064 76.06563 297.40314Q75.58125 296.7 74.83125 296.7Q74.1125 296.7 73.675 297.3094Q73.12813 298.09064 73.12813 300.21564ZM79.64375 304.45L79.64375 303.2469L80.84688 303.2469L80.84688 304.45L79.64375 304.45ZM82.05 300.21564Q82.05 298.6844 82.3625 297.7625Q82.675 296.825 83.28438 296.325Q83.90938 295.825 84.84688 295.825Q85.53438 295.825 86.05 296.10626Q86.58125 296.3875 86.925 296.91876Q87.26875 297.4344 87.45625 298.1844Q87.64375 298.9344 87.64375 300.21564Q87.64375 301.73126 87.33125 302.65314Q87.03438 303.575 86.40938 304.09064Q85.8 304.59064 84.84688 304.59064Q83.6125 304.59064 82.89375 303.7Q82.05 302.6375 82.05 300.21564ZM83.12813 300.21564Q83.12813 302.325 83.62813 303.02814Q84.12813 303.73126 84.84688 303.73126Q85.58125 303.73126 86.06563 303.02814Q86.56563 302.325 86.56563 300.21564Q86.56563 298.09064 86.06563 297.40314Q85.58125 296.7 84.83125 296.7Q84.1125 296.7 83.675 297.3094Q83.12813 298.09064 83.12813 300.21564ZM89.05 300.21564Q89.05 298.6844 89.3625 297.7625Q89.675 296.825 90.28438 296.325Q90.90938 295.825 91.84688 295.825Q92.53438 295.825 93.05 296.10626Q93.58125 296.3875 93.925 296.91876Q94.26875 297.4344 94.45625 298.1844Q94.64375 298.9344 94.64375 300.21564Q94.64375 301.73126 94.33125 302.65314Q94.03438 303.575 93.40938 304.09064Q92.8 304.59064 91.84688 304.59064Q90.6125 304.59064 89.89375 303.7Q89.05 302.6375 89.05 300.21564ZM90.12813 300.21564Q90.12813 302.325 90.62813 303.02814Q91.12813 303.73126 91.84688 303.73126Q92.58125 303.73126 93.06563 303.02814Q93.56563 302.325 93.56563 300.21564Q93.56563 298.09064 93.06563 297.40314Q92.58125 296.7 91.83125 296.7Q91.1125 296.7 90.675 297.3094Q90.12813 298.09064 90.12813 300.21564Z" fill-rule="nonzero"/><path fill="#000000" d="M58.05 249.15834L59.159374 249.06459Q59.284374 249.87709 59.721874 250.28334Q60.175 250.68959 60.815624 250.68959Q61.565624 250.68959 62.096874 250.11147Q62.628124 249.53334 62.628124 248.59584Q62.628124 247.68959 62.1125 247.17397Q61.6125 246.64272 60.784374 246.64272Q60.284374 246.64272 59.8625 246.87709Q59.45625 247.11147 59.221874 247.47084L58.2375 247.34584L59.065624 242.93959L63.346874 242.93959L63.346874 243.93959L59.909374 243.93959L59.45625 246.25209Q60.221874 245.70522 61.065624 245.70522Q62.190624 245.70522 62.95625 246.48647Q63.7375 247.26772 63.7375 248.50209Q63.7375 249.65834 63.065624 250.51772Q62.2375 251.54897 60.815624 251.54897Q59.64375 251.54897 58.89375 250.89272Q58.159374 250.23647 58.05 249.15834ZM65.05 247.17397Q65.05 245.64272 65.3625 244.72084Q65.675 243.78334 66.28438 243.28334Q66.90938 242.78334 67.84688 242.78334Q68.53438 242.78334 69.05 243.06459Q69.58125 243.34584 69.925 243.87709Q70.26875 244.39272 70.45625 245.14272Q70.64375 245.89272 70.64375 247.17397Q70.64375 248.68959 70.33125 249.61147Q70.03438 250.53334 69.40938 251.04897Q68.8 251.54897 67.84688 251.54897Q66.6125 251.54897 65.89375 250.65834Q65.05 249.59584 65.05 247.17397ZM66.12813 247.17397Q66.12813 249.28334 66.62813 249.98647Q67.12813 250.68959 67.84688 250.68959Q68.58125 250.68959 69.06563 249.98647Q69.56563 249.28334 69.56563 247.17397Q69.56563 245.04897 69.06563 244.36147Q68.58125 243.65834 67.83125 243.65834Q67.1125 243.65834 66.675 244.26772Q66.12813 245.04897 66.12813 247.17397ZM72.05 247.17397Q72.05 245.64272 72.3625 244.72084Q72.675 243.78334 73.28438 243.28334Q73.90938 242.78334 74.84688 242.78334Q75.53438 242.78334 76.05 243.06459Q76.58125 243.34584 76.925 243.87709Q77.26875 244.39272 77.45625 245.14272Q77.64375 245.89272 77.64375 247.17397Q77.64375 248.68959 77.33125 249.61147Q77.03438 250.53334 76.40938 251.04897Q75.8 251.54897 74.84688 251.54897Q73.6125 251.54897 72.89375 250.65834Q72.05 249.59584 72.05 247.17397ZM73.12813 247.17397Q73.12813 249.28334 73.62813 249.98647Q74.12813 250.68959 74.84688 250.68959Q75.58125 250.68959 76.06563 249.98647Q76.56563 249.28334 76.56563 247.17397Q76.56563 245.04897 76.06563 244.36147Q75.58125 243.65834 74.83125 243.65834Q74.1125 243.65834 73.675 244.26772Q73.12813 245.04897 73.12813 247.17397ZM79.64375 251.40834L79.64375 250.20522L80.84688 250.20522L80.84688 251.40834L79.64375 251.40834ZM82.05 247.17397Q82.05 245.64272 82.3625 244.72084Q82.675 243.78334 83.28438 243.28334Q83.90938 242.78334 84.84688 242.78334Q85.53438 242.78334 86.05 243.06459Q86.58125 243.34584 86.925 243.87709Q87.26875 244.39272 87.45625 245.14272Q87.64375 245.89272 87.64375 247.17397Q87.64375 248.68959 87.33125 249.61147Q87.03438 250.53334 86.40938 251.04897Q85.8 251.54897 84.84688 251.54897Q83.6125 251.54897 82.89375 250.65834Q82.05 249.59584 82.05 247.17397ZM83.12813 247.17397Q83.12813 249.28334 83.62813 249.98647Q84.12813 250.68959 84.84688 250.68959Q85.58125 250.68959 86.06563 249.98647Q86.56563 249.28334 86.56563 247.17397Q86.56563 245.04897 86.06563 244.36147Q85.58125 243.65834 84.83125 243.65834Q84.1125 243.65834 83.675 244.26772Q83.12813 245.04897 83.12813 247.17397ZM89.05 247.17397Q89.05 245.64272 89.3625 244.72084Q89.675 243.78334 90.28438 243.28334Q90.90938 242.78334 91.84688 242.78334Q92.53438 242.78334 93.05 243.06459Q93.58125 243.34584 93.925 243.87709Q94.26875 244.39272 94.45625 245.14272Q94.64375 245.89272 94.64375 247.17397Q94.64375 248.68959 94.33125 249.61147Q94.03438 250.53334 93.40938 251.04897Q92.8 251.54897 91.84688 251.54897Q90.6125 251.54897 89.89375 250.65834Q89.05 249.59584 89.05 247.17397ZM90.12813 247.17397Q90.12813 249.28334 90.62813 249.98647Q91.12813 250.68959 91.84688 250.68959Q92.58125 250.68959 93.06563 249.98647Q93.56563 249.28334 93.56563 247.17397Q93.56563 245.04897 93.06563 244.36147Q92.58125 243.65834 91.83125 243.65834Q91.1125 243.65834 90.675 244.26772Q90.12813 245.04897 90.12813 247.17397Z" fill-rule="nonzero"/><path fill="#000000" d="M55.01875 198.36667L53.971874 198.36667L53.971874 191.64792Q53.58125 192.0073 52.95625 192.3823Q52.346874 192.74167 51.8625 192.91354L51.8625 191.89792Q52.7375 191.47604 53.39375 190.89792Q54.065624 190.30417 54.346874 189.74167L55.01875 189.74167L55.01875 198.36667ZM58.05 194.1323Q58.05 192.60104 58.3625 191.67917Q58.675 190.74167 59.284374 190.24167Q59.909374 189.74167 60.846874 189.74167Q61.534374 189.74167 62.05 190.02292Q62.58125 190.30417 62.925 190.83542Q63.26875 191.35104 63.45625 192.10104Q63.64375 192.85104 63.64375 194.1323Q63.64375 195.64792 63.33125 196.5698Q63.034374 197.49167 62.409374 198.0073Q61.8 198.5073 60.846874 198.5073Q59.6125 198.5073 58.89375 197.61667Q58.05 196.55417 58.05 194.1323ZM59.128124 194.1323Q59.128124 196.24167 59.628124 196.9448Q60.128124 197.64792 60.846874 197.64792Q61.58125 197.64792 62.065624 196.9448Q62.565624 196.24167 62.565624 194.1323Q62.565624 192.0073 62.065624 191.3198Q61.58125 190.61667 60.83125 190.61667Q60.1125 190.61667 59.675 191.22604Q59.128124 192.0073 59.128124 194.1323ZM65.05 194.1323Q65.05 192.60104 65.3625 191.67917Q65.675 190.74167 66.28438 190.24167Q66.90938 189.74167 67.84688 189.74167Q68.53438 189.74167 69.05 190.02292Q69.58125 190.30417 69.925 190.83542Q70.26875 191.35104 70.45625 192.10104Q70.64375 192.85104 70.64375 194.1323Q70.64375 195.64792 70.33125 196.5698Q70.03438 197.49167 69.40938 198.0073Q68.8 198.5073 67.84688 198.5073Q66.6125 198.5073 65.89375 197.61667Q65.05 196.55417 65.05 194.1323ZM66.12813 194.1323Q66.12813 196.24167 66.62813 196.9448Q67.12813 197.64792 67.84688 197.64792Q68.58125 197.64792 69.06563 196.9448Q69.56563 196.24167 69.56563 194.1323Q69.56563 192.0073 69.06563 191.3198Q68.58125 190.61667 67.83125 190.61667Q67.1125 190.61667 66.675 191.22604Q66.12813 192.0073 66.12813 194.1323ZM72.05 194.1323Q72.05 192.60104 72.3625 191.67917Q72.675 190.74167 73.28438 190.24167Q73.90938 189.74167 74.84688 189.74167Q75.53438 189.74167 76.05 190.02292Q76.58125 190.30417 76.925 190.83542Q77.26875 191.35104 77.45625 192.10104Q77.64375 192.85104 77.64375 194.1323Q77.64375 195.64792 77.33125 196.5698Q77.03438 197.49167 76.40938 198.0073Q75.8 198.5073 74.84688 198.5073Q73.6125 198.5073 72.89375 197.61667Q72.05 196.55417 72.05 194.1323ZM73.12813 194.1323Q73.12813 196.24167 73.62813 196.9448Q74.12813 197.64792 74.84688 197.64792Q75.58125 197.64792 76.06563 196.9448Q76.56563 196.24167 76.56563 194.1323Q76.56563 192.0073 76.06563 191.3198Q75.58125 190.61667 74.83125 190.61667Q74.1125 190.61667 73.675 191.22604Q73.12813 192.0073 73.12813 194.1323ZM79.64375 198.36667L79.64375 197.16354L80.84688 197.16354L80.84688 198.36667L79.64375 198.36667ZM82.05 194.1323Q82.05 192.60104 82.3625 191.67917Q82.675 190.74167 83.28438 190.24167Q83.90938 189.74167 84.84688 189.74167Q85.53438 189.74167 86.05 190.02292Q86.58125 190.30417 86.925 190.83542Q87.26875 191.35104 87.45625 192.10104Q87.64375 192.85104 87.64375 194.1323Q87.64375 195.64792 87.33125 196.5698Q87.03438 197.49167 86.40938 198.0073Q85.8 198.5073 84.84688 198.5073Q83.6125 198.5073 82.89375 197.61667Q82.05 196.55417 82.05 194.1323ZM83.12813 194.1323Q83.12813 196.24167 83.62813 196.9448Q84.12813 197.64792 84.84688 197.64792Q85.58125 197.64792 86.06563 196.9448Q86.56563 196.24167 86.56563 194.1323Q86.56563 192.0073 86.06563 191.3198Q85.58125 190.61667 84.83125 190.61667Q84.1125 190.61667 83.675 191.22604Q83.12813 192.0073 83.12813 194.1323ZM89.05 194.1323Q89.05 192.60104 89.3625 191.67917Q89.675 190.74167 90.28438 190.24167Q90.90938 189.74167 91.84688 189.74167Q92.53438 189.74167 93.05 190.02292Q93.58125 190.30417 93.925 190.83542Q94.26875 191.35104 94.45625 192.10104Q94.64375 192.85104 94.64375 194.1323Q94.64375 195.64792 94.33125 196.5698Q94.03438 197.49167 93.40938 198.0073Q92.8 198.5073 91.84688 198.5073Q90.6125 198.5073 89.89375 197.61667Q89.05 196.55417 89.05 194.1323ZM90.12813 194.1323Q90.12813 196.24167 90.62813 196.9448Q91.12813 197.64792 91.84688 197.64792Q92.58125 197.64792 93.06563 196.9448Q93.56563 196.24167 93.56563 194.1323Q93.56563 192.0073 93.06563 191.3198Q92.58125 190.61667 91.83125 190.61667Q91.1125 190.61667 90.675 191.22604Q90.12813 192.0073 90.12813 194.1323Z" fill-rule="nonzero"/><path fill="#000000" d="M55.01875 145.325L53.971874 145.325L53.971874 138.60625Q53.58125 138.96562 52.95625 139.34062Q52.346874 139.7 51.8625 139.87187L51.8625 138.85625Q52.7375 138.43437 53.39375 137.85625Q54.065624 137.2625 54.346874 136.7L55.01875 136.7L55.01875 145.325ZM58.05 143.075L59.159374 142.98125Q59.284374 143.79375 59.721874 144.2Q60.175 144.60625 60.815624 144.60625Q61.565624 144.60625 62.096874 144.02812Q62.628124 143.45 62.628124 142.5125Q62.628124 141.60625 62.1125 141.09062Q61.6125 140.55937 60.784374 140.55937Q60.284374 140.55937 59.8625 140.79375Q59.45625 141.02812 59.221874 141.3875L58.2375 141.2625L59.065624 136.85625L63.346874 136.85625L63.346874 137.85625L59.909374 137.85625L59.45625 140.16875Q60.221874 139.62187 61.065624 139.62187Q62.190624 139.62187 62.95625 140.40312Q63.7375 141.18437 63.7375 142.41875Q63.7375 143.575 63.065624 144.43437Q62.2375 145.46562 60.815624 145.46562Q59.64375 145.46562 58.89375 144.80937Q58.159374 144.15312 58.05 143.075ZM65.05 141.09062Q65.05 139.55937 65.3625 138.6375Q65.675 137.7 66.28438 137.2Q66.90938 136.7 67.84688 136.7Q68.53438 136.7 69.05 136.98125Q69.58125 137.2625 69.925 137.79375Q70.26875 138.30937 70.45625 139.05937Q70.64375 139.80937 70.64375 141.09062Q70.64375 142.60625 70.33125 143.52812Q70.03438 144.45 69.40938 144.96562Q68.8 145.46562 67.84688 145.46562Q66.6125 145.46562 65.89375 144.575Q65.05 143.5125 65.05 141.09062ZM66.12813 141.09062Q66.12813 143.2 66.62813 143.90312Q67.12813 144.60625 67.84688 144.60625Q68.58125 144.60625 69.06563 143.90312Q69.56563 143.2 69.56563 141.09062Q69.56563 138.96562 69.06563 138.27812Q68.58125 137.575 67.83125 137.575Q67.1125 137.575 66.675 138.18437Q66.12813 138.96562 66.12813 141.09062ZM72.05 141.09062Q72.05 139.55937 72.3625 138.6375Q72.675 137.7 73.28438 137.2Q73.90938 136.7 74.84688 136.7Q75.53438 136.7 76.05 136.98125Q76.58125 137.2625 76.925 137.79375Q77.26875 138.30937 77.45625 139.05937Q77.64375 139.80937 77.64375 141.09062Q77.64375 142.60625 77.33125 143.52812Q77.03438 144.45 76.40938 144.96562Q75.8 145.46562 74.84688 145.46562Q73.6125 145.46562 72.89375 144.575Q72.05 143.5125 72.05 141.09062ZM73.12813 141.09062Q73.12813 143.2 73.62813 143.90312Q74.12813 144.60625 74.84688 144.60625Q75.58125 144.60625 76.06563 143.90312Q76.56563 143.2 76.56563 141.09062Q76.56563 138.96562 76.06563 138.27812Q75.58125 137.575 74.83125 137.575Q74.1125 137.575 73.675 138.18437Q73.12813 138.96562 73.12813 141.09062ZM79.64375 145.325L79.64375 144.12187L80.84688 144.12187L80.84688 145.325L79.64375 145.325ZM82.05 141.09062Q82.05 139.55937 82.3625 138.6375Q82.675 137.7 83.28438 137.2Q83.90938 136.7 84.84688 136.7Q85.53438 136.7 86.05 136.98125Q86.58125 137.2625 86.925 137.79375Q87.26875 138.30937 87.45625 139.05937Q87.64375 139.80937 87.64375 141.09062Q87.64375 142.60625 87.33125 143.52812Q87.03438 144.45 86.40938 144.96562Q85.8 145.46562 84.84688 145.46562Q83.6125 145.46562 82.89375 144.575Q82.05 143.5125 82.05 141.09062ZM83.12813 141.09062Q83.12813 143.2 83.62813 143.90312Q84.12813 144.60625 84.84688 144.60625Q85.58125 144.60625 86.06563 143.90312Q86.56563 143.2 86.56563 141.09062Q86.56563 138.96562 86.06563 138.27812Q85.58125 137.575 84.83125 137.575Q84.1125 137.575 83.675 138.18437Q83.12813 138.96562 83.12813 141.09062ZM89.05 141.09062Q89.05 139.55937 89.3625 138.6375Q89.675 137.7 90.28438 137.2Q90.90938 136.7 91.84688 136.7Q92.53438 136.7 93.05 136.98125Q93.58125 137.2625 93.925 137.79375Q94.26875 138.30937 94.45625 139.05937Q94.64375 139.80937 94.64375 141.09062Q94.64375 142.60625 94.33125 143.52812Q94.03438 144.45 93.40938 144.96562Q92.8 145.46562 91.84688 145.46562Q90.6125 145.46562 89.89375 144.575Q89.05 143.5125 89.05 141.09062ZM90.12813 141.09062Q90.12813 143.2 90.62813 143.90312Q91.12813 144.60625 91.84688 144.60625Q92.58125 144.60625 93.06563 143.90312Q93.56563 143.2 93.56563 141.09062Q93.56563 138.96562 93.06563 138.27812Q92.58125 137.575 91.83125 137.575Q91.1125 137.575 90.675 138.18437Q90.12813 138.96562 90.12813 141.09062Z" fill-rule="nonzero"/><path fill="#000000" d="M56.596874 91.26771L56.596874 92.28333L50.909374 92.28333Q50.909374 91.90833 51.034374 91.54896Q51.253124 90.97083 51.721874 90.40833Q52.20625 89.84583 53.1125 89.11146Q54.51875 87.95521 55.003124 87.28333Q55.503124 86.61146 55.503124 86.01771Q55.503124 85.39271 55.05 84.97083Q54.596874 84.53333 53.878124 84.53333Q53.1125 84.53333 52.659374 84.98646Q52.20625 85.43958 52.190624 86.25208L51.1125 86.14271Q51.221874 84.92396 51.940624 84.29896Q52.675 83.65833 53.909374 83.65833Q55.14375 83.65833 55.8625 84.34583Q56.58125 85.03333 56.58125 86.04896Q56.58125 86.56458 56.3625 87.06458Q56.159374 87.54896 55.659374 88.11146Q55.175 88.65833 54.05 89.61146Q53.096874 90.40833 52.815624 90.70521Q52.55 90.98646 52.378124 91.26771L56.596874 91.26771ZM58.05 88.04896Q58.05 86.51771 58.3625 85.59583Q58.675 84.65833 59.284374 84.15833Q59.909374 83.65833 60.846874 83.65833Q61.534374 83.65833 62.05 83.93958Q62.58125 84.22083 62.925 84.75208Q63.26875 85.26771 63.45625 86.01771Q63.64375 86.76771 63.64375 88.04896Q63.64375 89.56458 63.33125 90.48646Q63.034374 91.40833 62.409374 91.92396Q61.8 92.42396 60.846874 92.42396Q59.6125 92.42396 58.89375 91.53333Q58.05 90.47083 58.05 88.04896ZM59.128124 88.04896Q59.128124 90.15833 59.628124 90.86146Q60.128124 91.56458 60.846874 91.56458Q61.58125 91.56458 62.065624 90.86146Q62.565624 90.15833 62.565624 88.04896Q62.565624 85.92396 62.065624 85.23646Q61.58125 84.53333 60.83125 84.53333Q60.1125 84.53333 59.675 85.14271Q59.128124 85.92396 59.128124 88.04896ZM65.05 88.04896Q65.05 86.51771 65.3625 85.59583Q65.675 84.65833 66.28438 84.15833Q66.90938 83.65833 67.84688 83.65833Q68.53438 83.65833 69.05 83.93958Q69.58125 84.22083 69.925 84.75208Q70.26875 85.26771 70.45625 86.01771Q70.64375 86.76771 70.64375 88.04896Q70.64375 89.56458 70.33125 90.48646Q70.03438 91.40833 69.40938 91.92396Q68.8 92.42396 67.84688 92.42396Q66.6125 92.42396 65.89375 91.53333Q65.05 90.47083 65.05 88.04896ZM66.12813 88.04896Q66.12813 90.15833 66.62813 90.86146Q67.12813 91.56458 67.84688 91.56458Q68.58125 91.56458 69.06563 90.86146Q69.56563 90.15833 69.56563 88.04896Q69.56563 85.92396 69.06563 85.23646Q68.58125 84.53333 67.83125 84.53333Q67.1125 84.53333 66.675 85.14271Q66.12813 85.92396 66.12813 88.04896ZM72.05 88.04896Q72.05 86.51771 72.3625 85.59583Q72.675 84.65833 73.28438 84.15833Q73.90938 83.65833 74.84688 83.65833Q75.53438 83.65833 76.05 83.93958Q76.58125 84.22083 76.925 84.75208Q77.26875 85.26771 77.45625 86.01771Q77.64375 86.76771 77.64375 88.04896Q77.64375 89.56458 77.33125 90.48646Q77.03438 91.40833 76.40938 91.92396Q75.8 92.42396 74.84688 92.42396Q73.6125 92.42396 72.89375 91.53333Q72.05 90.47083 72.05 88.04896ZM73.12813 88.04896Q73.12813 90.15833 73.62813 90.86146Q74.12813 91.56458 74.84688 91.56458Q75.58125 91.56458 76.06563 90.86146Q76.56563 90.15833 76.56563 88.04896Q76.56563 85.92396 76.06563 85.23646Q75.58125 84.53333 74.83125 84.53333Q74.1125 84.53333 73.675 85.14271Q73.12813 85.92396 73.12813 88.04896ZM79.64375 92.28333L79.64375 91.08021L80.84688 91.08021L80.84688 92.28333L79.64375 92.28333ZM82.05 88.04896Q82.05 86.51771 82.3625 85.59583Q82.675 84.65833 83.28438 84.15833Q83.90938 83.65833 84.84688 83.65833Q85.53438 83.65833 86.05 83.93958Q86.58125 84.22083 86.925 84.75208Q87.26875 85.26771 87.45625 86.01771Q87.64375 86.76771 87.64375 88.04896Q87.64375 89.56458 87.33125 90.48646Q87.03438 91.40833 86.40938 91.92396Q85.8 92.42396 84.84688 92.42396Q83.6125 92.42396 82.89375 91.53333Q82.05 90.47083 82.05 88.04896ZM83.12813 88.04896Q83.12813 90.15833 83.62813 90.86146Q84.12813 91.56458 84.84688 91.56458Q85.58125 91.56458 86.06563 90.86146Q86.56563 90.15833 86.56563 88.04896Q86.56563 85.92396 86.06563 85.23646Q85.58125 84.53333 84.83125 84.53333Q84.1125 84.53333 83.675 85.14271Q83.12813 85.92396 83.12813 88.04896ZM89.05 88.04896Q89.05 86.51771 89.3625 85.59583Q89.675 84.65833 90.28438 84.15833Q90.90938 83.65833 91.84688 83.65833Q92.53438 83.65833 93.05 83.93958Q93.58125 84.22083 93.925 84.75208Q94.26875 85.26771 94.45625 86.01771Q94.64375 86.76771 94.64375 88.04896Q94.64375 89.56458 94.33125 90.48646Q94.03438 91.40833 93.40938 91.92396Q92.8 92.42396 91.84688 92.42396Q90.6125 92.42396 89.89375 91.53333Q89.05 90.47083 89.05 88.04896ZM90.12813 88.04896Q90.12813 90.15833 90.62813 90.86146Q91.12813 91.56458 91.84688 91.56458Q92.58125 91.56458 93.06563 90.86146Q93.56563 90.15833 93.56563 88.04896Q93.56563 85.92396 93.06563 85.23646Q92.58125 84.53333 91.83125 84.53333Q91.1125 84.53333 90.675 85.14271Q90.12813 85.92396 90.12813 88.04896Z" fill-rule="nonzero"/><path fill="#000000" d="M165.51892 315.2L166.6283 315.10626Q166.7533 315.91876 167.1908 316.325Q167.64392 316.73126 168.28455 316.73126Q169.03455 316.73126 169.5658 316.15314Q170.09705 315.575 170.09705 314.6375Q170.09705 313.73126 169.58142 313.21564Q169.08142 312.6844 168.2533 312.6844Q167.7533 312.6844 167.33142 312.91876Q166.92517 313.15314 166.6908 313.5125L165.70642 313.3875L166.53455 308.98126L170.8158 308.98126L170.8158 309.98126L167.3783 309.98126L166.92517 312.29376Q167.6908 311.7469 168.53455 311.7469Q169.65955 311.7469 170.42517 312.52814Q171.20642 313.3094 171.20642 314.54376Q171.20642 315.7 170.53455 316.5594Q169.70642 317.59064 168.28455 317.59064Q167.11267 317.59064 166.36267 316.9344Q165.6283 316.27814 165.51892 315.2Z" fill-rule="nonzero"/><path fill="#000000" d="M241.19684 317.45L240.14996 317.45L240.14996 310.73126Q239.75934 311.09064 239.13434 311.46564Q238.52496 311.825 238.04059 311.9969L238.04059 310.98126Q238.91559 310.5594 239.57184 309.98126Q240.24371 309.3875 240.52496 308.825L241.19684 308.825L241.19684 317.45ZM244.22809 313.21564Q244.22809 311.6844 244.54059 310.7625Q244.85309 309.825 245.46246 309.325Q246.08746 308.825 247.02496 308.825Q247.71246 308.825 248.22809 309.10626Q248.75934 309.3875 249.10309 309.91876Q249.44684 310.4344 249.63434 311.1844Q249.82184 311.9344 249.82184 313.21564Q249.82184 314.73126 249.50934 315.65314Q249.21246 316.575 248.58746 317.09064Q247.97809 317.59064 247.02496 317.59064Q245.79059 317.59064 245.07184 316.7Q244.22809 315.6375 244.22809 313.21564ZM245.30621 313.21564Q245.30621 315.325 245.80621 316.02814Q246.30621 316.73126 247.02496 316.73126Q247.75934 316.73126 248.24371 316.02814Q248.74371 315.325 248.74371 313.21564Q248.74371 311.09064 248.24371 310.40314Q247.75934 309.7 247.00934 309.7Q246.29059 309.7 245.85309 310.3094Q245.30621 311.09064 245.30621 313.21564Z" fill-rule="nonzero"/><path fill="#000000" d="M316.406 317.45L315.35913 317.45L315.35913 310.73126Q314.9685 311.09064 314.3435 311.46564Q313.73413 311.825 313.24976 311.9969L313.24976 310.98126Q314.12476 310.5594 314.781 309.98126Q315.45288 309.3875 315.73413 308.825L316.406 308.825L316.406 317.45ZM319.43726 315.2L320.54663 315.10626Q320.67163 315.91876 321.10913 316.325Q321.56226 316.73126 322.20288 316.73126Q322.95288 316.73126 323.48413 316.15314Q324.01538 315.575 324.01538 314.6375Q324.01538 313.73126 323.49976 313.21564Q322.99976 312.6844 322.17163 312.6844Q321.67163 312.6844 321.24976 312.91876Q320.8435 313.15314 320.60913 313.5125L319.62476 313.3875L320.45288 308.98126L324.73413 308.98126L324.73413 309.98126L321.29663 309.98126L320.8435 312.29376Q321.60913 311.7469 322.45288 311.7469Q323.57788 311.7469 324.3435 312.52814Q325.12476 313.3094 325.12476 314.54376Q325.12476 315.7 324.45288 316.5594Q323.62476 317.59064 322.20288 317.59064Q321.031 317.59064 320.281 316.9344Q319.54663 316.27814 319.43726 315.2Z" fill-rule="nonzero"/><path fill="#000000" d="M393.1933 316.4344L393.1933 317.45L387.5058 317.45Q387.5058 317.075 387.6308 316.71564Q387.84955 316.1375 388.3183 315.575Q388.80267 315.0125 389.70892 314.27814Q391.11517 313.1219 391.59955 312.45Q392.09955 311.77814 392.09955 311.1844Q392.09955 310.5594 391.64642 310.1375Q391.1933 309.7 390.47455 309.7Q389.70892 309.7 389.2558 310.15314Q388.80267 310.60626 388.78705 311.41876L387.70892 311.3094Q387.8183 310.09064 388.53705 309.46564Q389.27142 308.825 390.5058 308.825Q391.74017 308.825 392.45892 309.5125Q393.17767 310.2 393.17767 311.21564Q393.17767 311.73126 392.95892 312.23126Q392.7558 312.71564 392.2558 313.27814Q391.77142 313.825 390.64642 314.77814Q389.6933 315.575 389.41205 315.8719Q389.14642 316.15314 388.97455 316.4344L393.1933 316.4344ZM394.64642 313.21564Q394.64642 311.6844 394.95892 310.7625Q395.27142 309.825 395.8808 309.325Q396.5058 308.825 397.4433 308.825Q398.1308 308.825 398.64642 309.10626Q399.17767 309.3875 399.52142 309.91876Q399.86517 310.4344 400.05267 311.1844Q400.24017 311.9344 400.24017 313.21564Q400.24017 314.73126 399.92767 315.65314Q399.6308 316.575 399.0058 317.09064Q398.39642 317.59064 397.4433 317.59064Q396.20892 317.59064 395.49017 316.7Q394.64642 315.6375 394.64642 313.21564ZM395.72455 313.21564Q395.72455 315.325 396.22455 316.02814Q396.72455 316.73126 397.4433 316.73126Q398.17767 316.73126 398.66205 316.02814Q399.16205 315.325 399.16205 313.21564Q399.16205 311.09064 398.66205 310.40314Q398.17767 309.7 397.42767 309.7Q396.70892 309.7 396.27142 310.3094Q395.72455 311.09064 395.72455 313.21564Z" fill-rule="nonzero"/><path fill="#000000" d="M468.40247 316.4344L468.40247 317.45L462.71497 317.45Q462.71497 317.075 462.83997 316.71564Q463.05872 316.1375 463.52747 315.575Q464.01184 315.0125 464.9181 314.27814Q466.32434 313.1219 466.80872 312.45Q467.30872 311.77814 467.30872 311.1844Q467.30872 310.5594 466.8556 310.1375Q466.40247 309.7 465.68372 309.7Q464.9181 309.7 464.46497 310.15314Q464.01184 310.60626 463.99622 311.41876L462.9181 311.3094Q463.02747 310.09064 463.74622 309.46564Q464.4806 308.825 465.71497 308.825Q466.94934 308.825 467.6681 309.5125Q468.38684 310.2 468.38684 311.21564Q468.38684 311.73126 468.1681 312.23126Q467.96497 312.71564 467.46497 313.27814Q466.9806 313.825 465.8556 314.77814Q464.90247 315.575 464.62122 315.8719Q464.3556 316.15314 464.18372 316.4344L468.40247 316.4344ZM469.8556 315.2L470.96497 315.10626Q471.08997 315.91876 471.52747 316.325Q471.9806 316.73126 472.62122 316.73126Q473.37122 316.73126 473.90247 316.15314Q474.43372 315.575 474.43372 314.6375Q474.43372 313.73126 473.9181 313.21564Q473.4181 312.6844 472.58997 312.6844Q472.08997 312.6844 471.6681 312.91876Q471.26184 313.15314 471.02747 313.5125L470.0431 313.3875L470.87122 308.98126L475.15247 308.98126L475.15247 309.98126L471.71497 309.98126L471.26184 312.29376Q472.02747 311.7469 472.87122 311.7469Q473.99622 311.7469 474.76184 312.52814Q475.5431 313.3094 475.5431 314.54376Q475.5431 315.7 474.87122 316.5594Q474.0431 317.59064 472.62122 317.59064Q471.44934 317.59064 470.69934 316.9344Q469.96497 316.27814 469.8556 315.2Z" fill-rule="nonzero"/><path fill="#000000" d="M538.06476 315.1844L539.12726 315.04376Q539.29913 315.9344 539.73663 316.34064Q540.17413 316.73126 540.79913 316.73126Q541.54913 316.73126 542.06476 316.21564Q542.5804 315.7 542.5804 314.9344Q542.5804 314.21564 542.096 313.7469Q541.62726 313.2625 540.8929 313.2625Q540.596 313.2625 540.1429 313.3875L540.2679 312.45Q540.37726 312.46564 540.43976 312.46564Q541.11163 312.46564 541.6429 312.1219Q542.18976 311.7625 542.18976 311.02814Q542.18976 310.45 541.79913 310.075Q541.4085 309.6844 540.7835 309.6844Q540.17413 309.6844 539.75226 310.075Q539.346 310.46564 539.23663 311.23126L538.17413 311.04376Q538.36163 309.9969 539.04913 309.41876Q539.73663 308.825 540.75226 308.825Q541.4554 308.825 542.04913 309.1375Q542.6429 309.4344 542.9554 309.95Q543.2679 310.46564 543.2679 311.0594Q543.2679 311.60626 542.971 312.075Q542.67413 312.52814 542.096 312.79376Q542.846 312.96564 543.2679 313.52814Q543.68976 314.075 543.68976 314.91876Q543.68976 316.04376 542.86163 316.825Q542.04913 317.60626 540.79913 317.60626Q539.67413 317.60626 538.92413 316.9344Q538.17413 316.2469 538.06476 315.1844ZM545.06476 313.21564Q545.06476 311.6844 545.37726 310.7625Q545.68976 309.825 546.29913 309.325Q546.92413 308.825 547.86163 308.825Q548.54913 308.825 549.06476 309.10626Q549.596 309.3875 549.93976 309.91876Q550.2835 310.4344 550.471 311.1844Q550.6585 311.9344 550.6585 313.21564Q550.6585 314.73126 550.346 315.65314Q550.04913 316.575 549.42413 317.09064Q548.81476 317.59064 547.86163 317.59064Q546.62726 317.59064 545.9085 316.7Q545.06476 315.6375 545.06476 313.21564ZM546.1429 313.21564Q546.1429 315.325 546.6429 316.02814Q547.1429 316.73126 547.86163 316.73126Q548.596 316.73126 549.0804 316.02814Q549.5804 315.325 549.5804 313.21564Q549.5804 311.09064 549.0804 310.40314Q548.596 309.7 547.846 309.7Q547.12726 309.7 546.68976 310.3094Q546.1429 311.09064 546.1429 313.21564Z" fill-rule="nonzero"/><path fill="#4285f4" d="M250.5 61.916668C250.5 65.23038 247.8137 67.916664 244.5 67.916664C241.1863 67.916664 238.5 65.23038 238.5 61.916668C238.5 58.60296 241.1863 55.916668 244.5 55.916668C247.8137 55.916668 250.5 58.60296 250.5 61.916668Z" fill-rule="nonzero"/><path fill="#1a1a1a" d="M259.04688 63.15104L260.10938 63.05729Q260.1875 63.71354 260.46875 64.11979Q260.75 64.52604 261.32812 64.791664Q261.92188 65.041664 262.65625 65.041664Q263.29688 65.041664 263.79688 64.854164Q264.29688 64.65104 264.53125 64.322914Q264.78125 63.979164 264.78125 63.58854Q264.78125 63.18229 264.54688 62.885414Q264.3125 62.572914 263.78125 62.36979Q263.42188 62.229164 262.23438 61.947914Q261.0625 61.666664 260.59375 61.416664Q259.96875 61.08854 259.67188 60.61979Q259.375 60.135414 259.375 59.541664Q259.375 58.90104 259.73438 58.33854Q260.10938 57.760414 260.8125 57.479164Q261.53125 57.18229 262.39062 57.18229Q263.34375 57.18229 264.07812 57.49479Q264.8125 57.791664 265.20312 58.40104Q265.59375 58.99479 265.625 59.74479L264.53125 59.822914Q264.4375 59.010414 263.92188 58.604164Q263.42188 58.18229 262.4375 58.18229Q261.40625 58.18229 260.9375 58.55729Q260.46875 58.93229 260.46875 59.46354Q260.46875 59.93229 260.79688 60.229164Q261.125 60.52604 262.5 60.83854Q263.89062 61.15104 264.40625 61.385414Q265.15625 61.74479 265.51562 62.27604Q265.875 62.791664 265.875 63.49479Q265.875 64.18229 265.48438 64.791664Q265.09375 65.385414 264.35938 65.729164Q263.625 66.05729 262.70312 66.05729Q261.53125 66.05729 260.73438 65.729164Q259.95312 65.385414 259.5 64.697914Q259.0625 64.010414 259.04688 63.15104ZM267.29688 68.30729L267.29688 59.697914L268.25 59.697914L268.25 60.49479Q268.59375 60.02604 269.01562 59.791664Q269.45312 59.55729 270.0625 59.55729Q270.85938 59.55729 271.46875 59.96354Q272.07812 60.36979 272.375 61.11979Q272.6875 61.86979 272.6875 62.760414Q272.6875 63.71354 272.34375 64.479164Q272.01562 65.24479 271.35938 65.65104Q270.70312 66.05729 269.98438 66.05729Q269.45312 66.05729 269.03125 65.83854Q268.60938 65.604164 268.34375 65.27604L268.34375 68.30729L267.29688 68.30729ZM268.25 62.83854Q268.25 64.041664 268.73438 64.61979Q269.21875 65.18229 269.90625 65.18229Q270.60938 65.18229 271.10938 64.58854Q271.60938 63.99479 271.60938 62.74479Q271.60938 61.55729 271.125 60.979164Q270.64062 60.385414 269.95312 60.385414Q269.28125 60.385414 268.76562 61.010414Q268.25 61.635414 268.25 62.83854ZM278.35938 65.15104Q277.76562 65.65104 277.21875 65.854164Q276.6875 66.05729 276.0625 66.05729Q275.03125 66.05729 274.48438 65.55729Q273.9375 65.05729 273.9375 64.27604Q273.9375 63.822914 274.14062 63.447914Q274.34375 63.05729 274.6875 62.83854Q275.03125 62.604164 275.45312 62.49479Q275.75 62.40104 276.39062 62.322914Q277.65625 62.18229 278.26562 61.96354Q278.26562 61.74479 278.26562 61.697914Q278.26562 61.041664 277.96875 60.77604Q277.5625 60.43229 276.76562 60.43229Q276.03125 60.43229 275.67188 60.697914Q275.3125 60.947914 275.14062 61.604164L274.10938 61.46354Q274.25 60.80729 274.57812 60.40104Q274.90625 59.99479 275.51562 59.77604Q276.125 59.55729 276.92188 59.55729Q277.71875 59.55729 278.21875 59.74479Q278.71875 59.93229 278.95312 60.21354Q279.1875 60.49479 279.28125 60.93229Q279.32812 61.197914 279.32812 61.90104L279.32812 63.30729Q279.32812 64.77604 279.39062 65.166664Q279.46875 65.55729 279.67188 65.916664L278.5625 65.916664Q278.40625 65.58854 278.35938 65.15104ZM278.26562 62.791664Q277.6875 63.02604 276.54688 63.197914Q275.89062 63.291664 275.625 63.416664Q275.35938 63.52604 275.20312 63.74479Q275.0625 63.96354 275.0625 64.24479Q275.0625 64.666664 275.375 64.947914Q275.70312 65.229164 276.3125 65.229164Q276.92188 65.229164 277.39062 64.96354Q277.875 64.697914 278.09375 64.229164Q278.26562 63.86979 278.26562 63.18229L278.26562 62.791664ZM281.28125 65.916664L281.28125 59.697914L282.23438 59.697914L282.23438 60.635414Q282.59375 59.979164 282.89062 59.77604Q283.20312 59.55729 283.57812 59.55729Q284.10938 59.55729 284.65625 59.885414L284.29688 60.86979Q283.90625 60.635414 283.53125 60.635414Q283.17188 60.635414 282.89062 60.854164Q282.625 61.05729 282.51562 61.43229Q282.32812 61.99479 282.32812 62.65104L282.32812 65.916664L281.28125 65.916664ZM285.29688 65.916664L285.29688 57.322914L286.35938 57.322914L286.35938 62.229164L288.84375 59.697914L290.21875 59.697914L287.82812 61.99479L290.45312 65.916664L289.15625 65.916664L287.09375 62.729164L286.35938 63.447914L286.35938 65.916664L285.29688 65.916664Z" fill-rule="nonzero"/><path fill="#ea4335" d="M318.5 61.916668C318.5 65.23038 315.81372 67.916664 312.5 67.916664C309.18628 67.916664 306.5 65.23038 306.5 61.916668C306.5 58.60296 309.18628 55.916668 312.5 55.916668C315.81372 55.916668 318.5 58.60296 318.5 61.916668Z" fill-rule="nonzero"/><path fill="#1a1a1a" d="M331.45312 62.541664L331.45312 61.541664L335.07812 61.52604L335.07812 64.71354Q334.25 65.385414 333.35938 65.729164Q332.46875 66.05729 331.53125 66.05729Q330.26562 66.05729 329.21875 65.52604Q328.1875 64.979164 327.65625 63.96354Q327.14062 62.93229 327.14062 61.666664Q327.14062 60.40104 327.65625 59.322914Q328.1875 58.229164 329.17188 57.71354Q330.15625 57.18229 331.4375 57.18229Q332.375 57.18229 333.125 57.479164Q333.875 57.77604 334.29688 58.322914Q334.73438 58.854164 334.95312 59.729164L333.9375 60.010414Q333.73438 59.354164 333.4375 58.979164Q333.15625 58.604164 332.625 58.385414Q332.09375 58.15104 331.45312 58.15104Q330.67188 58.15104 330.09375 58.385414Q329.53125 58.61979 329.17188 59.010414Q328.82812 59.40104 328.64062 59.86979Q328.3125 60.666664 328.3125 61.58854Q328.3125 62.74479 328.70312 63.52604Q329.10938 64.291664 329.85938 64.666664Q330.60938 65.041664 331.46875 65.041664Q332.20312 65.041664 332.90625 64.760414Q333.60938 64.46354 333.96875 64.15104L333.96875 62.541664L331.45312 62.541664ZM335.90625 62.80729Q335.90625 61.072914 336.85938 60.24479Q337.65625 59.55729 338.8125 59.55729Q340.09375 59.55729 340.90625 60.40104Q341.73438 61.229164 341.73438 62.71354Q341.73438 63.916664 341.375 64.604164Q341.01562 65.291664 340.3125 65.68229Q339.625 66.05729 338.8125 66.05729Q337.51562 66.05729 336.70312 65.229164Q335.90625 64.385414 335.90625 62.80729ZM336.98438 62.80729Q336.98438 63.99479 337.5 64.58854Q338.03125 65.18229 338.8125 65.18229Q339.60938 65.18229 340.125 64.58854Q340.64062 63.99479 340.64062 62.77604Q340.64062 61.61979 340.10938 61.02604Q339.59375 60.43229 338.8125 60.43229Q338.03125 60.43229 337.5 61.02604Q336.98438 61.604164 336.98438 62.80729ZM343.39062 65.916664L343.39062 57.322914L345.10938 57.322914L347.14062 63.40104Q347.42188 64.260414 347.54688 64.68229Q347.6875 64.21354 348.0 63.30729L350.0625 57.322914L351.59375 57.322914L351.59375 65.916664L350.5 65.916664L350.5 58.729164L348.0 65.916664L346.96875 65.916664L344.48438 58.604164L344.48438 65.916664L343.39062 65.916664ZM353.4375 65.916664L353.4375 57.322914L357.25 57.322914Q358.40625 57.322914 359.0 57.55729Q359.59375 57.791664 359.95312 58.385414Q360.3125 58.96354 360.3125 59.666664Q360.3125 60.58854 359.71875 61.21354Q359.125 61.83854 357.89062 62.010414Q358.34375 62.229164 358.57812 62.43229Q359.07812 62.885414 359.51562 63.572914L361.01562 65.916664L359.57812 65.916664L358.45312 64.135414Q357.95312 63.354164 357.625 62.947914Q357.3125 62.541664 357.04688 62.385414Q356.79688 62.21354 356.53125 62.135414Q356.34375 62.104164 355.90625 62.104164L354.57812 62.104164L354.57812 65.916664L353.4375 65.916664ZM354.57812 61.11979L357.03125 61.11979Q357.79688 61.11979 358.23438 60.96354Q358.6875 60.791664 358.90625 60.447914Q359.14062 60.08854 359.14062 59.666664Q359.14062 59.05729 358.6875 58.666664Q358.25 58.27604 357.29688 58.27604L354.57812 58.27604L354.57812 61.11979Z" fill-rule="nonzero"/><path fill="#757575" d="M30.315624 32.534374L32.20625 33.003124Q31.6125 35.346874 30.065624 36.58125Q28.51875 37.8 26.26875 37.8Q23.95625 37.8 22.503124 36.8625Q21.065624 35.909374 20.3 34.128124Q19.55 32.33125 19.55 30.284374Q19.55 28.05 20.39375 26.39375Q21.253124 24.721874 22.83125 23.8625Q24.409374 22.9875 26.3 22.9875Q28.45625 22.9875 29.909374 24.08125Q31.378124 25.175 31.95625 27.159374L30.096874 27.596874Q29.596874 26.034374 28.64375 25.33125Q27.70625 24.6125 26.26875 24.6125Q24.6125 24.6125 23.503124 25.409374Q22.39375 26.190624 21.940624 27.534374Q21.503124 28.8625 21.503124 30.26875Q21.503124 32.096874 22.034374 33.471874Q22.565624 34.83125 23.690624 35.503124Q24.815624 36.175 26.1125 36.175Q27.70625 36.175 28.815624 35.253124Q29.925 34.33125 30.315624 32.534374ZM33.221874 32.3625Q33.221874 29.4875 34.815624 28.096874Q36.159374 26.940624 38.08125 26.940624Q40.221874 26.940624 41.565624 28.346874Q42.925 29.753124 42.925 32.221874Q42.925 34.221874 42.33125 35.378124Q41.7375 36.51875 40.58125 37.159374Q39.440624 37.784374 38.08125 37.784374Q35.89375 37.784374 34.55 36.39375Q33.221874 34.9875 33.221874 32.3625ZM35.01875 32.3625Q35.01875 34.3625 35.878124 35.346874Q36.753124 36.33125 38.08125 36.33125Q39.39375 36.33125 40.253124 35.346874Q41.128124 34.346874 41.128124 32.3Q41.128124 30.378124 40.253124 29.39375Q39.378124 28.39375 38.08125 28.39375Q36.753124 28.39375 35.878124 29.39375Q35.01875 30.378124 35.01875 32.3625ZM51.659374 37.55L51.659374 36.01875Q50.45625 37.784374 48.378124 37.784374Q47.45625 37.784374 46.659374 37.440624Q45.8625 37.08125 45.471874 36.55Q45.096874 36.01875 44.940624 35.2375Q44.83125 34.721874 44.83125 33.596874L44.83125 27.175L46.58125 27.175L46.58125 32.925Q46.58125 34.3 46.690624 34.784374Q46.8625 35.471874 47.39375 35.878124Q47.940624 36.26875 48.721874 36.26875Q49.51875 36.26875 50.20625 35.8625Q50.909374 35.45625 51.190624 34.76875Q51.4875 34.065624 51.4875 32.7375L51.4875 27.175L53.2375 27.175L53.2375 37.55L51.659374 37.55ZM55.8625 37.55L55.8625 27.175L57.45625 27.175L57.45625 28.659374Q58.596874 26.940624 60.753124 26.940624Q61.690624 26.940624 62.471874 27.284374Q63.26875 27.6125 63.659374 28.159374Q64.05 28.70625 64.20625 29.45625Q64.3 29.95625 64.3 31.175L64.3 37.55L62.534374 37.55L62.534374 31.2375Q62.534374 30.159374 62.33125 29.628124Q62.128124 29.096874 61.596874 28.784374Q61.08125 28.471874 60.378124 28.471874Q59.253124 28.471874 58.440624 29.190624Q57.628124 29.89375 57.628124 31.878124L57.628124 37.55L55.8625 37.55ZM70.70625 35.971874L70.95625 37.534374Q70.22188 37.690624 69.62813 37.690624Q68.675 37.690624 68.14375 37.39375Q67.62813 37.08125 67.40938 36.596874Q67.19063 36.096874 67.19063 34.51875L67.19063 28.55L65.90938 28.55L65.90938 27.175L67.19063 27.175L67.19063 24.6125L68.94063 23.55L68.94063 27.175L70.70625 27.175L70.70625 28.55L68.94063 28.55L68.94063 34.6125Q68.94063 35.3625 69.03438 35.58125Q69.12813 35.784374 69.33125 35.925Q69.55 36.05 69.94063 36.05Q70.22188 36.05 70.70625 35.971874ZM72.87813 25.253124L72.87813 23.2375L74.64375 23.2375L74.64375 25.253124L72.87813 25.253124ZM72.87813 37.55L72.87813 27.175L74.64375 27.175L74.64375 37.55L72.87813 37.55ZM76.8625 37.55L76.8625 27.175L78.45625 27.175L78.45625 28.659374Q79.59688 26.940624 81.75313 26.940624Q82.69063 26.940624 83.47188 27.284374Q84.26875 27.6125 84.65938 28.159374Q85.05 28.70625 85.20625 29.45625Q85.3 29.95625 85.3 31.175L85.3 37.55L83.53438 37.55L83.53438 31.2375Q83.53438 30.159374 83.33125 29.628124Q83.12813 29.096874 82.59688 28.784374Q82.08125 28.471874 81.37813 28.471874Q80.25313 28.471874 79.44063 29.190624Q78.62813 29.89375 78.62813 31.878124L78.62813 37.55L76.8625 37.55ZM87.55 38.409374L89.25313 38.659374Q89.3625 39.45625 89.84688 39.815624Q90.50313 40.3 91.64375 40.3Q92.8625 40.3 93.51875 39.815624Q94.19063 39.33125 94.425 38.45625Q94.56563 37.909374 94.55 36.190624Q93.39375 37.55 91.675 37.55Q89.53438 37.55 88.3625 36.003124Q87.19063 34.45625 87.19063 32.3Q87.19063 30.815624 87.72188 29.565624Q88.26875 28.315624 89.28438 27.628124Q90.31563 26.940624 91.69063 26.940624Q93.51875 26.940624 94.72188 28.425L94.72188 27.175L96.33125 27.175L96.33125 36.14375Q96.33125 38.565624 95.83125 39.565624Q95.34688 40.58125 94.26875 41.159374Q93.20625 41.753124 91.64375 41.753124Q89.8 41.753124 88.64375 40.925Q87.50313 40.096874 87.55 38.409374ZM89.00313 32.175Q89.00313 34.221874 89.81563 35.159374Q90.62813 36.096874 91.84688 36.096874Q93.05 36.096874 93.8625 35.159374Q94.69063 34.221874 94.69063 32.2375Q94.69063 30.33125 93.84688 29.3625Q93.00313 28.39375 91.81563 28.39375Q90.64375 28.39375 89.81563 29.346874Q89.00313 30.3 89.00313 32.175ZM108.7375 37.55L108.7375 24.925L104.01875 24.925L104.01875 23.2375L115.3625 23.2375L115.3625 24.925L110.62813 24.925L110.62813 37.55L108.7375 37.55ZM116.84688 37.55L116.84688 27.175L118.425 27.175L118.425 28.753124Q119.03438 27.64375 119.55 27.3Q120.06563 26.940624 120.675 26.940624Q121.56563 26.940624 122.4875 27.503124L121.87813 29.14375Q121.2375 28.753124 120.59688 28.753124Q120.01875 28.753124 119.55 29.1125Q119.09688 29.45625 118.89375 30.065624Q118.6125 31.003124 118.6125 32.1125L118.6125 37.55L116.84688 37.55ZM123.87813 25.253124L123.87813 23.2375L125.64375 23.2375L125.64375 25.253124L123.87813 25.253124ZM123.87813 37.55L123.87813 27.175L125.64375 27.175L125.64375 37.55L123.87813 37.55ZM134.64375 36.26875Q133.65938 37.096874 132.75313 37.440624Q131.84688 37.784374 130.81563 37.784374Q129.1125 37.784374 128.19063 36.95625Q127.26875 36.1125 127.26875 34.815624Q127.26875 34.05 127.6125 33.425Q127.97188 32.8 128.53438 32.425Q129.09688 32.034374 129.8 31.83125Q130.31563 31.70625 131.3625 31.565624Q133.4875 31.315624 134.4875 30.971874Q134.50313 30.6125 134.50313 30.503124Q134.50313 29.440624 134.00313 28.9875Q133.33125 28.39375 132.00313 28.39375Q130.75313 28.39375 130.15938 28.83125Q129.58125 29.26875 129.3 30.378124L127.58125 30.14375Q127.81563 29.034374 128.34688 28.3625Q128.87813 27.675 129.89375 27.315624Q130.90938 26.940624 132.25313 26.940624Q133.58125 26.940624 134.40938 27.253124Q135.2375 27.565624 135.62813 28.05Q136.01875 28.51875 136.175 29.2375Q136.26875 29.690624 136.26875 30.8625L136.26875 33.20625Q136.26875 35.659374 136.37813 36.315624Q136.4875 36.95625 136.83125 37.55L134.9875 37.55Q134.72188 37.003124 134.64375 36.26875ZM134.4875 32.346874Q133.53438 32.7375 131.6125 33.003124Q130.53438 33.159374 130.08125 33.3625Q129.64375 33.55 129.39375 33.925Q129.14375 34.3 129.14375 34.76875Q129.14375 35.471874 129.675 35.940624Q130.20625 36.409374 131.2375 36.409374Q132.25313 36.409374 133.03438 35.971874Q133.83125 35.51875 134.20625 34.753124Q134.4875 34.14375 134.4875 32.9875L134.4875 32.346874ZM138.8625 37.55L138.8625 27.175L140.45625 27.175L140.45625 28.659374Q141.59688 26.940624 143.75313 26.940624Q144.69063 26.940624 145.47188 27.284374Q146.26875 27.6125 146.65938 28.159374Q147.05 28.70625 147.20625 29.45625Q147.3 29.95625 147.3 31.175L147.3 37.55L145.53438 37.55L145.53438 31.2375Q145.53438 30.159374 145.33125 29.628124Q145.12813 29.096874 144.59688 28.784374Q144.08125 28.471874 143.37813 28.471874Q142.25313 28.471874 141.44063 29.190624Q140.62813 29.89375 140.62813 31.878124L140.62813 37.55L138.8625 37.55ZM149.55 38.409374L151.25313 38.659374Q151.3625 39.45625 151.84688 39.815624Q152.50313 40.3 153.64375 40.3Q154.8625 40.3 155.51875 39.815624Q156.19063 39.33125 156.425 38.45625Q156.56563 37.909374 156.55 36.190624Q155.39375 37.55 153.675 37.55Q151.53438 37.55 150.3625 36.003124Q149.19063 34.45625 149.19063 32.3Q149.19063 30.815624 149.72188 29.565624Q150.26875 28.315624 151.28438 27.628124Q152.31563 26.940624 153.69063 26.940624Q155.51875 26.940624 156.72188 28.425L156.72188 27.175L158.33125 27.175L158.33125 36.14375Q158.33125 38.565624 157.83125 39.565624Q157.34688 40.58125 156.26875 41.159374Q155.20625 41.753124 153.64375 41.753124Q151.8 41.753124 150.64375 40.925Q149.50313 40.096874 149.55 38.409374ZM151.00313 32.175Q151.00313 34.221874 151.81563 35.159374Q152.62813 36.096874 153.84688 36.096874Q155.05 36.096874 155.8625 35.159374Q156.69063 34.221874 156.69063 32.2375Q156.69063 30.33125 155.84688 29.3625Q155.00313 28.39375 153.81563 28.39375Q152.64375 28.39375 151.81563 29.346874Q151.00313 30.3 151.00313 32.175ZM160.83125 37.55L160.83125 23.2375L162.58125 23.2375L162.58125 37.55L160.83125 37.55ZM171.97188 34.20625L173.78438 34.440624Q173.3625 36.01875 172.19063 36.909374Q171.03438 37.784374 169.22188 37.784374Q166.95625 37.784374 165.6125 36.39375Q164.28438 34.9875 164.28438 32.45625Q164.28438 29.83125 165.62813 28.39375Q166.97188 26.940624 169.12813 26.940624Q171.20625 26.940624 172.51875 28.3625Q173.84688 29.76875 173.84688 32.346874Q173.84688 32.503124 173.83125 32.815624L166.09688 32.815624Q166.19063 34.51875 167.06563 35.425Q167.94063 36.33125 169.2375 36.33125Q170.20625 36.33125 170.87813 35.83125Q171.56563 35.315624 171.97188 34.20625ZM166.19063 31.3625L171.9875 31.3625Q171.87813 30.065624 171.33125 29.409374Q170.4875 28.39375 169.14375 28.39375Q167.94063 28.39375 167.1125 29.20625Q166.28438 30.003124 166.19063 31.3625ZM175.15938 34.45625L176.90938 34.175Q177.05 35.221874 177.72188 35.784374Q178.39375 36.33125 179.59688 36.33125Q180.8 36.33125 181.37813 35.846874Q181.97188 35.346874 181.97188 34.690624Q181.97188 34.096874 181.45625 33.753124Q181.09688 33.51875 179.65938 33.159374Q177.72188 32.659374 176.97188 32.315624Q176.2375 31.95625 175.84688 31.33125Q175.45625 30.690624 175.45625 29.925Q175.45625 29.2375 175.76875 28.64375Q176.09688 28.05 176.64375 27.659374Q177.05 27.3625 177.75313 27.159374Q178.47188 26.940624 179.28438 26.940624Q180.50313 26.940624 181.425 27.3Q182.34688 27.64375 182.78438 28.253124Q183.22188 28.846874 183.39375 29.846874L181.675 30.08125Q181.55 29.284374 180.9875 28.846874Q180.425 28.39375 179.40938 28.39375Q178.19063 28.39375 177.675 28.8Q177.15938 29.190624 177.15938 29.721874Q177.15938 30.065624 177.37813 30.346874Q177.58125 30.628124 178.05 30.815624Q178.31563 30.909374 179.59688 31.253124Q181.47188 31.753124 182.20625 32.08125Q182.94063 32.39375 183.3625 33.003124Q183.78438 33.596874 183.78438 34.503124Q183.78438 35.378124 183.26875 36.159374Q182.75313 36.940624 181.78438 37.3625Q180.81563 37.784374 179.59688 37.784374Q177.58125 37.784374 176.51875 36.940624Q175.45625 36.096874 175.15938 34.45625ZM191.19063 33.253124L191.19063 31.4875L196.58125 31.4875L196.58125 33.253124L191.19063 33.253124ZM204.39375 33.76875L206.14375 33.534374Q206.45625 35.034374 207.175 35.690624Q207.90938 36.346874 208.95625 36.346874Q210.19063 36.346874 211.03438 35.4875Q211.89375 34.628124 211.89375 33.3625Q211.89375 32.14375 211.09688 31.3625Q210.31563 30.58125 209.09688 30.58125Q208.59688 30.58125 207.8625 30.76875L208.05 29.221874Q208.22188 29.253124 208.33125 29.253124Q209.45625 29.253124 210.34688 28.675Q211.25313 28.08125 211.25313 26.8625Q211.25313 25.89375 210.59688 25.253124Q209.94063 24.6125 208.90938 24.6125Q207.89375 24.6125 207.20625 25.26875Q206.51875 25.909374 206.33125 27.190624L204.56563 26.878124Q204.89375 25.1125 206.03438 24.14375Q207.175 23.175 208.87813 23.175Q210.05 23.175 211.03438 23.675Q212.01875 24.175 212.53438 25.05Q213.06563 25.925 213.06563 26.89375Q213.06563 27.815624 212.56563 28.58125Q212.06563 29.346874 211.09688 29.8Q212.3625 30.08125 213.06563 31.01875Q213.76875 31.940624 213.76875 33.315624Q213.76875 35.190624 212.39375 36.503124Q211.03438 37.8 208.94063 37.8Q207.05 37.8 205.8 36.675Q204.56563 35.55 204.39375 33.76875ZM224.6125 35.8625L224.6125 37.55L215.15938 37.55Q215.14375 36.909374 215.3625 36.33125Q215.72188 35.3625 216.51875 34.425Q217.31563 33.4875 218.81563 32.253124Q221.15938 30.346874 221.97188 29.2375Q222.8 28.1125 222.8 27.1125Q222.8 26.065624 222.05 25.346874Q221.3 24.628124 220.09688 24.628124Q218.83125 24.628124 218.06563 25.39375Q217.3 26.159374 217.3 27.503124L215.4875 27.315624Q215.675 25.3 216.87813 24.2375Q218.09688 23.175 220.14375 23.175Q222.19063 23.175 223.39375 24.315624Q224.59688 25.45625 224.59688 27.14375Q224.59688 28.003124 224.2375 28.846874Q223.89375 29.675 223.08125 30.596874Q222.26875 31.503124 220.37813 33.1125Q218.78438 34.440624 218.33125 34.909374Q217.89375 35.378124 217.59688 35.8625L224.6125 35.8625ZM243.31563 32.534374L245.20625 33.003124Q244.6125 35.346874 243.06563 36.58125Q241.51875 37.8 239.26875 37.8Q236.95625 37.8 235.50313 36.8625Q234.06563 35.909374 233.3 34.128124Q232.55 32.33125 232.55 30.284374Q232.55 28.05 233.39375 26.39375Q234.25313 24.721874 235.83125 23.8625Q237.40938 22.9875 239.3 22.9875Q241.45625 22.9875 242.90938 24.08125Q244.37813 25.175 244.95625 27.159374L243.09688 27.596874Q242.59688 26.034374 241.64375 25.33125Q240.70625 24.6125 239.26875 24.6125Q237.6125 24.6125 236.50313 25.409374Q235.39375 26.190624 234.94063 27.534374Q234.50313 28.8625 234.50313 30.26875Q234.50313 32.096874 235.03438 33.471874Q235.56563 34.83125 236.69063 35.503124Q237.81563 36.175 239.1125 36.175Q240.70625 36.175 241.81563 35.253124Q242.925 34.33125 243.31563 32.534374ZM247.09688 37.55L247.09688 23.2375L252.4875 23.2375Q253.925 23.2375 254.675 23.3625Q255.72188 23.55 256.4406 24.05Q257.15936 24.534374 257.58124 25.425Q258.01874 26.315624 258.01874 27.378124Q258.01874 29.20625 256.84686 30.471874Q255.69063 31.721874 252.65938 31.721874L248.9875 31.721874L248.9875 37.55L247.09688 37.55ZM248.9875 30.034374L252.69063 30.034374Q254.51875 30.034374 255.28438 29.3625Q256.0656 28.675 256.0656 27.425Q256.0656 26.534374 255.6125 25.89375Q255.15938 25.253124 254.425 25.05Q253.94063 24.925 252.64375 24.925L248.9875 24.925L248.9875 30.034374ZM269.4875 23.2375L271.3781 23.2375L271.3781 31.503124Q271.3781 33.659374 270.89374 34.940624Q270.40936 36.20625 269.1281 37.003124Q267.8625 37.8 265.78436 37.8Q263.76874 37.8 262.4875 37.1125Q261.22186 36.409374 260.675 35.096874Q260.1281 33.784374 260.1281 31.503124L260.1281 23.2375L262.01874 23.2375L262.01874 31.4875Q262.01874 33.3625 262.3625 34.253124Q262.70624 35.128124 263.55 35.6125Q264.39374 36.08125 265.6281 36.08125Q267.70624 36.08125 268.59686 35.14375Q269.4875 34.190624 269.4875 31.4875L269.4875 23.2375ZM274.33124 37.55L274.33124 35.55L276.33124 35.55L276.33124 37.55Q276.33124 38.659374 275.9406 39.33125Q275.55 40.01875 274.70624 40.378124L274.20624 39.628124Q274.76874 39.39375 275.03436 38.909374Q275.3 38.440624 275.33124 37.55L274.33124 37.55ZM294.6125 35.8625L294.6125 37.55L285.15936 37.55Q285.14374 36.909374 285.3625 36.33125Q285.72186 35.3625 286.51874 34.425Q287.3156 33.4875 288.8156 32.253124Q291.15936 30.346874 291.97186 29.2375Q292.8 28.1125 292.8 27.1125Q292.8 26.065624 292.05 25.346874Q291.3 24.628124 290.09686 24.628124Q288.83124 24.628124 288.0656 25.39375Q287.3 26.159374 287.3 27.503124L285.4875 27.315624Q285.675 25.3 286.8781 24.2375Q288.09686 23.175 290.14374 23.175Q292.1906 23.175 293.39374 24.315624Q294.59686 25.45625 294.59686 27.14375Q294.59686 28.003124 294.2375 28.846874Q293.89374 29.675 293.08124 30.596874Q292.26874 31.503124 290.3781 33.1125Q288.78436 34.440624 288.33124 34.909374Q287.89374 35.378124 287.59686 35.8625L294.6125 35.8625ZM296.3781 30.4875Q296.3781 27.95625 296.89374 26.409374Q297.425 24.846874 298.45624 24.01875Q299.4875 23.175 301.05 23.175Q302.20624 23.175 303.0656 23.64375Q303.9406 24.096874 304.5031 24.971874Q305.0656 25.846874 305.39374 27.1125Q305.72186 28.3625 305.72186 30.4875Q305.72186 33.003124 305.1906 34.55Q304.675 36.096874 303.64374 36.95625Q302.6281 37.8 301.05 37.8Q298.97186 37.8 297.8 36.315624Q296.3781 34.51875 296.3781 30.4875ZM298.1906 30.4875Q298.1906 34.01875 299.0031 35.190624Q299.83124 36.346874 301.05 36.346874Q302.2531 36.346874 303.08124 35.175Q303.90936 34.003124 303.90936 30.4875Q303.90936 26.95625 303.08124 25.8Q302.2531 24.628124 301.03436 24.628124Q299.8156 24.628124 299.09686 25.659374Q298.1906 26.95625 298.1906 30.4875ZM307.3781 30.4875Q307.3781 27.95625 307.89374 26.409374Q308.425 24.846874 309.45624 24.01875Q310.4875 23.175 312.05 23.175Q313.20624 23.175 314.0656 23.64375Q314.9406 24.096874 315.5031 24.971874Q316.0656 25.846874 316.39374 27.1125Q316.72186 28.3625 316.72186 30.4875Q316.72186 33.003124 316.1906 34.55Q315.675 36.096874 314.64374 36.95625Q313.6281 37.8 312.05 37.8Q309.97186 37.8 308.8 36.315624Q307.3781 34.51875 307.3781 30.4875ZM309.1906 30.4875Q309.1906 34.01875 310.0031 35.190624Q310.83124 36.346874 312.05 36.346874Q313.2531 36.346874 314.08124 35.175Q314.90936 34.003124 314.90936 30.4875Q314.90936 26.95625 314.08124 25.8Q313.2531 24.628124 312.03436 24.628124Q310.8156 24.628124 310.09686 25.659374Q309.1906 26.95625 309.1906 30.4875ZM331.8 31.940624L331.8 30.253124L337.8625 30.2375L337.8625 35.55Q336.45624 36.675 334.97186 37.2375Q333.4875 37.8 331.925 37.8Q329.8156 37.8 328.09686 36.89375Q326.3781 35.9875 325.4875 34.284374Q324.6125 32.565624 324.6125 30.45625Q324.6125 28.3625 325.4875 26.565624Q326.3625 24.753124 328.0031 23.878124Q329.64374 22.9875 331.78436 22.9875Q333.33124 22.9875 334.58124 23.4875Q335.84686 23.9875 336.55 24.89375Q337.26874 25.784374 337.64374 27.2375L335.9406 27.70625Q335.6125 26.6125 335.1281 25.9875Q334.65936 25.3625 333.76874 24.9875Q332.8781 24.6125 331.8 24.6125Q330.4875 24.6125 329.53436 25.003124Q328.59686 25.39375 328.01874 26.05Q327.4406 26.690624 327.1125 27.45625Q326.5656 28.784374 326.5656 30.346874Q326.5656 32.253124 327.22186 33.55Q327.89374 34.83125 329.14374 35.45625Q330.40936 36.08125 331.8156 36.08125Q333.05 36.08125 334.22186 35.6125Q335.39374 35.14375 336.0031 34.596874L336.0031 31.940624L331.8 31.940624ZM341.01874 37.55L341.01874 23.2375L346.39374 23.2375Q348.03436 23.2375 349.01874 23.675Q350.0031 24.096874 350.5656 25.003124Q351.1281 25.909374 351.1281 26.89375Q351.1281 27.815624 350.6281 28.628124Q350.14374 29.440624 349.1281 29.925Q350.425 30.315624 351.1281 31.2375Q351.83124 32.14375 351.83124 33.39375Q351.83124 34.409374 351.39374 35.26875Q350.97186 36.128124 350.34686 36.596874Q349.72186 37.065624 348.78436 37.315624Q347.84686 37.55 346.47186 37.55L341.01874 37.55ZM342.90936 29.253124L346.0031 29.253124Q347.26874 29.253124 347.8156 29.08125Q348.53436 28.8625 348.89374 28.378124Q349.26874 27.878124 349.26874 27.1125Q349.26874 26.409374 348.925 25.8625Q348.58124 25.315624 347.9406 25.128124Q347.3156 24.925 345.76874 24.925L342.90936 24.925L342.90936 29.253124ZM342.90936 35.8625L346.47186 35.8625Q347.39374 35.8625 347.76874 35.784374Q348.425 35.675 348.8625 35.409374Q349.3 35.128124 349.58124 34.6125Q349.8625 34.08125 349.8625 33.39375Q349.8625 32.596874 349.45624 32.003124Q349.05 31.409374 348.3156 31.175Q347.58124 30.940624 346.22186 30.940624L342.90936 30.940624L342.90936 35.8625Z" fill-rule="nonzero"/></svg>